<?xml version="1.0" encoding="UTF-8"?><svg xmlns="http://www.w3.org/2000/svg" xmlns:xlink="http://www.w3.org/1999/xlink" width="1012.5pt" zoomAndPan="magnify" viewBox="0 0 1012.5 487.499991" height="487.499991pt" preserveAspectRatio="xMidYMid meet" version="1.2"><defs><clipPath xml:id="clip1" id="clip1"><path d="M 4 2 L 44 2 L 44 87 L 4 87 Z M 4 2 "/></clipPath><clipPath xml:id="clip2" id="clip2"><path d="M 137.6875 124.132812 L 38.738281 163.367188 L -18.730469 18.429688 L 80.214844 -20.804688 Z M 137.6875 124.132812 "/></clipPath><clipPath xml:id="clip3" id="clip3"><path d="M 137.6875 124.132812 L 38.738281 163.367188 L -18.730469 18.429688 L 80.214844 -20.804688 Z M 137.6875 124.132812 "/></clipPath><clipPath xml:id="clip4" id="clip4"><path d="M 47 39 L 121 39 L 121 132 L 47 132 Z M 47 39 "/></clipPath><clipPath xml:id="clip5" id="clip5"><path d="M 137.6875 124.132812 L 38.738281 163.367188 L -18.730469 18.429688 L 80.214844 -20.804688 Z M 137.6875 124.132812 "/></clipPath><clipPath xml:id="clip6" id="clip6"><path d="M 137.6875 124.132812 L 38.738281 163.367188 L -18.730469 18.429688 L 80.214844 -20.804688 Z M 137.6875 124.132812 "/></clipPath><clipPath xml:id="clip7" id="clip7"><path d="M 48 38 L 113 38 L 113 86 L 48 86 Z M 48 38 "/></clipPath><clipPath xml:id="clip8" id="clip8"><path d="M 137.6875 124.132812 L 38.738281 163.367188 L -18.730469 18.429688 L 80.214844 -20.804688 Z M 137.6875 124.132812 "/></clipPath><clipPath xml:id="clip9" id="clip9"><path d="M 137.6875 124.132812 L 38.738281 163.367188 L -18.730469 18.429688 L 80.214844 -20.804688 Z M 137.6875 124.132812 "/></clipPath><clipPath xml:id="clip10" id="clip10"><path d="M 22 19 L 36 19 L 36 63 L 22 63 Z M 22 19 "/></clipPath><clipPath xml:id="clip11" id="clip11"><path d="M 137.6875 124.132812 L 38.738281 163.367188 L -18.730469 18.429688 L 80.214844 -20.804688 Z M 137.6875 124.132812 "/></clipPath><clipPath xml:id="clip12" id="clip12"><path d="M 137.6875 124.132812 L 38.738281 163.367188 L -18.730469 18.429688 L 80.214844 -20.804688 Z M 137.6875 124.132812 "/></clipPath><clipPath xml:id="clip13" id="clip13"><path d="M 42 85 L 57 85 L 57 100 L 42 100 Z M 42 85 "/></clipPath><clipPath xml:id="clip14" id="clip14"><path d="M 137.6875 124.132812 L 38.738281 163.367188 L -18.730469 18.429688 L 80.214844 -20.804688 Z M 137.6875 124.132812 "/></clipPath><clipPath xml:id="clip15" id="clip15"><path d="M 137.6875 124.132812 L 38.738281 163.367188 L -18.730469 18.429688 L 80.214844 -20.804688 Z M 137.6875 124.132812 "/></clipPath><clipPath xml:id="clip16" id="clip16"><path d="M 961 2 L 1000 2 L 1000 86 L 961 86 Z M 961 2 "/></clipPath><clipPath xml:id="clip17" id="clip17"><path d="M 968.269531 162.90625 L 868.445312 125.953125 L 922.570312 -20.269531 L 1022.394531 16.683594 Z M 968.269531 162.90625 "/></clipPath><clipPath xml:id="clip18" id="clip18"><path d="M 868.347656 125.917969 L 968.167969 162.867188 L 1022.296875 16.648438 L 922.472656 -20.304688 Z M 868.347656 125.917969 "/></clipPath><clipPath xml:id="clip19" id="clip19"><path d="M 885 39 L 957 39 L 957 133 L 885 133 Z M 885 39 "/></clipPath><clipPath xml:id="clip20" id="clip20"><path d="M 968.269531 162.90625 L 868.445312 125.953125 L 922.570312 -20.269531 L 1022.394531 16.683594 Z M 968.269531 162.90625 "/></clipPath><clipPath xml:id="clip21" id="clip21"><path d="M 868.347656 125.917969 L 968.167969 162.867188 L 1022.296875 16.648438 L 922.472656 -20.304688 Z M 868.347656 125.917969 "/></clipPath><clipPath xml:id="clip22" id="clip22"><path d="M 892 38 L 956 38 L 956 87 L 892 87 Z M 892 38 "/></clipPath><clipPath xml:id="clip23" id="clip23"><path d="M 968.269531 162.90625 L 868.445312 125.953125 L 922.570312 -20.269531 L 1022.394531 16.683594 Z M 968.269531 162.90625 "/></clipPath><clipPath xml:id="clip24" id="clip24"><path d="M 868.347656 125.917969 L 968.167969 162.867188 L 1022.296875 16.648438 L 922.472656 -20.304688 Z M 868.347656 125.917969 "/></clipPath><clipPath xml:id="clip25" id="clip25"><path d="M 968 18 L 982 18 L 982 63 L 968 63 Z M 968 18 "/></clipPath><clipPath xml:id="clip26" id="clip26"><path d="M 968.269531 162.90625 L 868.445312 125.953125 L 922.570312 -20.269531 L 1022.394531 16.683594 Z M 968.269531 162.90625 "/></clipPath><clipPath xml:id="clip27" id="clip27"><path d="M 868.347656 125.917969 L 968.167969 162.867188 L 1022.296875 16.648438 L 922.472656 -20.304688 Z M 868.347656 125.917969 "/></clipPath><clipPath xml:id="clip28" id="clip28"><path d="M 948 84 L 963 84 L 963 99 L 948 99 Z M 948 84 "/></clipPath><clipPath xml:id="clip29" id="clip29"><path d="M 968.269531 162.90625 L 868.445312 125.953125 L 922.570312 -20.269531 L 1022.394531 16.683594 Z M 968.269531 162.90625 "/></clipPath><clipPath xml:id="clip30" id="clip30"><path d="M 868.347656 125.917969 L 968.167969 162.867188 L 1022.296875 16.648438 L 922.472656 -20.304688 Z M 868.347656 125.917969 "/></clipPath><clipPath xml:id="clip31" id="clip31"><path d="M 3 102 L 45 102 L 45 220 L 3 220 Z M 3 102 "/></clipPath><clipPath xml:id="clip32" id="clip32"><path d="M -29.570312 199.320312 L 3.835938 102.207031 L 105.90625 137.320312 L 72.5 234.429688 Z M -29.570312 199.320312 "/></clipPath><clipPath xml:id="clip33" id="clip33"><path d="M -29.570312 199.320312 L 3.835938 102.207031 L 105.90625 137.320312 L 72.5 234.429688 Z M -29.570312 199.320312 "/></clipPath><clipPath xml:id="clip34" id="clip34"><path d="M 38 120 L 93 120 L 93 151 L 38 151 Z M 38 120 "/></clipPath><clipPath xml:id="clip35" id="clip35"><path d="M -29.570312 199.320312 L 3.835938 102.207031 L 105.90625 137.320312 L 72.5 234.429688 Z M -29.570312 199.320312 "/></clipPath><clipPath xml:id="clip36" id="clip36"><path d="M -29.570312 199.320312 L 3.835938 102.207031 L 105.90625 137.320312 L 72.5 234.429688 Z M -29.570312 199.320312 "/></clipPath><clipPath xml:id="clip37" id="clip37"><path d="M 55 161 L 86 161 L 86 204 L 55 204 Z M 55 161 "/></clipPath><clipPath xml:id="clip38" id="clip38"><path d="M -29.570312 199.320312 L 3.835938 102.207031 L 105.90625 137.320312 L 72.5 234.429688 Z M -29.570312 199.320312 "/></clipPath><clipPath xml:id="clip39" id="clip39"><path d="M -29.570312 199.320312 L 3.835938 102.207031 L 105.90625 137.320312 L 72.5 234.429688 Z M -29.570312 199.320312 "/></clipPath><clipPath xml:id="clip40" id="clip40"><path d="M 966 97 L 999 97 L 999 217 L 966 217 Z M 966 97 "/></clipPath><clipPath xml:id="clip41" id="clip41"><path d="M 998.496094 96.96875 L 1040.359375 190.742188 L 941.796875 234.75 L 899.929688 140.976562 Z M 998.496094 96.96875 "/></clipPath><clipPath xml:id="clip42" id="clip42"><path d="M 1040.222656 190.433594 L 998.355469 96.660156 L 899.792969 140.664062 L 941.65625 234.4375 Z M 1040.222656 190.433594 "/></clipPath><clipPath xml:id="clip43" id="clip43"><path d="M 913 117 L 966 117 L 966 152 L 913 152 Z M 913 117 "/></clipPath><clipPath xml:id="clip44" id="clip44"><path d="M 998.496094 96.96875 L 1040.359375 190.742188 L 941.796875 234.75 L 899.929688 140.976562 Z M 998.496094 96.96875 "/></clipPath><clipPath xml:id="clip45" id="clip45"><path d="M 1040.222656 190.433594 L 998.355469 96.660156 L 899.792969 140.664062 L 941.65625 234.4375 Z M 1040.222656 190.433594 "/></clipPath><clipPath xml:id="clip46" id="clip46"><path d="M 925 160 L 952 160 L 952 205 L 925 205 Z M 925 160 "/></clipPath><clipPath xml:id="clip47" id="clip47"><path d="M 998.496094 96.96875 L 1040.359375 190.742188 L 941.796875 234.75 L 899.929688 140.976562 Z M 998.496094 96.96875 "/></clipPath><clipPath xml:id="clip48" id="clip48"><path d="M 1040.222656 190.433594 L 998.355469 96.660156 L 899.792969 140.664062 L 941.65625 234.4375 Z M 1040.222656 190.433594 "/></clipPath><clipPath xml:id="clip49" id="clip49"><path d="M 82 7 L 204 7 L 204 40 L 82 40 Z M 82 7 "/></clipPath><clipPath xml:id="clip50" id="clip50"><path d="M 227 54.277344 L 141.132812 110.609375 L 81.921875 20.355469 L 167.789062 -35.976562 Z M 227 54.277344 "/></clipPath><clipPath xml:id="clip51" id="clip51"><path d="M 167.839844 -35.898438 L 81.972656 20.433594 L 141.183594 110.6875 L 227.050781 54.355469 Z M 167.839844 -35.898438 "/></clipPath><clipPath xml:id="clip52" id="clip52"><path d="M 107 49 L 148 49 L 148 98 L 107 98 Z M 107 49 "/></clipPath><clipPath xml:id="clip53" id="clip53"><path d="M 227 54.277344 L 141.132812 110.609375 L 81.921875 20.355469 L 167.789062 -35.976562 Z M 227 54.277344 "/></clipPath><clipPath xml:id="clip54" id="clip54"><path d="M 167.839844 -35.898438 L 81.972656 20.433594 L 141.183594 110.6875 L 227.050781 54.355469 Z M 167.839844 -35.898438 "/></clipPath><clipPath xml:id="clip55" id="clip55"><path d="M 152 56 L 200 56 L 200 78 L 152 78 Z M 152 56 "/></clipPath><clipPath xml:id="clip56" id="clip56"><path d="M 227 54.277344 L 141.132812 110.609375 L 81.921875 20.355469 L 167.789062 -35.976562 Z M 227 54.277344 "/></clipPath><clipPath xml:id="clip57" id="clip57"><path d="M 167.839844 -35.898438 L 81.972656 20.433594 L 141.183594 110.6875 L 227.050781 54.355469 Z M 167.839844 -35.898438 "/></clipPath><clipPath xml:id="clip58" id="clip58"><path d="M 800 4 L 921 4 L 921 35 L 800 35 Z M 800 4 "/></clipPath><clipPath xml:id="clip59" id="clip59"><path d="M 872.359375 102.515625 L 780.472656 56.65625 L 828.671875 -39.925781 L 920.558594 5.933594 Z M 872.359375 102.515625 "/></clipPath><clipPath xml:id="clip60" id="clip60"><path d="M 828.933594 -39.6875 L 920.824219 6.167969 L 872.621094 102.75 L 780.734375 56.894531 Z M 828.933594 -39.6875 "/></clipPath><clipPath xml:id="clip61" id="clip61"><path d="M 863 37 L 899 37 L 899 90 L 863 90 Z M 863 37 "/></clipPath><clipPath xml:id="clip62" id="clip62"><path d="M 872.359375 102.515625 L 780.472656 56.65625 L 828.671875 -39.925781 L 920.558594 5.933594 Z M 872.359375 102.515625 "/></clipPath><clipPath xml:id="clip63" id="clip63"><path d="M 828.933594 -39.6875 L 920.824219 6.167969 L 872.621094 102.75 L 780.734375 56.894531 Z M 828.933594 -39.6875 "/></clipPath><clipPath xml:id="clip64" id="clip64"><path d="M 810 50 L 856 50 L 856 76 L 810 76 Z M 810 50 "/></clipPath><clipPath xml:id="clip65" id="clip65"><path d="M 872.359375 102.515625 L 780.472656 56.65625 L 828.671875 -39.925781 L 920.558594 5.933594 Z M 872.359375 102.515625 "/></clipPath><clipPath xml:id="clip66" id="clip66"><path d="M 828.933594 -39.6875 L 920.824219 6.167969 L 872.621094 102.75 L 780.734375 56.894531 Z M 828.933594 -39.6875 "/></clipPath><clipPath xml:id="clip67" id="clip67"><path d="M 964 404 L 1004 404 L 1004 487 L 964 487 Z M 964 404 "/></clipPath><clipPath xml:id="clip68" id="clip68"><path d="M 870.09375 366.546875 L 969.042969 327.3125 L 1026.511719 472.25 L 927.566406 511.488281 Z M 870.09375 366.546875 "/></clipPath><clipPath xml:id="clip69" id="clip69"><path d="M 870.09375 366.546875 L 969.042969 327.3125 L 1026.511719 472.25 L 927.566406 511.488281 Z M 870.09375 366.546875 "/></clipPath><clipPath xml:id="clip70" id="clip70"><path d="M 887 359 L 960 359 L 960 452 L 887 452 Z M 887 359 "/></clipPath><clipPath xml:id="clip71" id="clip71"><path d="M 870.09375 366.546875 L 969.042969 327.3125 L 1026.511719 472.25 L 927.566406 511.488281 Z M 870.09375 366.546875 "/></clipPath><clipPath xml:id="clip72" id="clip72"><path d="M 870.09375 366.546875 L 969.042969 327.3125 L 1026.511719 472.25 L 927.566406 511.488281 Z M 870.09375 366.546875 "/></clipPath><clipPath xml:id="clip73" id="clip73"><path d="M 895 405 L 960 405 L 960 452 L 895 452 Z M 895 405 "/></clipPath><clipPath xml:id="clip74" id="clip74"><path d="M 870.09375 366.546875 L 969.042969 327.3125 L 1026.511719 472.25 L 927.566406 511.488281 Z M 870.09375 366.546875 "/></clipPath><clipPath xml:id="clip75" id="clip75"><path d="M 870.09375 366.546875 L 969.042969 327.3125 L 1026.511719 472.25 L 927.566406 511.488281 Z M 870.09375 366.546875 "/></clipPath><clipPath xml:id="clip76" id="clip76"><path d="M 971 427 L 986 427 L 986 472 L 971 472 Z M 971 427 "/></clipPath><clipPath xml:id="clip77" id="clip77"><path d="M 870.09375 366.546875 L 969.042969 327.3125 L 1026.511719 472.25 L 927.566406 511.488281 Z M 870.09375 366.546875 "/></clipPath><clipPath xml:id="clip78" id="clip78"><path d="M 870.09375 366.546875 L 969.042969 327.3125 L 1026.511719 472.25 L 927.566406 511.488281 Z M 870.09375 366.546875 "/></clipPath><clipPath xml:id="clip79" id="clip79"><path d="M 951 391 L 966 391 L 966 406 L 951 406 Z M 951 391 "/></clipPath><clipPath xml:id="clip80" id="clip80"><path d="M 870.09375 366.546875 L 969.042969 327.3125 L 1026.511719 472.25 L 927.566406 511.488281 Z M 870.09375 366.546875 "/></clipPath><clipPath xml:id="clip81" id="clip81"><path d="M 870.09375 366.546875 L 969.042969 327.3125 L 1026.511719 472.25 L 927.566406 511.488281 Z M 870.09375 366.546875 "/></clipPath><clipPath xml:id="clip82" id="clip82"><path d="M 963 270 L 1004 270 L 1004 388 L 963 388 Z M 963 270 "/></clipPath><clipPath xml:id="clip83" id="clip83"><path d="M 1037.347656 291.355469 L 1003.941406 388.46875 L 901.867188 353.355469 L 935.273438 256.246094 Z M 1037.347656 291.355469 "/></clipPath><clipPath xml:id="clip84" id="clip84"><path d="M 1037.347656 291.355469 L 1003.941406 388.46875 L 901.867188 353.355469 L 935.273438 256.246094 Z M 1037.347656 291.355469 "/></clipPath><clipPath xml:id="clip85" id="clip85"><path d="M 914 340 L 970 340 L 970 371 L 914 371 Z M 914 340 "/></clipPath><clipPath xml:id="clip86" id="clip86"><path d="M 1037.347656 291.355469 L 1003.941406 388.46875 L 901.867188 353.355469 L 935.273438 256.246094 Z M 1037.347656 291.355469 "/></clipPath><clipPath xml:id="clip87" id="clip87"><path d="M 1037.347656 291.355469 L 1003.941406 388.46875 L 901.867188 353.355469 L 935.273438 256.246094 Z M 1037.347656 291.355469 "/></clipPath><clipPath xml:id="clip88" id="clip88"><path d="M 922 287 L 952 287 L 952 330 L 922 330 Z M 922 287 "/></clipPath><clipPath xml:id="clip89" id="clip89"><path d="M 1037.347656 291.355469 L 1003.941406 388.46875 L 901.867188 353.355469 L 935.273438 256.246094 Z M 1037.347656 291.355469 "/></clipPath><clipPath xml:id="clip90" id="clip90"><path d="M 1037.347656 291.355469 L 1003.941406 388.46875 L 901.867188 353.355469 L 935.273438 256.246094 Z M 1037.347656 291.355469 "/></clipPath><clipPath xml:id="clip91" id="clip91"><path d="M 804 451 L 926 451 L 926 484 L 804 484 Z M 804 451 "/></clipPath><clipPath xml:id="clip92" id="clip92"><path d="M 780.773438 436.398438 L 866.640625 380.066406 L 925.851562 470.320312 L 839.984375 526.652344 Z M 780.773438 436.398438 "/></clipPath><clipPath xml:id="clip93" id="clip93"><path d="M 839.933594 526.574219 L 925.800781 470.242188 L 866.589844 379.988281 L 780.722656 436.320312 Z M 839.933594 526.574219 "/></clipPath><clipPath xml:id="clip94" id="clip94"><path d="M 860 393 L 900 393 L 900 442 L 860 442 Z M 860 393 "/></clipPath><clipPath xml:id="clip95" id="clip95"><path d="M 780.773438 436.398438 L 866.640625 380.066406 L 925.851562 470.320312 L 839.984375 526.652344 Z M 780.773438 436.398438 "/></clipPath><clipPath xml:id="clip96" id="clip96"><path d="M 839.933594 526.574219 L 925.800781 470.242188 L 866.589844 379.988281 L 780.722656 436.320312 Z M 839.933594 526.574219 "/></clipPath><clipPath xml:id="clip97" id="clip97"><path d="M 808 413 L 856 413 L 856 435 L 808 435 Z M 808 413 "/></clipPath><clipPath xml:id="clip98" id="clip98"><path d="M 780.773438 436.398438 L 866.640625 380.066406 L 925.851562 470.320312 L 839.984375 526.652344 Z M 780.773438 436.398438 "/></clipPath><clipPath xml:id="clip99" id="clip99"><path d="M 839.933594 526.574219 L 925.800781 470.242188 L 866.589844 379.988281 L 780.722656 436.320312 Z M 839.933594 526.574219 "/></clipPath><clipPath xml:id="clip100" id="clip100"><path d="M 8 401 L 47 401 L 47 485 L 8 485 Z M 8 401 "/></clipPath><clipPath xml:id="clip101" id="clip101"><path d="M 39.511719 323.988281 L 139.335938 360.9375 L 85.210938 507.160156 L -14.613281 470.207031 Z M 39.511719 323.988281 "/></clipPath><clipPath xml:id="clip102" id="clip102"><path d="M 139.433594 360.976562 L 39.613281 324.023438 L -14.515625 470.242188 L 85.308594 507.195312 Z M 139.433594 360.976562 "/></clipPath><clipPath xml:id="clip103" id="clip103"><path d="M 51 354 L 123 354 L 123 448 L 51 448 Z M 51 354 "/></clipPath><clipPath xml:id="clip104" id="clip104"><path d="M 39.511719 323.988281 L 139.335938 360.9375 L 85.210938 507.160156 L -14.613281 470.207031 Z M 39.511719 323.988281 "/></clipPath><clipPath xml:id="clip105" id="clip105"><path d="M 139.433594 360.976562 L 39.613281 324.023438 L -14.515625 470.242188 L 85.308594 507.195312 Z M 139.433594 360.976562 "/></clipPath><clipPath xml:id="clip106" id="clip106"><path d="M 51 400 L 116 400 L 116 449 L 51 449 Z M 51 400 "/></clipPath><clipPath xml:id="clip107" id="clip107"><path d="M 39.511719 323.988281 L 139.335938 360.9375 L 85.210938 507.160156 L -14.613281 470.207031 Z M 39.511719 323.988281 "/></clipPath><clipPath xml:id="clip108" id="clip108"><path d="M 139.433594 360.976562 L 39.613281 324.023438 L -14.515625 470.242188 L 85.308594 507.195312 Z M 139.433594 360.976562 "/></clipPath><clipPath xml:id="clip109" id="clip109"><path d="M 26 424 L 40 424 L 40 469 L 26 469 Z M 26 424 "/></clipPath><clipPath xml:id="clip110" id="clip110"><path d="M 39.511719 323.988281 L 139.335938 360.9375 L 85.210938 507.160156 L -14.613281 470.207031 Z M 39.511719 323.988281 "/></clipPath><clipPath xml:id="clip111" id="clip111"><path d="M 139.433594 360.976562 L 39.613281 324.023438 L -14.515625 470.242188 L 85.308594 507.195312 Z M 139.433594 360.976562 "/></clipPath><clipPath xml:id="clip112" id="clip112"><path d="M 45 387 L 60 387 L 60 403 L 45 403 Z M 45 387 "/></clipPath><clipPath xml:id="clip113" id="clip113"><path d="M 39.511719 323.988281 L 139.335938 360.9375 L 85.210938 507.160156 L -14.613281 470.207031 Z M 39.511719 323.988281 "/></clipPath><clipPath xml:id="clip114" id="clip114"><path d="M 139.433594 360.976562 L 39.613281 324.023438 L -14.515625 470.242188 L 85.308594 507.195312 Z M 139.433594 360.976562 "/></clipPath><clipPath xml:id="clip115" id="clip115"><path d="M 9 270 L 42 270 L 42 390 L 9 390 Z M 9 270 "/></clipPath><clipPath xml:id="clip116" id="clip116"><path d="M 9.277344 389.917969 L -32.585938 296.140625 L 65.980469 252.136719 L 107.84375 345.910156 Z M 9.277344 389.917969 "/></clipPath><clipPath xml:id="clip117" id="clip117"><path d="M -32.449219 296.453125 L 9.417969 390.226562 L 107.984375 346.222656 L 66.117188 252.449219 Z M -32.449219 296.453125 "/></clipPath><clipPath xml:id="clip118" id="clip118"><path d="M 41 335 L 95 335 L 95 370 L 41 370 Z M 41 335 "/></clipPath><clipPath xml:id="clip119" id="clip119"><path d="M 9.277344 389.917969 L -32.585938 296.140625 L 65.980469 252.136719 L 107.84375 345.910156 Z M 9.277344 389.917969 "/></clipPath><clipPath xml:id="clip120" id="clip120"><path d="M -32.449219 296.453125 L 9.417969 390.226562 L 107.984375 346.222656 L 66.117188 252.449219 Z M -32.449219 296.453125 "/></clipPath><clipPath xml:id="clip121" id="clip121"><path d="M 56 282 L 83 282 L 83 327 L 56 327 Z M 56 282 "/></clipPath><clipPath xml:id="clip122" id="clip122"><path d="M 9.277344 389.917969 L -32.585938 296.140625 L 65.980469 252.136719 L 107.84375 345.910156 Z M 9.277344 389.917969 "/></clipPath><clipPath xml:id="clip123" id="clip123"><path d="M -32.449219 296.453125 L 9.417969 390.226562 L 107.984375 346.222656 L 66.117188 252.449219 Z M -32.449219 296.453125 "/></clipPath><clipPath xml:id="clip124" id="clip124"><path d="M 87 452 L 208 452 L 208 483 L 87 483 Z M 87 452 "/></clipPath><clipPath xml:id="clip125" id="clip125"><path d="M 135.414062 384.371094 L 227.304688 430.226562 L 179.101562 526.8125 L 87.214844 480.953125 Z M 135.414062 384.371094 "/></clipPath><clipPath xml:id="clip126" id="clip126"><path d="M 178.839844 526.574219 L 86.953125 480.71875 L 135.152344 384.132812 L 227.042969 429.992188 Z M 178.839844 526.574219 "/></clipPath><clipPath xml:id="clip127" id="clip127"><path d="M 109 397 L 145 397 L 145 450 L 109 450 Z M 109 397 "/></clipPath><clipPath xml:id="clip128" id="clip128"><path d="M 135.414062 384.371094 L 227.304688 430.226562 L 179.101562 526.8125 L 87.214844 480.953125 Z M 135.414062 384.371094 "/></clipPath><clipPath xml:id="clip129" id="clip129"><path d="M 178.839844 526.574219 L 86.953125 480.71875 L 135.152344 384.132812 L 227.042969 429.992188 Z M 178.839844 526.574219 "/></clipPath><clipPath xml:id="clip130" id="clip130"><path d="M 152 411 L 198 411 L 198 437 L 152 437 Z M 152 411 "/></clipPath><clipPath xml:id="clip131" id="clip131"><path d="M 135.414062 384.371094 L 227.304688 430.226562 L 179.101562 526.8125 L 87.214844 480.953125 Z M 135.414062 384.371094 "/></clipPath><clipPath xml:id="clip132" id="clip132"><path d="M 178.839844 526.574219 L 86.953125 480.71875 L 135.152344 384.132812 L 227.042969 429.992188 Z M 178.839844 526.574219 "/></clipPath></defs><g xml:id="surface1" id="surface1"><g clip-rule="nonzero" clip-path="url(#clip1)"><g clip-rule="nonzero" clip-path="url(#clip2)"><g clip-rule="nonzero" clip-path="url(#clip3)"><path style=" stroke:none;fill-rule:nonzero;fill:rgb(49.409485%,85.099792%,34.118652%);fill-opacity:1;" d="M 19.234375 6.425781 C 14.597656 21.125 6.535156 34.65625 5.121094 50.570312 C 4.148438 61.53125 4.585938 76.71875 14.65625 83.328125 C 24.023438 89.46875 34.078125 86.972656 39.613281 77.402344 C 45.894531 66.539062 42.546875 51.007812 39.984375 39.222656 C 38.605469 32.902344 26.894531 0.53125 19.992188 3.039062 C 20.058594 3.773438 19.777344 4.042969 19.234375 6.425781 Z M 19.234375 6.425781 "/></g></g></g><g clip-rule="nonzero" clip-path="url(#clip4)"><g clip-rule="nonzero" clip-path="url(#clip5)"><g clip-rule="nonzero" clip-path="url(#clip6)"><path style=" stroke:none;fill-rule:nonzero;fill:rgb(1.179504%,59.609985%,61.959839%);fill-opacity:1;" d="M 48.746094 43.507812 C 53.09375 53.070312 54.269531 64.257812 57.585938 74.230469 C 60.761719 83.773438 63.578125 93.40625 67.601562 102.753906 C 72.082031 113.164062 82.855469 128 94.644531 130.863281 C 110.738281 134.777344 123.675781 118.199219 119.203125 103.542969 C 113.308594 84.222656 94.929688 72.363281 79.59375 60.832031 C 69.859375 53.515625 60.015625 44.074219 48.53125 39.46875 C 47.78125 40.433594 47.71875 41.339844 48.746094 43.507812 Z M 48.746094 43.507812 "/></g></g></g><g clip-rule="nonzero" clip-path="url(#clip7)"><g clip-rule="nonzero" clip-path="url(#clip8)"><g clip-rule="nonzero" clip-path="url(#clip9)"><path style=" stroke:none;fill-rule:nonzero;fill:rgb(95.289612%,91.369629%,82.348633%);fill-opacity:1;" d="M 48.160156 38.773438 C 50.488281 45.960938 58.898438 53.183594 63.648438 59.296875 C 68.128906 64.917969 73.226562 69.898438 78.953125 74.238281 C 86.113281 79.851562 99.066406 89.359375 108.472656 82.914062 C 118.492188 76.046875 107.058594 63.097656 100.609375 58.566406 C 96.601562 55.800781 92.355469 53.46875 87.871094 51.578125 C 83.386719 49.6875 78.757812 48.273438 73.980469 47.335938 C 65.59375 45.570312 57.371094 43.574219 48.160156 38.773438 Z M 48.160156 38.773438 "/></g></g></g><g clip-rule="nonzero" clip-path="url(#clip10)"><g clip-rule="nonzero" clip-path="url(#clip11)"><g clip-rule="nonzero" clip-path="url(#clip12)"><path style=" stroke:none;fill-rule:nonzero;fill:rgb(0%,50.19989%,21.569824%);fill-opacity:1;" d="M 27.011719 19.050781 C 30.042969 25.453125 24.109375 35.984375 23.09375 42.484375 C 22.277344 47.683594 22.304688 55.9375 25.179688 60.59375 C 28.382812 65.789062 33.167969 61.042969 34.777344 57.144531 C 37.441406 50.691406 34.414062 43.957031 33.246094 37.332031 C 32.261719 30.863281 30.183594 24.769531 27.011719 19.050781 Z M 27.011719 19.050781 "/></g></g></g><g clip-rule="nonzero" clip-path="url(#clip13)"><g clip-rule="nonzero" clip-path="url(#clip14)"><g clip-rule="nonzero" clip-path="url(#clip15)"><path style=" stroke:none;fill-rule:nonzero;fill:rgb(1.179504%,59.609985%,61.959839%);fill-opacity:1;" d="M 51.308594 98.460938 C 44.828125 101.8125 40.449219 92.433594 43.707031 87.679688 C 47.371094 82.328125 54.246094 86.292969 56.195312 91.1875 C 57.382812 94.164062 55.996094 97.261719 51.308594 98.460938 Z M 51.308594 98.460938 "/></g></g></g><g clip-rule="nonzero" clip-path="url(#clip16)"><g clip-rule="nonzero" clip-path="url(#clip17)"><g clip-rule="nonzero" clip-path="url(#clip18)"><path style=" stroke:none;fill-rule:nonzero;fill:rgb(49.409485%,85.099792%,34.118652%);fill-opacity:1;" d="M 984.0625 5.519531 C 989.035156 20.109375 997.40625 33.449219 999.1875 49.328125 C 1000.414062 60.265625 1000.324219 75.457031 990.410156 82.292969 C 981.183594 88.652344 971.078125 86.386719 965.320312 76.945312 C 958.789062 66.230469 961.78125 50.625 964.074219 38.78125 C 965.308594 32.433594 976.269531 -0.195312 983.230469 2.152344 C 983.179688 2.886719 983.464844 3.148438 984.0625 5.519531 Z M 984.0625 5.519531 "/></g></g></g><g clip-rule="nonzero" clip-path="url(#clip19)"><g clip-rule="nonzero" clip-path="url(#clip20)"><g clip-rule="nonzero" clip-path="url(#clip21)"><path style=" stroke:none;fill-rule:nonzero;fill:rgb(1.179504%,59.609985%,61.959839%);fill-opacity:1;" d="M 955.414062 43.269531 C 951.285156 52.929688 950.367188 64.140625 947.28125 74.1875 C 944.324219 83.800781 941.730469 93.496094 937.925781 102.933594 C 933.679688 113.445312 923.25 128.523438 911.535156 131.65625 C 895.535156 135.9375 882.21875 119.664062 886.351562 104.90625 C 891.800781 85.457031 909.902344 73.179688 924.972656 61.296875 C 934.535156 53.757812 944.160156 44.09375 955.53125 39.226562 C 956.304688 40.175781 956.390625 41.078125 955.414062 43.269531 Z M 955.414062 43.269531 "/></g></g></g><g clip-rule="nonzero" clip-path="url(#clip22)"><g clip-rule="nonzero" clip-path="url(#clip23)"><g clip-rule="nonzero" clip-path="url(#clip24)"><path style=" stroke:none;fill-rule:nonzero;fill:rgb(95.289612%,91.369629%,82.348633%);fill-opacity:1;" d="M 955.890625 38.523438 C 953.726562 45.761719 945.484375 53.175781 940.875 59.398438 C 936.527344 65.121094 931.542969 70.214844 925.917969 74.6875 C 918.890625 80.464844 906.160156 90.265625 896.605469 84.039062 C 886.429688 77.402344 897.566406 64.195312 903.910156 59.515625 C 907.851562 56.65625 912.042969 54.230469 916.480469 52.238281 C 920.921875 50.242188 925.519531 48.722656 930.269531 47.679688 C 938.613281 45.71875 946.789062 43.535156 955.890625 38.523438 Z M 955.890625 38.523438 "/></g></g></g><g clip-rule="nonzero" clip-path="url(#clip25)"><g clip-rule="nonzero" clip-path="url(#clip26)"><g clip-rule="nonzero" clip-path="url(#clip27)"><path style=" stroke:none;fill-rule:nonzero;fill:rgb(0%,50.19989%,21.569824%);fill-opacity:1;" d="M 976.578125 18.320312 C 973.695312 24.789062 979.871094 35.183594 981.035156 41.65625 C 981.96875 46.835938 982.132812 55.089844 979.367188 59.8125 C 976.285156 65.074219 971.390625 60.441406 969.6875 56.582031 C 966.875 50.191406 969.75 43.390625 970.765625 36.738281 C 971.601562 30.25 973.539062 24.113281 976.578125 18.320312 Z M 976.578125 18.320312 "/></g></g></g><g clip-rule="nonzero" clip-path="url(#clip28)"><g clip-rule="nonzero" clip-path="url(#clip29)"><g clip-rule="nonzero" clip-path="url(#clip30)"><path style=" stroke:none;fill-rule:nonzero;fill:rgb(1.179504%,59.609985%,61.959839%);fill-opacity:1;" d="M 954.109375 98.265625 C 960.667969 101.46875 964.828125 91.992188 961.464844 87.3125 C 957.679688 82.050781 950.894531 86.167969 949.058594 91.105469 C 947.941406 94.113281 949.402344 97.175781 954.109375 98.265625 Z M 954.109375 98.265625 "/></g></g></g><g clip-rule="nonzero" clip-path="url(#clip31)"><g clip-rule="nonzero" clip-path="url(#clip32)"><g clip-rule="nonzero" clip-path="url(#clip33)"><path style=" stroke:none;fill-rule:nonzero;fill:rgb(78.819275%,88.62915%,39.608765%);fill-opacity:1;" d="M 27.828125 218.933594 C 29.632812 219.710938 31.507812 219.953125 33.449219 219.65625 C 34.835938 219.433594 36.199219 219.109375 37.535156 218.683594 C 40.816406 217.765625 42.726562 215.535156 43.574219 212.289062 C 44.789062 207.601562 44.773438 202.832031 44.46875 198.0625 C 44.308594 195.546875 43.886719 193.046875 43.578125 190.542969 C 43.269531 188.035156 42.910156 185.539062 42.667969 183.019531 C 42.386719 180.089844 41.570312 177.230469 41.621094 174.253906 C 41.617188 173.683594 41.476562 173.148438 41.195312 172.648438 C 40.667969 171.644531 40.363281 170.570312 40.28125 169.4375 C 40.207031 168.878906 40.0625 168.339844 39.847656 167.816406 C 38.640625 164.679688 37.417969 161.542969 36.183594 158.414062 C 35.929688 157.757812 35.621094 157.121094 35.421875 156.449219 C 34.398438 153.238281 33.1875 150.09375 31.792969 147.023438 C 30.960938 144.777344 29.855469 142.671875 28.476562 140.714844 C 27.78125 139.65625 27.183594 138.546875 26.683594 137.386719 C 25.332031 134.765625 24.074219 132.09375 22.625 129.53125 C 21.664062 127.835938 20.144531 126.414062 19.40625 124.648438 C 18.632812 122.84375 17.722656 121.113281 16.671875 119.457031 C 15.484375 117.550781 14.089844 115.765625 13.054688 113.785156 C 12.011719 111.785156 10.59375 110.050781 9.441406 108.132812 C 8.289062 106.214844 6.398438 104.871094 5.246094 102.9375 C 5.066406 102.636719 4.238281 102.59375 4.09375 102.847656 C 3.960938 103.082031 3.765625 103.378906 3.8125 103.601562 C 4.339844 106.066406 4.832031 108.546875 5.484375 110.976562 C 6.203125 113.835938 7.074219 116.652344 8.09375 119.417969 C 8.566406 120.742188 8.910156 122.101562 9.125 123.492188 C 9.367188 124.878906 9.757812 126.222656 10.300781 127.519531 C 11.367188 130.136719 12.054688 132.847656 12.359375 135.660156 C 12.917969 140.109375 13.378906 144.570312 13.746094 149.046875 C 14.148438 153.9375 14.675781 158.820312 14.425781 163.753906 C 14.273438 166.835938 14.496094 169.933594 14.441406 173.023438 C 14.382812 176.25 14.296875 179.476562 14.039062 182.695312 C 13.726562 187.753906 13.867188 192.796875 14.464844 197.828125 C 14.511719 198.386719 14.609375 198.933594 14.75 199.476562 C 15.351562 201.644531 15.984375 203.796875 16.601562 205.957031 C 17.226562 208.132812 18.160156 210.167969 19.414062 212.054688 C 21.460938 215.140625 24.035156 217.6875 27.828125 218.933594 Z M 27.828125 218.933594 "/></g></g></g><g clip-rule="nonzero" clip-path="url(#clip34)"><g clip-rule="nonzero" clip-path="url(#clip35)"><g clip-rule="nonzero" clip-path="url(#clip36)"><path style=" stroke:none;fill-rule:nonzero;fill:rgb(0%,50.19989%,21.569824%);fill-opacity:1;" d="M 81.933594 129.589844 C 76.011719 127.921875 71.570312 126.769531 66.925781 126.347656 C 59.210938 125.71875 51.683594 124.167969 44.351562 121.699219 C 42.761719 121.152344 41.15625 120.644531 39.546875 120.167969 C 39.136719 120.089844 38.726562 120.078125 38.3125 120.136719 C 38.195312 120.222656 38.136719 120.335938 38.140625 120.476562 C 38.269531 120.859375 38.464844 121.199219 38.730469 121.5 C 42.117188 124.4375 45.402344 127.488281 48.519531 130.707031 C 51.882812 134.085938 55.472656 137.207031 59.289062 140.058594 C 60.730469 141.167969 62.132812 142.335938 63.484375 143.550781 C 66.789062 146.472656 70.554688 148.546875 74.789062 149.777344 C 76.007812 150.117188 77.25 150.292969 78.515625 150.308594 C 82.035156 150.453125 85.125 149.199219 88.046875 147.460938 C 90.054688 146.285156 91.511719 144.621094 92.417969 142.476562 C 92.714844 141.828125 92.828125 141.152344 92.761719 140.441406 C 92.632812 139.167969 92.265625 137.96875 91.660156 136.84375 C 91.054688 135.71875 90.257812 134.75 89.269531 133.941406 C 86.601562 131.859375 83.792969 130.035156 81.933594 129.589844 Z M 81.933594 129.589844 "/></g></g></g><g clip-rule="nonzero" clip-path="url(#clip37)"><g clip-rule="nonzero" clip-path="url(#clip38)"><g clip-rule="nonzero" clip-path="url(#clip39)"><path style=" stroke:none;fill-rule:nonzero;fill:rgb(1.179504%,59.609985%,61.959839%);fill-opacity:1;" d="M 84.296875 199.414062 C 84.480469 198.582031 84.570312 198.023438 84.734375 197.492188 C 85.183594 196.003906 85.375 194.484375 85.304688 192.929688 C 85.234375 191.378906 84.90625 189.882812 84.324219 188.445312 C 83.15625 185.414062 81.523438 182.660156 79.417969 180.191406 C 77.222656 177.46875 74.8125 174.949219 72.1875 172.636719 C 71.011719 171.648438 69.902344 170.582031 68.742188 169.574219 C 65.222656 166.578125 61.457031 163.933594 57.445312 161.640625 C 57.203125 161.503906 56.945312 161.398438 56.675781 161.324219 C 56.554688 161.289062 56.335938 161.3125 56.285156 161.386719 C 56.148438 161.597656 55.941406 161.890625 56.003906 162.078125 C 57.273438 166.21875 58.988281 170.207031 60.140625 174.390625 C 60.4375 175.464844 60.886719 176.5 61.179688 177.574219 C 62.222656 181.367188 64.277344 184.761719 65.53125 188.472656 C 65.71875 188.851562 65.945312 189.203125 66.207031 189.53125 C 69.082031 194.042969 72.539062 198.046875 76.578125 201.546875 C 77.09375 202.023438 77.648438 202.445312 78.242188 202.816406 C 78.726562 203.089844 79.238281 203.304688 79.777344 203.460938 C 80.074219 203.570312 80.382812 203.621094 80.703125 203.613281 C 81.019531 203.609375 81.328125 203.546875 81.621094 203.429688 C 81.917969 203.3125 82.183594 203.148438 82.421875 202.9375 C 82.660156 202.722656 82.851562 202.472656 82.996094 202.191406 C 83.53125 201.210938 83.949219 200.167969 84.296875 199.414062 Z M 84.296875 199.414062 "/></g></g></g><g clip-rule="nonzero" clip-path="url(#clip40)"><g clip-rule="nonzero" clip-path="url(#clip41)"><g clip-rule="nonzero" clip-path="url(#clip42)"><path style=" stroke:none;fill-rule:nonzero;fill:rgb(78.819275%,88.62915%,39.608765%);fill-opacity:1;" d="M 984.785156 215.046875 C 983.054688 215.984375 981.210938 216.390625 979.246094 216.265625 C 977.847656 216.164062 976.464844 215.964844 975.09375 215.660156 C 971.746094 215.035156 969.640625 212.980469 968.511719 209.824219 C 966.886719 205.265625 966.480469 200.511719 966.363281 195.734375 C 966.296875 193.214844 966.5 190.683594 966.585938 188.160156 C 966.671875 185.636719 966.808594 183.121094 966.824219 180.589844 C 966.847656 177.648438 967.40625 174.726562 967.09375 171.765625 C 967.046875 171.195312 967.140625 170.652344 967.375 170.128906 C 967.8125 169.078125 968.019531 167.988281 968 166.847656 C 968.023438 166.285156 968.121094 165.734375 968.289062 165.199219 C 969.214844 161.964844 970.152344 158.730469 971.105469 155.503906 C 971.300781 154.832031 971.554688 154.167969 971.691406 153.484375 C 972.429688 150.191406 973.355469 146.957031 974.472656 143.773438 C 975.101562 141.460938 976.019531 139.269531 977.214844 137.195312 C 977.816406 136.082031 978.316406 134.921875 978.710938 133.71875 C 979.824219 130.992188 980.839844 128.21875 982.058594 125.539062 C 982.867188 123.765625 984.253906 122.214844 984.832031 120.386719 C 985.441406 118.523438 986.195312 116.71875 987.097656 114.976562 C 988.109375 112.972656 989.339844 111.070312 990.195312 109.007812 C 991.058594 106.921875 992.320312 105.070312 993.296875 103.054688 C 994.273438 101.042969 996.039062 99.535156 997.015625 97.511719 C 997.167969 97.195312 997.988281 97.078125 998.15625 97.320312 C 998.308594 97.539062 998.527344 97.816406 998.5 98.046875 C 998.195312 100.546875 997.921875 103.058594 997.488281 105.539062 C 997.023438 108.453125 996.40625 111.332031 995.636719 114.179688 C 995.285156 115.539062 995.058594 116.921875 994.96875 118.328125 C 994.851562 119.730469 994.582031 121.101562 994.15625 122.445312 C 993.324219 125.144531 992.882812 127.90625 992.828125 130.730469 C 992.664062 135.214844 992.597656 139.699219 992.628906 144.1875 C 992.660156 149.097656 992.566406 154.007812 993.25 158.902344 C 993.675781 161.957031 993.726562 165.0625 994.058594 168.132812 C 994.402344 171.34375 994.773438 174.550781 995.316406 177.730469 C 996.070312 182.742188 996.375 187.78125 996.226562 192.84375 C 996.230469 193.402344 996.183594 193.960938 996.089844 194.511719 C 995.683594 196.722656 995.242188 198.925781 994.816406 201.128906 C 994.390625 203.355469 993.636719 205.460938 992.558594 207.453125 C 990.789062 210.707031 988.453125 213.472656 984.785156 215.046875 Z M 984.785156 215.046875 "/></g></g></g><g clip-rule="nonzero" clip-path="url(#clip43)"><g clip-rule="nonzero" clip-path="url(#clip44)"><g clip-rule="nonzero" clip-path="url(#clip45)"><path style=" stroke:none;fill-rule:nonzero;fill:rgb(0%,50.19989%,21.569824%);fill-opacity:1;" d="M 922.988281 130.84375 C 928.734375 128.65625 933.058594 127.117188 937.648438 126.285156 C 945.277344 124.976562 952.636719 122.765625 959.726562 119.65625 C 961.257812 118.972656 962.8125 118.324219 964.375 117.707031 C 964.773438 117.59375 965.183594 117.546875 965.601562 117.570312 C 965.722656 117.640625 965.789062 117.75 965.800781 117.894531 C 965.707031 118.28125 965.542969 118.640625 965.304688 118.960938 C 962.1875 122.1875 959.191406 125.515625 956.367188 129 C 953.316406 132.664062 950.019531 136.085938 946.46875 139.269531 C 945.128906 140.5 943.835938 141.785156 942.597656 143.117188 C 939.566406 146.320312 935.996094 148.71875 931.886719 150.320312 C 930.703125 150.765625 929.484375 151.050781 928.226562 151.175781 C 924.730469 151.632812 921.542969 150.65625 918.480469 149.183594 C 916.375 148.191406 914.777344 146.664062 913.683594 144.609375 C 913.332031 143.988281 913.15625 143.324219 913.160156 142.609375 C 913.175781 141.332031 913.4375 140.105469 913.9375 138.929688 C 914.441406 137.753906 915.152344 136.71875 916.066406 135.828125 C 918.539062 133.515625 921.175781 131.449219 922.988281 130.84375 Z M 922.988281 130.84375 "/></g></g></g><g clip-rule="nonzero" clip-path="url(#clip46)"><g clip-rule="nonzero" clip-path="url(#clip47)"><g clip-rule="nonzero" clip-path="url(#clip48)"><path style=" stroke:none;fill-rule:nonzero;fill:rgb(1.179504%,59.609985%,61.959839%);fill-opacity:1;" d="M 926.8125 200.601562 C 926.550781 199.789062 926.414062 199.242188 926.203125 198.726562 C 925.625 197.285156 925.296875 195.785156 925.230469 194.234375 C 925.164062 192.679688 925.359375 191.164062 925.8125 189.679688 C 926.707031 186.554688 928.089844 183.671875 929.96875 181.023438 C 931.914062 178.117188 934.09375 175.394531 936.503906 172.859375 C 937.585938 171.769531 938.597656 170.609375 939.664062 169.503906 C 942.902344 166.207031 946.417969 163.242188 950.210938 160.601562 C 950.445312 160.445312 950.691406 160.316406 950.953125 160.21875 C 951.070312 160.171875 951.289062 160.175781 951.347656 160.246094 C 951.503906 160.441406 951.734375 160.714844 951.6875 160.910156 C 950.789062 165.144531 949.433594 169.269531 948.65625 173.539062 C 948.457031 174.636719 948.101562 175.707031 947.902344 176.804688 C 947.199219 180.675781 945.453125 184.234375 944.53125 188.046875 C 944.378906 188.4375 944.1875 188.808594 943.953125 189.160156 C 941.488281 193.90625 938.402344 198.199219 934.6875 202.046875 C 934.214844 202.5625 933.703125 203.03125 933.140625 203.453125 C 932.683594 203.773438 932.191406 204.03125 931.671875 204.234375 C 931.382812 204.367188 931.078125 204.445312 930.761719 204.46875 C 930.445312 204.492188 930.132812 204.457031 929.828125 204.367188 C 929.523438 204.277344 929.242188 204.136719 928.988281 203.945312 C 928.734375 203.753906 928.523438 203.523438 928.351562 203.253906 C 927.734375 202.324219 927.226562 201.324219 926.8125 200.601562 Z M 926.8125 200.601562 "/></g></g></g><g clip-rule="nonzero" clip-path="url(#clip49)"><g clip-rule="nonzero" clip-path="url(#clip50)"><g clip-rule="nonzero" clip-path="url(#clip51)"><path style=" stroke:none;fill-rule:nonzero;fill:rgb(78.819275%,88.62915%,39.608765%);fill-opacity:1;" d="M 201.007812 14.886719 C 202.210938 16.441406 202.90625 18.199219 203.097656 20.15625 C 203.222656 21.554688 203.246094 22.953125 203.164062 24.355469 C 203.082031 27.761719 201.394531 30.164062 198.457031 31.785156 C 194.214844 34.121094 189.589844 35.277344 184.890625 36.160156 C 182.414062 36.628906 179.886719 36.835938 177.382812 37.152344 C 174.875 37.472656 172.367188 37.742188 169.871094 38.128906 C 166.960938 38.578125 163.988281 38.496094 161.117188 39.273438 C 160.5625 39.414062 160.007812 39.40625 159.453125 39.261719 C 158.347656 38.996094 157.234375 38.964844 156.117188 39.167969 C 155.558594 39.234375 155 39.226562 154.441406 39.144531 C 151.097656 38.75 147.757812 38.339844 144.421875 37.917969 C 143.726562 37.832031 143.03125 37.6875 142.332031 37.664062 C 138.964844 37.460938 135.621094 37.0625 132.304688 36.46875 C 129.917969 36.21875 127.609375 35.664062 125.367188 34.816406 C 124.171875 34.398438 122.949219 34.09375 121.699219 33.894531 C 118.828125 33.234375 115.929688 32.675781 113.089844 31.898438 C 111.210938 31.386719 109.457031 30.265625 107.558594 29.988281 C 105.621094 29.683594 103.71875 29.226562 101.855469 28.617188 C 99.71875 27.9375 97.644531 27.027344 95.46875 26.511719 C 93.269531 25.992188 91.242188 25.046875 89.097656 24.40625 C 86.953125 23.761719 85.183594 22.257812 83.03125 21.621094 C 82.695312 21.519531 82.445312 20.730469 82.65625 20.527344 C 82.851562 20.339844 83.089844 20.078125 83.320312 20.066406 C 85.839844 19.96875 88.363281 19.835938 90.878906 19.871094 C 93.828125 19.863281 96.769531 20.007812 99.703125 20.3125 C 101.101562 20.445312 102.503906 20.445312 103.90625 20.3125 C 105.308594 20.199219 106.707031 20.246094 108.097656 20.453125 C 110.894531 20.84375 113.695312 20.835938 116.492188 20.441406 C 120.941406 19.882812 125.382812 19.230469 129.808594 18.480469 C 134.648438 17.664062 139.511719 16.972656 144.230469 15.511719 C 147.179688 14.605469 150.234375 14.054688 153.214844 13.242188 C 156.328125 12.386719 159.433594 11.507812 162.488281 10.460938 C 167.3125 8.914062 172.238281 7.808594 177.261719 7.144531 C 177.8125 7.050781 178.367188 7.007812 178.929688 7.011719 C 181.175781 7.058594 183.417969 7.144531 185.664062 7.207031 C 187.929688 7.273438 190.128906 7.679688 192.269531 8.429688 C 195.761719 9.652344 198.867188 11.519531 201.007812 14.886719 Z M 201.007812 14.886719 "/></g></g></g><g clip-rule="nonzero" clip-path="url(#clip52)"><g clip-rule="nonzero" clip-path="url(#clip53)"><g clip-rule="nonzero" clip-path="url(#clip54)"><path style=" stroke:none;fill-rule:nonzero;fill:rgb(0%,50.19989%,21.569824%);fill-opacity:1;" d="M 127.777344 89.359375 C 124.699219 84.035156 122.488281 80.015625 120.929688 75.617188 C 118.417969 68.296875 115.0625 61.386719 110.855469 54.886719 C 109.933594 53.484375 109.050781 52.054688 108.1875 50.609375 C 108.011719 50.234375 107.902344 49.835938 107.855469 49.421875 C 107.90625 49.289062 108.003906 49.203125 108.144531 49.171875 C 108.542969 49.203125 108.921875 49.308594 109.277344 49.492188 C 112.960938 52.050781 116.726562 54.476562 120.617188 56.707031 C 124.722656 59.128906 128.628906 61.839844 132.335938 64.835938 C 133.765625 65.957031 135.242188 67.03125 136.753906 68.039062 C 140.402344 70.519531 143.34375 73.660156 145.578125 77.460938 C 146.207031 78.554688 146.683594 79.714844 147.011719 80.9375 C 148.019531 84.316406 147.570312 87.617188 146.605469 90.875 C 145.960938 93.113281 144.710938 94.933594 142.855469 96.34375 C 142.296875 96.789062 141.667969 97.066406 140.964844 97.179688 C 139.699219 97.367188 138.449219 97.308594 137.207031 97 C 135.964844 96.691406 134.832031 96.15625 133.804688 95.394531 C 131.128906 93.324219 128.667969 91.054688 127.777344 89.359375 Z M 127.777344 89.359375 "/></g></g></g><g clip-rule="nonzero" clip-path="url(#clip55)"><g clip-rule="nonzero" clip-path="url(#clip56)"><g clip-rule="nonzero" clip-path="url(#clip57)"><path style=" stroke:none;fill-rule:nonzero;fill:rgb(1.179504%,59.609985%,61.959839%);fill-opacity:1;" d="M 196.027344 74.421875 C 195.265625 74.808594 194.746094 75.03125 194.269531 75.324219 C 192.941406 76.128906 191.515625 76.6875 189.992188 77.003906 C 188.472656 77.316406 186.941406 77.367188 185.402344 77.15625 C 182.175781 76.777344 179.109375 75.871094 176.195312 74.4375 C 173.011719 72.984375 169.976562 71.269531 167.085938 69.296875 C 165.839844 68.398438 164.535156 67.585938 163.273438 66.710938 C 159.5 64.042969 156.007812 61.046875 152.796875 57.726562 C 152.601562 57.523438 152.4375 57.296875 152.300781 57.054688 C 152.238281 56.949219 152.203125 56.730469 152.265625 56.660156 C 152.433594 56.476562 152.664062 56.207031 152.863281 56.21875 C 157.1875 56.429688 161.476562 57.105469 165.816406 57.191406 C 166.929688 57.210938 168.042969 57.390625 169.160156 57.410156 C 173.09375 57.484375 176.886719 58.640625 180.796875 58.941406 C 181.207031 59.027344 181.605469 59.160156 181.988281 59.332031 C 187.066406 61.007812 191.800781 63.367188 196.191406 66.417969 C 196.777344 66.800781 197.324219 67.234375 197.828125 67.71875 C 198.214844 68.121094 198.550781 68.5625 198.832031 69.046875 C 199.011719 69.308594 199.136719 69.59375 199.210938 69.90625 C 199.28125 70.214844 199.300781 70.527344 199.257812 70.84375 C 199.21875 71.160156 199.125 71.457031 198.976562 71.738281 C 198.828125 72.019531 198.636719 72.269531 198.398438 72.480469 C 197.578125 73.238281 196.671875 73.898438 196.027344 74.421875 Z M 196.027344 74.421875 "/></g></g></g><g clip-rule="nonzero" clip-path="url(#clip58)"><g clip-rule="nonzero" clip-path="url(#clip59)"><g clip-rule="nonzero" clip-path="url(#clip60)"><path style=" stroke:none;fill-rule:nonzero;fill:rgb(78.819275%,88.62915%,39.608765%);fill-opacity:1;" d="M 801.960938 14.640625 C 800.949219 16.328125 800.464844 18.152344 800.503906 20.121094 C 800.542969 21.523438 800.6875 22.914062 800.933594 24.296875 C 801.410156 27.667969 803.371094 29.855469 806.480469 31.121094 C 810.964844 32.941406 815.695312 33.550781 820.464844 33.875 C 822.980469 34.046875 825.515625 33.957031 828.039062 33.976562 C 830.5625 34 833.085938 33.972656 835.613281 34.0625 C 838.554688 34.167969 841.5 33.738281 844.441406 34.175781 C 845.007812 34.246094 845.558594 34.175781 846.089844 33.964844 C 847.15625 33.574219 848.257812 33.410156 849.394531 33.480469 C 849.957031 33.480469 850.511719 33.410156 851.054688 33.261719 C 854.328125 32.476562 857.59375 31.675781 860.859375 30.867188 C 861.542969 30.699219 862.214844 30.472656 862.90625 30.367188 C 866.226562 29.773438 869.496094 28.984375 872.726562 28.007812 C 875.0625 27.476562 877.292969 26.65625 879.417969 25.546875 C 880.554688 24.996094 881.734375 24.546875 882.953125 24.203125 C 885.726562 23.210938 888.539062 22.3125 891.269531 21.210938 C 893.074219 20.480469 894.6875 19.160156 896.535156 18.664062 C 898.425781 18.132812 900.261719 17.457031 902.039062 16.628906 C 904.082031 15.707031 906.035156 14.558594 908.132812 13.792969 C 910.257812 13.019531 912.160156 11.839844 914.214844 10.949219 C 916.265625 10.058594 917.847656 8.359375 919.914062 7.472656 C 920.234375 7.335938 920.390625 6.519531 920.15625 6.34375 C 919.941406 6.179688 919.671875 5.949219 919.441406 5.964844 C 916.929688 6.164062 914.410156 6.328125 911.914062 6.65625 C 908.984375 6.992188 906.082031 7.484375 903.203125 8.132812 C 901.828125 8.429688 900.4375 8.589844 899.027344 8.625 C 897.621094 8.675781 896.238281 8.890625 894.882812 9.257812 C 892.148438 9.972656 889.371094 10.296875 886.542969 10.230469 C 882.058594 10.199219 877.574219 10.074219 873.089844 9.847656 C 868.1875 9.605469 863.277344 9.488281 858.417969 8.59375 C 855.386719 8.039062 852.285156 7.851562 849.230469 7.394531 C 846.039062 6.910156 842.847656 6.402344 839.695312 5.722656 C 834.71875 4.75 829.699219 4.230469 824.636719 4.164062 C 824.074219 4.136719 823.519531 4.15625 822.964844 4.226562 C 820.734375 4.539062 818.519531 4.882812 816.296875 5.214844 C 814.054688 5.546875 811.917969 6.207031 809.882812 7.199219 C 806.554688 8.828125 803.691406 11.042969 801.960938 14.640625 Z M 801.960938 14.640625 "/></g></g></g><g clip-rule="nonzero" clip-path="url(#clip61)"><g clip-rule="nonzero" clip-path="url(#clip62)"><g clip-rule="nonzero" clip-path="url(#clip63)"><path style=" stroke:none;fill-rule:nonzero;fill:rgb(0%,50.19989%,21.569824%);fill-opacity:1;" d="M 883.429688 80 C 885.863281 74.351562 887.585938 70.097656 888.617188 65.546875 C 890.25 57.980469 892.773438 50.722656 896.1875 43.777344 C 896.9375 42.273438 897.648438 40.75 898.332031 39.214844 C 898.464844 38.820312 898.527344 38.414062 898.523438 37.996094 C 898.457031 37.871094 898.351562 37.796875 898.210938 37.78125 C 897.816406 37.859375 897.453125 38.007812 897.121094 38.234375 C 893.765625 41.207031 890.308594 44.058594 886.707031 46.730469 C 882.914062 49.617188 879.351562 52.769531 876.023438 56.179688 C 874.734375 57.460938 873.394531 58.699219 872.011719 59.878906 C 868.679688 62.769531 866.128906 66.234375 864.355469 70.269531 C 863.859375 71.433594 863.523438 72.640625 863.339844 73.894531 C 862.734375 77.367188 863.570312 80.589844 864.914062 83.714844 C 865.816406 85.859375 867.269531 87.523438 869.277344 88.703125 C 869.882812 89.082031 870.539062 89.285156 871.25 89.3125 C 872.53125 89.351562 873.769531 89.144531 874.964844 88.691406 C 876.160156 88.238281 877.222656 87.574219 878.152344 86.699219 C 880.566406 84.328125 882.746094 81.785156 883.429688 80 Z M 883.429688 80 "/></g></g></g><g clip-rule="nonzero" clip-path="url(#clip64)"><g clip-rule="nonzero" clip-path="url(#clip65)"><g clip-rule="nonzero" clip-path="url(#clip66)"><path style=" stroke:none;fill-rule:nonzero;fill:rgb(1.179504%,59.609985%,61.959839%);fill-opacity:1;" d="M 813.898438 73.179688 C 814.699219 73.472656 815.242188 73.632812 815.75 73.867188 C 817.164062 74.511719 818.644531 74.898438 820.195312 75.03125 C 821.742188 75.167969 823.269531 75.039062 824.773438 74.648438 C 827.929688 73.890625 830.871094 72.628906 833.59375 70.867188 C 836.585938 69.046875 839.398438 66.988281 842.035156 64.6875 C 843.167969 63.652344 844.371094 62.691406 845.519531 61.675781 C 848.953125 58.582031 852.070312 55.195312 854.871094 51.519531 C 855.039062 51.296875 855.175781 51.054688 855.285156 50.796875 C 855.335938 50.683594 855.34375 50.460938 855.273438 50.402344 C 855.082031 50.238281 854.820312 49.996094 854.625 50.03125 C 850.355469 50.75 846.175781 51.925781 841.878906 52.519531 C 840.773438 52.671875 839.6875 52.980469 838.582031 53.128906 C 834.683594 53.667969 831.054688 55.257812 827.207031 56.015625 C 826.808594 56.152344 826.429688 56.328125 826.070312 56.542969 C 821.222656 58.804688 816.796875 61.703125 812.796875 65.25 C 812.257812 65.699219 811.769531 66.191406 811.324219 66.734375 C 810.984375 67.179688 810.703125 67.65625 810.480469 68.167969 C 810.335938 68.453125 810.246094 68.75 810.207031 69.066406 C 810.171875 69.382812 810.191406 69.695312 810.269531 70.003906 C 810.34375 70.3125 810.472656 70.597656 810.65625 70.859375 C 810.835938 71.125 811.054688 71.347656 811.316406 71.527344 C 812.21875 72.1875 813.199219 72.734375 813.898438 73.179688 Z M 813.898438 73.179688 "/></g></g></g><g clip-rule="nonzero" clip-path="url(#clip67)"><g clip-rule="nonzero" clip-path="url(#clip68)"><g clip-rule="nonzero" clip-path="url(#clip69)"><path style=" stroke:none;fill-rule:nonzero;fill:rgb(49.409485%,85.099792%,34.118652%);fill-opacity:1;" d="M 988.546875 484.257812 C 993.183594 469.554688 1001.246094 456.027344 1002.660156 440.109375 C 1003.632812 429.148438 1003.195312 413.960938 993.125 407.355469 C 983.757812 401.210938 973.707031 403.707031 968.167969 413.277344 C 961.886719 424.140625 965.234375 439.675781 967.796875 451.460938 C 969.175781 457.777344 980.886719 490.148438 987.789062 487.640625 C 987.722656 486.90625 988.003906 486.636719 988.546875 484.257812 Z M 988.546875 484.257812 "/></g></g></g><g clip-rule="nonzero" clip-path="url(#clip70)"><g clip-rule="nonzero" clip-path="url(#clip71)"><g clip-rule="nonzero" clip-path="url(#clip72)"><path style=" stroke:none;fill-rule:nonzero;fill:rgb(1.179504%,59.609985%,61.959839%);fill-opacity:1;" d="M 959.035156 447.171875 C 954.6875 437.613281 953.511719 426.421875 950.195312 416.449219 C 947.019531 406.90625 944.203125 397.273438 940.179688 387.929688 C 935.699219 377.515625 924.925781 362.679688 913.136719 359.816406 C 897.042969 355.90625 884.105469 372.480469 888.578125 387.140625 C 894.472656 406.457031 912.851562 418.316406 928.1875 429.847656 C 937.921875 437.167969 947.765625 446.605469 959.25 451.210938 C 960 450.246094 960.0625 449.339844 959.035156 447.171875 Z M 959.035156 447.171875 "/></g></g></g><g clip-rule="nonzero" clip-path="url(#clip73)"><g clip-rule="nonzero" clip-path="url(#clip74)"><g clip-rule="nonzero" clip-path="url(#clip75)"><path style=" stroke:none;fill-rule:nonzero;fill:rgb(95.289612%,91.369629%,82.348633%);fill-opacity:1;" d="M 959.621094 451.90625 C 957.292969 444.71875 948.882812 437.5 944.132812 431.382812 C 939.65625 425.761719 934.554688 420.78125 928.828125 416.441406 C 921.667969 410.828125 908.714844 401.320312 899.308594 407.765625 C 889.289062 414.632812 900.722656 427.582031 907.171875 432.113281 C 911.179688 434.882812 915.425781 437.210938 919.910156 439.101562 C 924.394531 440.992188 929.023438 442.40625 933.800781 443.34375 C 942.1875 445.109375 950.410156 447.105469 959.621094 451.90625 Z M 959.621094 451.90625 "/></g></g></g><g clip-rule="nonzero" clip-path="url(#clip76)"><g clip-rule="nonzero" clip-path="url(#clip77)"><g clip-rule="nonzero" clip-path="url(#clip78)"><path style=" stroke:none;fill-rule:nonzero;fill:rgb(0%,50.19989%,21.569824%);fill-opacity:1;" d="M 980.769531 471.628906 C 977.738281 465.226562 983.671875 454.695312 984.6875 448.195312 C 985.503906 442.996094 985.476562 434.742188 982.605469 430.085938 C 979.398438 424.894531 974.613281 429.636719 973.003906 433.539062 C 970.339844 439.988281 973.367188 446.722656 974.535156 453.347656 C 975.519531 459.816406 977.597656 465.910156 980.769531 471.628906 Z M 980.769531 471.628906 "/></g></g></g><g clip-rule="nonzero" clip-path="url(#clip79)"><g clip-rule="nonzero" clip-path="url(#clip80)"><g clip-rule="nonzero" clip-path="url(#clip81)"><path style=" stroke:none;fill-rule:nonzero;fill:rgb(1.179504%,59.609985%,61.959839%);fill-opacity:1;" d="M 956.472656 392.21875 C 962.953125 388.867188 967.332031 398.246094 964.074219 403 C 960.410156 408.351562 953.535156 404.390625 951.585938 399.496094 C 950.398438 396.515625 951.785156 393.417969 956.472656 392.21875 Z M 956.472656 392.21875 "/></g></g></g><g clip-rule="nonzero" clip-path="url(#clip82)"><g clip-rule="nonzero" clip-path="url(#clip83)"><g clip-rule="nonzero" clip-path="url(#clip84)"><path style=" stroke:none;fill-rule:nonzero;fill:rgb(78.819275%,88.62915%,39.608765%);fill-opacity:1;" d="M 979.945312 271.742188 C 978.140625 270.964844 976.269531 270.722656 974.324219 271.019531 C 972.9375 271.246094 971.578125 271.566406 970.238281 271.992188 C 966.960938 272.910156 965.046875 275.140625 964.203125 278.386719 C 962.984375 283.074219 963.003906 287.84375 963.304688 292.613281 C 963.464844 295.128906 963.890625 297.628906 964.199219 300.132812 C 964.507812 302.640625 964.867188 305.136719 965.105469 307.65625 C 965.390625 310.585938 966.203125 313.445312 966.15625 316.421875 C 966.15625 316.992188 966.300781 317.527344 966.578125 318.027344 C 967.109375 319.035156 967.414062 320.105469 967.492188 321.238281 C 967.566406 321.796875 967.710938 322.335938 967.925781 322.859375 C 969.136719 326 970.355469 329.132812 971.589844 332.265625 C 971.84375 332.917969 972.15625 333.554688 972.351562 334.226562 C 973.378906 337.4375 974.589844 340.582031 975.980469 343.652344 C 976.8125 345.898438 977.917969 348.003906 979.296875 349.960938 C 979.992188 351.019531 980.59375 352.128906 981.09375 353.289062 C 982.441406 355.910156 983.699219 358.582031 985.152344 361.144531 C 986.113281 362.839844 987.632812 364.261719 988.367188 366.03125 C 989.140625 367.832031 990.050781 369.5625 991.105469 371.21875 C 992.289062 373.125 993.683594 374.910156 994.71875 376.890625 C 995.765625 378.890625 997.183594 380.625 998.332031 382.542969 C 999.484375 384.460938 1001.378906 385.808594 1002.527344 387.738281 C 1002.707031 388.039062 1003.535156 388.082031 1003.679688 387.828125 C 1003.8125 387.597656 1004.007812 387.300781 1003.960938 387.074219 C 1003.433594 384.609375 1002.941406 382.128906 1002.289062 379.699219 C 1001.570312 376.839844 1000.699219 374.027344 999.683594 371.257812 C 999.207031 369.933594 998.863281 368.574219 998.648438 367.183594 C 998.410156 365.796875 998.019531 364.453125 997.476562 363.15625 C 996.40625 360.539062 995.722656 357.828125 995.417969 355.019531 C 994.859375 350.566406 994.394531 346.105469 994.027344 341.632812 C 993.625 336.738281 993.101562 331.855469 993.347656 326.921875 C 993.5 323.839844 993.277344 320.742188 993.332031 317.65625 C 993.394531 314.425781 993.480469 311.199219 993.738281 307.980469 C 994.046875 302.921875 993.90625 297.878906 993.308594 292.847656 C 993.261719 292.289062 993.167969 291.742188 993.027344 291.199219 C 992.425781 289.03125 991.789062 286.878906 991.171875 284.71875 C 990.550781 282.542969 989.613281 280.507812 988.363281 278.621094 C 986.3125 275.535156 983.738281 272.988281 979.945312 271.742188 Z M 979.945312 271.742188 "/></g></g></g><g clip-rule="nonzero" clip-path="url(#clip85)"><g clip-rule="nonzero" clip-path="url(#clip86)"><g clip-rule="nonzero" clip-path="url(#clip87)"><path style=" stroke:none;fill-rule:nonzero;fill:rgb(0%,50.19989%,21.569824%);fill-opacity:1;" d="M 925.84375 361.085938 C 931.761719 362.757812 936.203125 363.90625 940.851562 364.332031 C 948.566406 364.957031 956.089844 366.507812 963.425781 368.976562 C 965.011719 369.523438 966.617188 370.03125 968.226562 370.507812 C 968.636719 370.585938 969.046875 370.597656 969.460938 370.539062 C 969.578125 370.453125 969.636719 370.339844 969.632812 370.199219 C 969.503906 369.816406 969.308594 369.476562 969.042969 369.175781 C 965.65625 366.242188 962.375 363.1875 959.253906 359.96875 C 955.890625 356.589844 952.304688 353.472656 948.484375 350.617188 C 947.042969 349.507812 945.640625 348.339844 944.289062 347.125 C 940.988281 344.203125 937.21875 342.128906 932.984375 340.898438 C 931.765625 340.5625 930.523438 340.382812 929.261719 340.367188 C 925.738281 340.222656 922.648438 341.476562 919.730469 343.214844 C 917.722656 344.390625 916.261719 346.054688 915.355469 348.199219 C 915.0625 348.847656 914.945312 349.523438 915.011719 350.234375 C 915.140625 351.507812 915.507812 352.707031 916.113281 353.832031 C 916.71875 354.957031 917.515625 355.925781 918.507812 356.734375 C 921.175781 358.816406 923.980469 360.640625 925.84375 361.085938 Z M 925.84375 361.085938 "/></g></g></g><g clip-rule="nonzero" clip-path="url(#clip88)"><g clip-rule="nonzero" clip-path="url(#clip89)"><g clip-rule="nonzero" clip-path="url(#clip90)"><path style=" stroke:none;fill-rule:nonzero;fill:rgb(1.179504%,59.609985%,61.959839%);fill-opacity:1;" d="M 923.480469 291.261719 C 923.292969 292.09375 923.203125 292.652344 923.042969 293.183594 C 922.589844 294.671875 922.398438 296.191406 922.46875 297.746094 C 922.539062 299.296875 922.867188 300.792969 923.453125 302.230469 C 924.617188 305.261719 926.25 308.015625 928.355469 310.484375 C 930.550781 313.210938 932.964844 315.726562 935.589844 318.039062 C 936.765625 319.027344 937.875 320.09375 939.03125 321.101562 C 942.550781 324.097656 946.316406 326.742188 950.328125 329.035156 C 950.570312 329.171875 950.828125 329.277344 951.101562 329.351562 C 951.21875 329.386719 951.4375 329.367188 951.488281 329.289062 C 951.625 329.078125 951.832031 328.785156 951.769531 328.597656 C 950.5 324.457031 948.785156 320.46875 947.632812 316.289062 C 947.335938 315.210938 946.890625 314.175781 946.59375 313.101562 C 945.550781 309.308594 943.496094 305.914062 942.242188 302.203125 C 942.054688 301.824219 941.828125 301.472656 941.566406 301.144531 C 938.691406 296.632812 935.234375 292.628906 931.199219 289.128906 C 930.683594 288.652344 930.128906 288.230469 929.53125 287.863281 C 929.046875 287.585938 928.535156 287.371094 928 287.214844 C 927.699219 287.109375 927.390625 287.058594 927.074219 287.0625 C 926.753906 287.066406 926.449219 287.128906 926.152344 287.246094 C 925.855469 287.363281 925.589844 287.527344 925.351562 287.742188 C 925.117188 287.953125 924.925781 288.203125 924.777344 288.484375 C 924.246094 289.464844 923.828125 290.507812 923.480469 291.261719 Z M 923.480469 291.261719 "/></g></g></g><g clip-rule="nonzero" clip-path="url(#clip91)"><g clip-rule="nonzero" clip-path="url(#clip92)"><g clip-rule="nonzero" clip-path="url(#clip93)"><path style=" stroke:none;fill-rule:nonzero;fill:rgb(78.819275%,88.62915%,39.608765%);fill-opacity:1;" d="M 806.765625 475.789062 C 805.566406 474.234375 804.867188 472.476562 804.675781 470.519531 C 804.550781 469.121094 804.53125 467.722656 804.609375 466.320312 C 804.691406 462.917969 806.382812 460.511719 809.320312 458.894531 C 813.558594 456.554688 818.1875 455.398438 822.882812 454.515625 C 825.359375 454.046875 827.886719 453.84375 830.394531 453.523438 C 832.898438 453.203125 835.40625 452.9375 837.90625 452.546875 C 840.8125 452.097656 843.789062 452.183594 846.660156 451.402344 C 847.214844 451.261719 847.765625 451.269531 848.320312 451.414062 C 849.425781 451.679688 850.539062 451.710938 851.660156 451.507812 C 852.21875 451.441406 852.777344 451.449219 853.332031 451.53125 C 856.675781 451.925781 860.015625 452.335938 863.351562 452.757812 C 864.050781 452.84375 864.742188 452.988281 865.441406 453.011719 C 868.808594 453.214844 872.152344 453.613281 875.472656 454.207031 C 877.855469 454.457031 880.167969 455.011719 882.40625 455.859375 C 883.601562 456.277344 884.824219 456.582031 886.074219 456.78125 C 888.945312 457.441406 891.84375 458 894.6875 458.777344 C 896.566406 459.289062 898.320312 460.410156 900.214844 460.6875 C 902.152344 460.992188 904.054688 461.449219 905.917969 462.058594 C 908.054688 462.738281 910.132812 463.648438 912.304688 464.164062 C 914.503906 464.683594 916.53125 465.628906 918.675781 466.273438 C 920.820312 466.914062 922.589844 468.417969 924.746094 469.054688 C 925.078125 469.15625 925.328125 469.945312 925.117188 470.148438 C 924.925781 470.335938 924.683594 470.597656 924.453125 470.609375 C 921.9375 470.707031 919.414062 470.839844 916.898438 470.804688 C 913.949219 470.816406 911.007812 470.667969 908.074219 470.363281 C 906.671875 470.230469 905.269531 470.230469 903.867188 470.367188 C 902.464844 470.476562 901.066406 470.429688 899.675781 470.222656 C 896.878906 469.835938 894.082031 469.839844 891.28125 470.234375 C 886.832031 470.792969 882.394531 471.445312 877.964844 472.195312 C 873.125 473.011719 868.265625 473.707031 863.542969 475.164062 C 860.597656 476.070312 857.539062 476.621094 854.558594 477.4375 C 851.445312 478.289062 848.339844 479.167969 845.285156 480.214844 C 840.460938 481.761719 835.535156 482.867188 830.515625 483.53125 C 829.960938 483.625 829.40625 483.667969 828.847656 483.664062 C 826.597656 483.617188 824.355469 483.535156 822.109375 483.46875 C 819.84375 483.402344 817.644531 482.996094 815.507812 482.246094 C 812.011719 481.023438 808.910156 479.160156 806.765625 475.789062 Z M 806.765625 475.789062 "/></g></g></g><g clip-rule="nonzero" clip-path="url(#clip94)"><g clip-rule="nonzero" clip-path="url(#clip95)"><g clip-rule="nonzero" clip-path="url(#clip96)"><path style=" stroke:none;fill-rule:nonzero;fill:rgb(0%,50.19989%,21.569824%);fill-opacity:1;" d="M 879.996094 401.316406 C 883.074219 406.640625 885.289062 410.660156 886.84375 415.058594 C 889.355469 422.378906 892.714844 429.289062 896.917969 435.789062 C 897.839844 437.191406 898.726562 438.621094 899.585938 440.066406 C 899.761719 440.441406 899.875 440.839844 899.917969 441.253906 C 899.867188 441.386719 899.769531 441.472656 899.632812 441.503906 C 899.230469 441.472656 898.851562 441.367188 898.496094 441.183594 C 894.816406 438.625 891.046875 436.199219 887.160156 433.96875 C 883.054688 431.546875 879.144531 428.835938 875.4375 425.839844 C 874.007812 424.71875 872.53125 423.648438 871.019531 422.636719 C 867.375 420.15625 864.429688 417.015625 862.195312 413.21875 C 861.566406 412.121094 861.089844 410.960938 860.761719 409.738281 C 859.753906 406.359375 860.207031 403.058594 861.171875 399.800781 C 861.816406 397.5625 863.066406 395.742188 864.921875 394.332031 C 865.476562 393.886719 866.105469 393.609375 866.808594 393.5 C 868.074219 393.308594 869.328125 393.367188 870.566406 393.675781 C 871.808594 393.984375 872.941406 394.519531 873.96875 395.28125 C 876.644531 397.351562 879.105469 399.621094 879.996094 401.316406 Z M 879.996094 401.316406 "/></g></g></g><g clip-rule="nonzero" clip-path="url(#clip97)"><g clip-rule="nonzero" clip-path="url(#clip98)"><g clip-rule="nonzero" clip-path="url(#clip99)"><path style=" stroke:none;fill-rule:nonzero;fill:rgb(1.179504%,59.609985%,61.959839%);fill-opacity:1;" d="M 811.746094 416.253906 C 812.507812 415.867188 813.027344 415.644531 813.503906 415.351562 C 814.835938 414.546875 816.261719 413.988281 817.78125 413.671875 C 819.304688 413.359375 820.835938 413.308594 822.371094 413.519531 C 825.597656 413.898438 828.667969 414.804688 831.578125 416.238281 C 834.761719 417.691406 837.796875 419.40625 840.6875 421.378906 C 841.933594 422.277344 843.238281 423.089844 844.503906 423.964844 C 848.273438 426.632812 851.765625 429.628906 854.976562 432.953125 C 855.171875 433.152344 855.335938 433.378906 855.476562 433.621094 C 855.539062 433.726562 855.574219 433.945312 855.511719 434.015625 C 855.339844 434.199219 855.109375 434.46875 854.910156 434.457031 C 850.585938 434.246094 846.296875 433.570312 841.960938 433.484375 C 840.84375 433.464844 839.730469 433.285156 838.617188 433.265625 C 834.683594 433.191406 830.886719 432.035156 826.980469 431.734375 C 826.566406 431.648438 826.171875 431.515625 825.785156 431.34375 C 820.707031 429.671875 815.972656 427.308594 811.585938 424.257812 C 810.996094 423.875 810.453125 423.441406 809.945312 422.957031 C 809.558594 422.554688 809.222656 422.113281 808.941406 421.632812 C 808.765625 421.367188 808.636719 421.082031 808.566406 420.769531 C 808.492188 420.460938 808.476562 420.148438 808.515625 419.832031 C 808.554688 419.519531 808.648438 419.21875 808.796875 418.9375 C 808.945312 418.65625 809.140625 418.410156 809.378906 418.195312 C 810.195312 417.4375 811.101562 416.777344 811.746094 416.253906 Z M 811.746094 416.253906 "/></g></g></g><g clip-rule="nonzero" clip-path="url(#clip100)"><g clip-rule="nonzero" clip-path="url(#clip101)"><g clip-rule="nonzero" clip-path="url(#clip102)"><path style=" stroke:none;fill-rule:nonzero;fill:rgb(49.409485%,85.099792%,34.118652%);fill-opacity:1;" d="M 23.71875 481.371094 C 18.746094 466.78125 10.375 453.441406 8.59375 437.5625 C 7.367188 426.625 7.457031 411.433594 17.371094 404.597656 C 26.597656 398.238281 36.703125 400.503906 42.460938 409.945312 C 48.992188 420.660156 46 436.269531 43.707031 448.109375 C 42.472656 454.457031 31.511719 487.089844 24.554688 484.738281 C 24.601562 484.003906 24.316406 483.742188 23.71875 481.371094 Z M 23.71875 481.371094 "/></g></g></g><g clip-rule="nonzero" clip-path="url(#clip103)"><g clip-rule="nonzero" clip-path="url(#clip104)"><g clip-rule="nonzero" clip-path="url(#clip105)"><path style=" stroke:none;fill-rule:nonzero;fill:rgb(1.179504%,59.609985%,61.959839%);fill-opacity:1;" d="M 52.367188 443.621094 C 56.496094 433.960938 57.414062 422.75 60.5 412.703125 C 63.457031 403.089844 66.050781 393.394531 69.859375 383.960938 C 74.101562 373.445312 84.53125 358.367188 96.246094 355.234375 C 112.246094 350.953125 125.5625 367.230469 121.429688 381.984375 C 115.980469 401.433594 97.878906 413.710938 82.808594 425.59375 C 73.246094 433.132812 63.621094 442.796875 52.25 447.664062 C 51.476562 446.714844 51.390625 445.8125 52.367188 443.621094 Z M 52.367188 443.621094 "/></g></g></g><g clip-rule="nonzero" clip-path="url(#clip106)"><g clip-rule="nonzero" clip-path="url(#clip107)"><g clip-rule="nonzero" clip-path="url(#clip108)"><path style=" stroke:none;fill-rule:nonzero;fill:rgb(95.289612%,91.369629%,82.348633%);fill-opacity:1;" d="M 51.890625 448.367188 C 54.054688 441.128906 62.296875 433.714844 66.90625 427.492188 C 71.253906 421.773438 76.238281 416.675781 81.863281 412.203125 C 88.890625 406.429688 101.621094 396.625 111.175781 402.855469 C 121.351562 409.488281 110.214844 422.695312 103.871094 427.375 C 99.929688 430.234375 95.738281 432.660156 91.300781 434.65625 C 86.859375 436.648438 82.261719 438.167969 77.511719 439.214844 C 69.167969 441.171875 60.992188 443.355469 51.890625 448.367188 Z M 51.890625 448.367188 "/></g></g></g><g clip-rule="nonzero" clip-path="url(#clip109)"><g clip-rule="nonzero" clip-path="url(#clip110)"><g clip-rule="nonzero" clip-path="url(#clip111)"><path style=" stroke:none;fill-rule:nonzero;fill:rgb(0%,50.19989%,21.569824%);fill-opacity:1;" d="M 31.203125 468.570312 C 34.085938 462.101562 27.910156 451.707031 26.746094 445.234375 C 25.8125 440.054688 25.648438 431.804688 28.414062 427.078125 C 31.496094 421.816406 36.390625 426.449219 38.09375 430.308594 C 40.90625 436.699219 38.03125 443.5 37.015625 450.152344 C 36.179688 456.640625 34.242188 462.78125 31.203125 468.570312 Z M 31.203125 468.570312 "/></g></g></g><g clip-rule="nonzero" clip-path="url(#clip112)"><g clip-rule="nonzero" clip-path="url(#clip113)"><g clip-rule="nonzero" clip-path="url(#clip114)"><path style=" stroke:none;fill-rule:nonzero;fill:rgb(1.179504%,59.609985%,61.959839%);fill-opacity:1;" d="M 53.671875 388.625 C 47.113281 385.421875 42.953125 394.898438 46.316406 399.578125 C 50.101562 404.84375 56.886719 400.722656 58.722656 395.785156 C 59.839844 392.777344 58.378906 389.714844 53.671875 388.625 Z M 53.671875 388.625 "/></g></g></g><g clip-rule="nonzero" clip-path="url(#clip115)"><g clip-rule="nonzero" clip-path="url(#clip116)"><g clip-rule="nonzero" clip-path="url(#clip117)"><path style=" stroke:none;fill-rule:nonzero;fill:rgb(78.819275%,88.62915%,39.608765%);fill-opacity:1;" d="M 22.992188 271.835938 C 24.71875 270.902344 26.566406 270.496094 28.527344 270.621094 C 29.925781 270.71875 31.3125 270.921875 32.683594 271.226562 C 36.03125 271.851562 38.132812 273.902344 39.261719 277.0625 C 40.890625 281.621094 41.292969 286.375 41.414062 291.152344 C 41.476562 293.671875 41.277344 296.199219 41.1875 298.722656 C 41.101562 301.246094 40.96875 303.765625 40.949219 306.296875 C 40.925781 309.238281 40.371094 312.160156 40.679688 315.121094 C 40.726562 315.691406 40.636719 316.234375 40.402344 316.757812 C 39.960938 317.804688 39.753906 318.898438 39.777344 320.039062 C 39.75 320.601562 39.65625 321.152344 39.484375 321.6875 C 38.558594 324.921875 37.621094 328.15625 36.667969 331.382812 C 36.472656 332.054688 36.21875 332.71875 36.085938 333.402344 C 35.34375 336.695312 34.417969 339.929688 33.300781 343.113281 C 32.671875 345.425781 31.757812 347.617188 30.558594 349.691406 C 29.957031 350.804688 29.460938 351.964844 29.0625 353.167969 C 27.953125 355.894531 26.933594 358.667969 25.714844 361.347656 C 24.910156 363.121094 23.519531 364.671875 22.945312 366.5 C 22.335938 368.363281 21.578125 370.167969 20.675781 371.910156 C 19.664062 373.914062 18.433594 375.816406 17.578125 377.878906 C 16.714844 379.964844 15.457031 381.816406 14.476562 383.828125 C 13.5 385.84375 11.734375 387.351562 10.757812 389.375 C 10.605469 389.691406 9.785156 389.808594 9.621094 389.566406 C 9.46875 389.347656 9.246094 389.070312 9.273438 388.839844 C 9.578125 386.339844 9.851562 383.824219 10.289062 381.347656 C 10.75 378.433594 11.367188 375.554688 12.136719 372.707031 C 12.492188 371.347656 12.714844 369.964844 12.804688 368.558594 C 12.921875 367.15625 13.191406 365.785156 13.617188 364.441406 C 14.449219 361.742188 14.894531 358.980469 14.949219 356.152344 C 15.113281 351.671875 15.175781 347.1875 15.144531 342.695312 C 15.113281 337.789062 15.207031 332.878906 14.523438 327.984375 C 14.097656 324.929688 14.046875 321.824219 13.71875 318.753906 C 13.375 315.542969 13 312.335938 12.460938 309.152344 C 11.703125 304.144531 11.398438 299.105469 11.546875 294.042969 C 11.546875 293.480469 11.589844 292.925781 11.683594 292.375 C 12.089844 290.164062 12.53125 287.960938 12.957031 285.757812 C 13.382812 283.53125 14.136719 281.421875 15.21875 279.433594 C 16.984375 276.179688 19.324219 273.414062 22.992188 271.835938 Z M 22.992188 271.835938 "/></g></g></g><g clip-rule="nonzero" clip-path="url(#clip118)"><g clip-rule="nonzero" clip-path="url(#clip119)"><g clip-rule="nonzero" clip-path="url(#clip120)"><path style=" stroke:none;fill-rule:nonzero;fill:rgb(0%,50.19989%,21.569824%);fill-opacity:1;" d="M 84.789062 356.042969 C 79.039062 358.230469 74.714844 359.769531 70.125 360.601562 C 62.496094 361.910156 55.136719 364.121094 48.050781 367.230469 C 46.515625 367.914062 44.964844 368.5625 43.402344 369.179688 C 43 369.292969 42.589844 369.339844 42.175781 369.316406 C 42.050781 369.246094 41.984375 369.136719 41.972656 368.992188 C 42.066406 368.605469 42.234375 368.246094 42.46875 367.925781 C 45.585938 364.699219 48.585938 361.371094 51.40625 357.886719 C 54.457031 354.222656 57.757812 350.800781 61.304688 347.617188 C 62.644531 346.386719 63.9375 345.101562 65.175781 343.769531 C 68.207031 340.566406 71.777344 338.164062 75.886719 336.566406 C 77.070312 336.121094 78.292969 335.835938 79.550781 335.710938 C 83.046875 335.253906 86.230469 336.226562 89.296875 337.703125 C 91.398438 338.695312 93 340.222656 94.09375 342.277344 C 94.441406 342.898438 94.617188 343.5625 94.613281 344.277344 C 94.597656 345.554688 94.339844 346.78125 93.835938 347.957031 C 93.332031 349.132812 92.625 350.167969 91.710938 351.058594 C 89.234375 353.371094 86.601562 355.4375 84.789062 356.042969 Z M 84.789062 356.042969 "/></g></g></g><g clip-rule="nonzero" clip-path="url(#clip121)"><g clip-rule="nonzero" clip-path="url(#clip122)"><g clip-rule="nonzero" clip-path="url(#clip123)"><path style=" stroke:none;fill-rule:nonzero;fill:rgb(1.179504%,59.609985%,61.959839%);fill-opacity:1;" d="M 80.964844 286.28125 C 81.222656 287.097656 81.359375 287.644531 81.570312 288.160156 C 82.152344 289.601562 82.476562 291.101562 82.542969 292.652344 C 82.609375 294.203125 82.417969 295.722656 81.960938 297.207031 C 81.070312 300.332031 79.683594 303.214844 77.804688 305.863281 C 75.859375 308.769531 73.679688 311.492188 71.269531 314.027344 C 70.1875 315.117188 69.175781 316.277344 68.109375 317.382812 C 64.871094 320.679688 61.355469 323.644531 57.5625 326.285156 C 57.332031 326.441406 57.082031 326.570312 56.820312 326.667969 C 56.707031 326.710938 56.484375 326.710938 56.425781 326.640625 C 56.273438 326.441406 56.042969 326.171875 56.085938 325.976562 C 56.984375 321.742188 58.339844 317.617188 59.117188 313.347656 C 59.316406 312.25 59.671875 311.179688 59.871094 310.082031 C 60.574219 306.210938 62.320312 302.652344 63.242188 298.839844 C 63.394531 298.449219 63.589844 298.078125 63.820312 297.726562 C 66.285156 292.980469 69.375 288.6875 73.085938 284.839844 C 73.558594 284.324219 74.074219 283.851562 74.632812 283.433594 C 75.09375 283.113281 75.582031 282.855469 76.101562 282.652344 C 76.390625 282.519531 76.695312 282.441406 77.011719 282.417969 C 77.328125 282.394531 77.640625 282.429688 77.945312 282.519531 C 78.25 282.609375 78.53125 282.75 78.785156 282.941406 C 79.039062 283.132812 79.253906 283.363281 79.425781 283.632812 C 80.042969 284.5625 80.550781 285.5625 80.964844 286.28125 Z M 80.964844 286.28125 "/></g></g></g><g clip-rule="nonzero" clip-path="url(#clip124)"><g clip-rule="nonzero" clip-path="url(#clip125)"><g clip-rule="nonzero" clip-path="url(#clip126)"><path style=" stroke:none;fill-rule:nonzero;fill:rgb(78.819275%,88.62915%,39.608765%);fill-opacity:1;" d="M 205.816406 472.246094 C 206.824219 470.558594 207.308594 468.734375 207.269531 466.765625 C 207.230469 465.363281 207.085938 463.972656 206.84375 462.589844 C 206.363281 459.21875 204.402344 457.03125 201.292969 455.765625 C 196.808594 453.945312 192.078125 453.335938 187.308594 453.011719 C 184.796875 452.839844 182.261719 452.929688 179.734375 452.910156 C 177.210938 452.886719 174.6875 452.914062 172.160156 452.824219 C 169.21875 452.71875 166.277344 453.148438 163.332031 452.710938 C 162.765625 452.640625 162.21875 452.710938 161.6875 452.921875 C 160.617188 453.3125 159.515625 453.476562 158.382812 453.40625 C 157.816406 453.40625 157.265625 453.476562 156.71875 453.625 C 153.449219 454.410156 150.179688 455.207031 146.914062 456.019531 C 146.234375 456.1875 145.558594 456.410156 144.871094 456.519531 C 141.550781 457.113281 138.277344 457.902344 135.050781 458.878906 C 132.710938 459.410156 130.480469 460.230469 128.359375 461.339844 C 127.21875 461.890625 126.042969 462.339844 124.824219 462.683594 C 122.046875 463.675781 119.234375 464.574219 116.503906 465.675781 C 114.699219 466.40625 113.089844 467.726562 111.238281 468.222656 C 109.347656 468.753906 107.515625 469.429688 105.734375 470.253906 C 103.691406 471.179688 101.738281 472.328125 99.640625 473.09375 C 97.515625 473.867188 95.613281 475.046875 93.5625 475.9375 C 91.507812 476.828125 89.925781 478.527344 87.863281 479.414062 C 87.539062 479.550781 87.386719 480.367188 87.621094 480.542969 C 87.832031 480.707031 88.101562 480.9375 88.332031 480.921875 C 90.84375 480.722656 93.367188 480.558594 95.859375 480.230469 C 98.789062 479.894531 101.695312 479.402344 104.570312 478.753906 C 105.949219 478.457031 107.339844 478.292969 108.746094 478.261719 C 110.152344 478.207031 111.535156 477.996094 112.894531 477.628906 C 115.625 476.914062 118.40625 476.589844 121.230469 476.65625 C 125.714844 476.6875 130.199219 476.8125 134.683594 477.039062 C 139.585938 477.28125 144.496094 477.398438 149.355469 478.292969 C 152.390625 478.847656 155.492188 479.035156 158.542969 479.492188 C 161.738281 479.976562 164.925781 480.484375 168.082031 481.164062 C 173.054688 482.136719 178.074219 482.65625 183.140625 482.722656 C 183.699219 482.75 184.257812 482.730469 184.8125 482.660156 C 187.039062 482.347656 189.257812 482.003906 191.476562 481.671875 C 193.71875 481.339844 195.859375 480.679688 197.894531 479.6875 C 201.21875 478.058594 204.082031 475.84375 205.816406 472.246094 Z M 205.816406 472.246094 "/></g></g></g><g clip-rule="nonzero" clip-path="url(#clip127)"><g clip-rule="nonzero" clip-path="url(#clip128)"><g clip-rule="nonzero" clip-path="url(#clip129)"><path style=" stroke:none;fill-rule:nonzero;fill:rgb(0%,50.19989%,21.569824%);fill-opacity:1;" d="M 124.34375 406.886719 C 121.910156 412.535156 120.1875 416.789062 119.160156 421.339844 C 117.523438 428.90625 115 436.164062 111.589844 443.109375 C 110.839844 444.613281 110.125 446.136719 109.441406 447.667969 C 109.308594 448.066406 109.246094 448.472656 109.25 448.890625 C 109.316406 449.015625 109.421875 449.085938 109.566406 449.105469 C 109.957031 449.027344 110.320312 448.875 110.65625 448.652344 C 114.011719 445.679688 117.464844 442.828125 121.066406 440.15625 C 124.859375 437.265625 128.421875 434.117188 131.753906 430.707031 C 133.039062 429.425781 134.382812 428.1875 135.761719 427.007812 C 139.09375 424.117188 141.644531 420.652344 143.417969 416.617188 C 143.914062 415.453125 144.253906 414.246094 144.433594 412.992188 C 145.039062 409.519531 144.203125 406.296875 142.863281 403.171875 C 141.960938 401.027344 140.503906 399.363281 138.496094 398.183594 C 137.890625 397.804688 137.234375 397.601562 136.523438 397.574219 C 135.246094 397.535156 134.007812 397.742188 132.8125 398.195312 C 131.617188 398.648438 130.550781 399.3125 129.621094 400.1875 C 127.207031 402.558594 125.027344 405.101562 124.34375 406.886719 Z M 124.34375 406.886719 "/></g></g></g><g clip-rule="nonzero" clip-path="url(#clip130)"><g clip-rule="nonzero" clip-path="url(#clip131)"><g clip-rule="nonzero" clip-path="url(#clip132)"><path style=" stroke:none;fill-rule:nonzero;fill:rgb(1.179504%,59.609985%,61.959839%);fill-opacity:1;" d="M 193.875 413.707031 C 193.074219 413.410156 192.535156 413.25 192.023438 413.019531 C 190.609375 412.375 189.128906 411.988281 187.578125 411.855469 C 186.03125 411.71875 184.507812 411.847656 183.003906 412.238281 C 179.84375 412.996094 176.902344 414.257812 174.179688 416.019531 C 171.1875 417.839844 168.375 419.898438 165.738281 422.199219 C 164.605469 423.234375 163.402344 424.195312 162.253906 425.210938 C 158.820312 428.304688 155.703125 431.691406 152.90625 435.367188 C 152.738281 435.589844 152.597656 435.832031 152.492188 436.089844 C 152.441406 436.203125 152.433594 436.425781 152.5 436.484375 C 152.691406 436.648438 152.953125 436.890625 153.148438 436.855469 C 157.417969 436.136719 161.597656 434.960938 165.894531 434.367188 C 167 434.214844 168.085938 433.90625 169.191406 433.757812 C 173.089844 433.21875 176.722656 431.628906 180.566406 430.871094 C 180.964844 430.734375 181.34375 430.558594 181.707031 430.34375 C 186.554688 428.082031 190.976562 425.179688 194.976562 421.636719 C 195.515625 421.1875 196.007812 420.695312 196.453125 420.152344 C 196.789062 419.707031 197.070312 419.230469 197.292969 418.71875 C 197.4375 418.433594 197.53125 418.136719 197.566406 417.820312 C 197.601562 417.503906 197.582031 417.191406 197.507812 416.882812 C 197.429688 416.574219 197.300781 416.289062 197.121094 416.027344 C 196.941406 415.761719 196.71875 415.539062 196.457031 415.359375 C 195.554688 414.699219 194.578125 414.148438 193.875 413.707031 Z M 193.875 413.707031 "/></g></g></g></g></svg>