<?xml version="1.0" encoding="UTF-8"?><svg xmlns="http://www.w3.org/2000/svg" xmlns:xlink="http://www.w3.org/1999/xlink" contentScriptType="text/ecmascript" width="1012.5pt" zoomAndPan="magnify" contentStyleType="text/css" viewBox="0 0 1012.5 487.499991" height="487.499991pt" preserveAspectRatio="xMidYMid meet" version="1.2"><defs><clipPath xml:id="clip1" id="clip1"><path d="M 0.269531 419 L 91 419 L 91 487 L 0.269531 487 Z M 0.269531 419 "/></clipPath><clipPath xml:id="clip2" id="clip2"><path d="M 55.636719 283.757812 L 161.371094 365.140625 L 42.5 519.585938 L -63.238281 438.203125 Z M 55.636719 283.757812 "/></clipPath><clipPath xml:id="clip3" id="clip3"><path d="M 55.636719 283.757812 L 161.371094 365.140625 L 42.5 519.585938 L -63.238281 438.203125 Z M 55.636719 283.757812 "/></clipPath><clipPath xml:id="clip4" id="clip4"><path d="M 21 308 L 92 308 L 92 434 L 21 434 Z M 21 308 "/></clipPath><clipPath xml:id="clip5" id="clip5"><path d="M 55.636719 283.757812 L 161.371094 365.140625 L 42.5 519.585938 L -63.238281 438.203125 Z M 55.636719 283.757812 "/></clipPath><clipPath xml:id="clip6" id="clip6"><path d="M 55.636719 283.757812 L 161.371094 365.140625 L 42.5 519.585938 L -63.238281 438.203125 Z M 55.636719 283.757812 "/></clipPath><clipPath xml:id="clip7" id="clip7"><path d="M 8 340 L 41 340 L 41 435 L 8 435 Z M 8 340 "/></clipPath><clipPath xml:id="clip8" id="clip8"><path d="M 55.636719 283.757812 L 161.371094 365.140625 L 42.5 519.585938 L -63.238281 438.203125 Z M 55.636719 283.757812 "/></clipPath><clipPath xml:id="clip9" id="clip9"><path d="M 55.636719 283.757812 L 161.371094 365.140625 L 42.5 519.585938 L -63.238281 438.203125 Z M 55.636719 283.757812 "/></clipPath><clipPath xml:id="clip10" id="clip10"><path d="M 13 437 L 61 437 L 61 470 L 13 470 Z M 13 437 "/></clipPath><clipPath xml:id="clip11" id="clip11"><path d="M 55.636719 283.757812 L 161.371094 365.140625 L 42.5 519.585938 L -63.238281 438.203125 Z M 55.636719 283.757812 "/></clipPath><clipPath xml:id="clip12" id="clip12"><path d="M 55.636719 283.757812 L 161.371094 365.140625 L 42.5 519.585938 L -63.238281 438.203125 Z M 55.636719 283.757812 "/></clipPath><clipPath xml:id="clip13" id="clip13"><path d="M 70 389 L 87 389 L 87 409 L 70 409 Z M 70 389 "/></clipPath><clipPath xml:id="clip14" id="clip14"><path d="M 55.636719 283.757812 L 161.371094 365.140625 L 42.5 519.585938 L -63.238281 438.203125 Z M 55.636719 283.757812 "/></clipPath><clipPath xml:id="clip15" id="clip15"><path d="M 55.636719 283.757812 L 161.371094 365.140625 L 42.5 519.585938 L -63.238281 438.203125 Z M 55.636719 283.757812 "/></clipPath><clipPath xml:id="clip16" id="clip16"><path d="M 849 6 L 1010 6 L 1010 106 L 849 106 Z M 849 6 "/></clipPath><clipPath xml:id="clip17" id="clip17"><path d="M 856.128906 -5.648438 L 1010.097656 6.109375 L 997.714844 168.300781 L 843.742188 156.542969 Z M 856.128906 -5.648438 "/></clipPath><clipPath xml:id="clip18" id="clip18"><path d="M 856.128906 -5.648438 L 1010.097656 6.109375 L 997.714844 168.300781 L 843.742188 156.542969 Z M 856.128906 -5.648438 "/></clipPath><clipPath xml:id="clip19" id="clip19"><path d="M 967 63 L 1000 63 L 1000 151 L 967 151 Z M 967 63 "/></clipPath><clipPath xml:id="clip20" id="clip20"><path d="M 856.128906 -5.648438 L 1010.097656 6.109375 L 997.714844 168.300781 L 843.742188 156.542969 Z M 856.128906 -5.648438 "/></clipPath><clipPath xml:id="clip21" id="clip21"><path d="M 856.128906 -5.648438 L 1010.097656 6.109375 L 997.714844 168.300781 L 843.742188 156.542969 Z M 856.128906 -5.648438 "/></clipPath><clipPath xml:id="clip22" id="clip22"><path d="M 891 104 L 945 104 L 945 161 L 891 161 Z M 891 104 "/></clipPath><clipPath xml:id="clip23" id="clip23"><path d="M 856.128906 -5.648438 L 1010.097656 6.109375 L 997.714844 168.300781 L 843.742188 156.542969 Z M 856.128906 -5.648438 "/></clipPath><clipPath xml:id="clip24" id="clip24"><path d="M 856.128906 -5.648438 L 1010.097656 6.109375 L 997.714844 168.300781 L 843.742188 156.542969 Z M 856.128906 -5.648438 "/></clipPath><clipPath xml:id="clip25" id="clip25"><path d="M 0.269531 3 L 157 3 L 157 111 L 0.269531 111 Z M 0.269531 3 "/></clipPath><clipPath xml:id="clip26" id="clip26"><path d="M 0.269531 3.03125 L 154.65625 0.00390625 L 157.847656 162.636719 L 3.460938 165.664062 Z M 0.269531 3.03125 "/></clipPath><clipPath xml:id="clip27" id="clip27"><path d="M 154.796875 0 L 0.410156 3.03125 L 3.601562 165.664062 L 157.988281 162.632812 Z M 154.796875 0 "/></clipPath><clipPath xml:id="clip28" id="clip28"><path d="M 3 60 L 36 60 L 36 149 L 3 149 Z M 3 60 "/></clipPath><clipPath xml:id="clip29" id="clip29"><path d="M 0.269531 3.03125 L 154.65625 0.00390625 L 157.847656 162.636719 L 3.460938 165.664062 Z M 0.269531 3.03125 "/></clipPath><clipPath xml:id="clip30" id="clip30"><path d="M 154.796875 0 L 0.410156 3.03125 L 3.601562 165.664062 L 157.988281 162.632812 Z M 154.796875 0 "/></clipPath><clipPath xml:id="clip31" id="clip31"><path d="M 60 105 L 111 105 L 111 164 L 60 164 Z M 60 105 "/></clipPath><clipPath xml:id="clip32" id="clip32"><path d="M 0.269531 3.03125 L 154.65625 0.00390625 L 157.847656 162.636719 L 3.460938 165.664062 Z M 0.269531 3.03125 "/></clipPath><clipPath xml:id="clip33" id="clip33"><path d="M 154.796875 0 L 0.410156 3.03125 L 3.601562 165.664062 L 157.988281 162.632812 Z M 154.796875 0 "/></clipPath><clipPath xml:id="clip34" id="clip34"><path d="M 918 419 L 1011.730469 419 L 1011.730469 484 L 918 484 Z M 918 419 "/></clipPath><clipPath xml:id="clip35" id="clip35"><path d="M 843.730469 371.894531 L 943.789062 283.625 L 1072.71875 429.78125 L 972.660156 518.050781 Z M 843.730469 371.894531 "/></clipPath><clipPath xml:id="clip36" id="clip36"><path d="M 943.640625 283.757812 L 843.578125 372.023438 L 972.507812 518.179688 L 1072.570312 429.914062 Z M 943.640625 283.757812 "/></clipPath><clipPath xml:id="clip37" id="clip37"><path d="M 910 308 L 988 308 L 988 432 L 910 432 Z M 910 308 "/></clipPath><clipPath xml:id="clip38" id="clip38"><path d="M 843.730469 371.894531 L 943.789062 283.625 L 1072.71875 429.78125 L 972.660156 518.050781 Z M 843.730469 371.894531 "/></clipPath><clipPath xml:id="clip39" id="clip39"><path d="M 943.640625 283.757812 L 843.578125 372.023438 L 972.507812 518.179688 L 1072.570312 429.914062 Z M 943.640625 283.757812 "/></clipPath><clipPath xml:id="clip40" id="clip40"><path d="M 963 338 L 997 338 L 997 432 L 963 432 Z M 963 338 "/></clipPath><clipPath xml:id="clip41" id="clip41"><path d="M 843.730469 371.894531 L 943.789062 283.625 L 1072.71875 429.78125 L 972.660156 518.050781 Z M 843.730469 371.894531 "/></clipPath><clipPath xml:id="clip42" id="clip42"><path d="M 943.640625 283.757812 L 843.578125 372.023438 L 972.507812 518.179688 L 1072.570312 429.914062 Z M 943.640625 283.757812 "/></clipPath><clipPath xml:id="clip43" id="clip43"><path d="M 949 436 L 998 436 L 998 467 L 949 467 Z M 949 436 "/></clipPath><clipPath xml:id="clip44" id="clip44"><path d="M 843.730469 371.894531 L 943.789062 283.625 L 1072.71875 429.78125 L 972.660156 518.050781 Z M 843.730469 371.894531 "/></clipPath><clipPath xml:id="clip45" id="clip45"><path d="M 943.640625 283.757812 L 843.578125 372.023438 L 972.507812 518.179688 L 1072.570312 429.914062 Z M 943.640625 283.757812 "/></clipPath><clipPath xml:id="clip46" id="clip46"><path d="M 920 391 L 938 391 L 938 410 L 920 410 Z M 920 391 "/></clipPath><clipPath xml:id="clip47" id="clip47"><path d="M 843.730469 371.894531 L 943.789062 283.625 L 1072.71875 429.78125 L 972.660156 518.050781 Z M 843.730469 371.894531 "/></clipPath><clipPath xml:id="clip48" id="clip48"><path d="M 943.640625 283.757812 L 843.578125 372.023438 L 972.507812 518.179688 L 1072.570312 429.914062 Z M 943.640625 283.757812 "/></clipPath></defs><g xml:id="surface1" id="surface1"><g clip-rule="nonzero" clip-path="url(#clip1)"><g clip-rule="nonzero" clip-path="url(#clip2)"><g clip-rule="nonzero" clip-path="url(#clip3)"><path style=" stroke:none;fill-rule:nonzero;fill:rgb(0%,50.19989%,21.569824%);fill-opacity:1;" d="M 5.207031 486.410156 C 23.988281 482.003906 43.710938 482.035156 61.726562 473.386719 C 74.136719 467.429688 90.179688 457.257812 90.8125 442.199219 C 91.398438 428.195312 82.253906 418.972656 68.410156 419.132812 C 52.699219 419.3125 38.152344 432.84375 27.128906 443.128906 C 21.222656 448.652344 -6.046875 481.933594 1.082031 487.757812 C 1.828125 487.21875 2.300781 487.347656 5.207031 486.410156 Z M 5.207031 486.410156 "/></g></g></g><g clip-rule="nonzero" clip-path="url(#clip4)"><g clip-rule="nonzero" clip-path="url(#clip5)"><g clip-rule="nonzero" clip-path="url(#clip6)"><path style=" stroke:none;fill-rule:nonzero;fill:rgb(99.21875%,95.289612%,92.158508%);fill-opacity:1;" d="M 26.109375 430.964844 C 33.59375 420.175781 44.863281 411.765625 53.453125 401.824219 C 61.671875 392.304688 70.21875 383.125 77.679688 372.824219 C 85.992188 361.347656 95.015625 340.277344 90.523438 325.765625 C 84.386719 305.949219 58.257812 302.621094 45.375 316.800781 C 28.398438 335.488281 27.457031 362.835938 24.914062 386.707031 C 23.300781 401.855469 19.480469 418.480469 21.90625 433.773438 C 23.425781 433.964844 24.441406 433.457031 26.109375 430.964844 Z M 26.109375 430.964844 "/></g></g></g><g clip-rule="nonzero" clip-path="url(#clip7)"><g clip-rule="nonzero" clip-path="url(#clip8)"><g clip-rule="nonzero" clip-path="url(#clip9)"><path style=" stroke:none;fill-rule:nonzero;fill:rgb(1.179504%,59.609985%,61.959839%);fill-opacity:1;" d="M 21.398438 434.621094 C 27.628906 427.519531 29.984375 413.859375 33.507812 404.839844 C 36.671875 396.433594 38.75 387.761719 39.738281 378.828125 C 41.171875 367.539062 43.070312 347.527344 30.097656 341.527344 C 16.277344 335.132812 9.707031 355.710938 8.976562 365.546875 C 8.578125 371.625 8.800781 377.679688 9.648438 383.714844 C 10.496094 389.746094 11.953125 395.632812 14.011719 401.367188 C 17.503906 411.519531 20.640625 421.640625 21.398438 434.621094 Z M 21.398438 434.621094 "/></g></g></g><g clip-rule="nonzero" clip-path="url(#clip10)"><g clip-rule="nonzero" clip-path="url(#clip11)"><g clip-rule="nonzero" clip-path="url(#clip12)"><path style=" stroke:none;fill-rule:nonzero;fill:rgb(99.21875%,95.289612%,92.158508%);fill-opacity:1;" d="M 13.78125 469.976562 C 18.71875 462.625 33.851562 462.277344 41.488281 459.21875 C 47.601562 456.773438 56.457031 451.472656 59.617188 445.402344 C 63.140625 438.640625 54.964844 436.523438 49.738281 437.28125 C 41.09375 438.535156 35.800781 446.09375 29.425781 451.585938 C 23.109375 456.777344 17.894531 462.90625 13.78125 469.976562 Z M 13.78125 469.976562 "/></g></g></g><g clip-rule="nonzero" clip-path="url(#clip13)"><g clip-rule="nonzero" clip-path="url(#clip14)"><g clip-rule="nonzero" clip-path="url(#clip15)"><path style=" stroke:none;fill-rule:nonzero;fill:rgb(1.179504%,59.609985%,61.959839%);fill-opacity:1;" d="M 83.53125 393.09375 C 91.296875 397.925781 84.027344 408.628906 76.828125 408.164062 C 68.722656 407.640625 68.5625 397.707031 72.570312 392.484375 C 75.011719 389.304688 79.230469 388.820312 83.53125 393.09375 Z M 83.53125 393.09375 "/></g></g></g><g clip-rule="nonzero" clip-path="url(#clip16)"><g clip-rule="nonzero" clip-path="url(#clip17)"><g clip-rule="nonzero" clip-path="url(#clip18)"><path style=" stroke:none;fill-rule:nonzero;fill:rgb(0%,50.19989%,21.569824%);fill-opacity:1;" d="M 849.355469 85.507812 C 848.90625 88.4375 849.265625 91.261719 850.433594 93.984375 C 851.285156 95.917969 852.273438 97.78125 853.398438 99.570312 C 855.976562 104.003906 859.949219 105.945312 864.992188 105.941406 C 872.273438 105.933594 879.207031 104.089844 886.03125 101.832031 C 889.632812 100.644531 893.109375 99.074219 896.636719 97.671875 C 900.167969 96.265625 903.664062 94.792969 907.234375 93.484375 C 911.390625 91.957031 915.25 89.679688 919.59375 88.617188 C 920.425781 88.398438 921.152344 87.988281 921.769531 87.390625 C 923.035156 86.234375 924.476562 85.382812 926.097656 84.835938 C 926.882812 84.515625 927.613281 84.097656 928.289062 83.585938 C 932.398438 80.628906 936.5 77.65625 940.585938 74.664062 C 941.441406 74.042969 942.25 73.347656 943.152344 72.808594 C 947.4375 70.085938 951.550781 67.128906 955.492188 63.929688 C 958.445312 61.859375 961.085938 59.445312 963.417969 56.691406 C 964.6875 55.273438 966.074219 53.980469 967.578125 52.808594 C 970.878906 49.839844 974.289062 46.992188 977.46875 43.898438 C 979.570312 41.855469 981.0625 39.097656 983.355469 37.347656 C 985.6875 35.535156 987.859375 33.546875 989.871094 31.382812 C 992.191406 28.933594 994.261719 26.21875 996.75 23.957031 C 999.265625 21.667969 1001.25 18.941406 1003.605469 16.53125 C 1005.960938 14.121094 1007.199219 10.851562 1009.570312 8.441406 C 1009.941406 8.0625 1009.695312 6.839844 1009.269531 6.722656 C 1008.878906 6.621094 1008.375 6.449219 1008.0625 6.601562 C 1004.675781 8.308594 1001.257812 9.972656 997.96875 11.847656 C 994.078125 13.984375 990.3125 16.324219 986.671875 18.859375 C 984.925781 20.054688 983.078125 21.074219 981.136719 21.917969 C 979.207031 22.796875 977.402344 23.875 975.722656 25.164062 C 972.320312 27.714844 968.632812 29.746094 964.660156 31.261719 C 958.398438 33.769531 952.078125 36.140625 945.707031 38.378906 C 938.742188 40.828125 931.835938 43.453125 924.5625 44.96875 C 920.023438 45.917969 915.597656 47.421875 911.082031 48.515625 C 906.363281 49.660156 901.632812 50.761719 896.855469 51.609375 C 889.378906 53.082031 882.09375 55.207031 874.996094 57.992188 C 874.203125 58.273438 873.441406 58.621094 872.707031 59.035156 C 869.78125 60.734375 866.886719 62.476562 863.980469 64.199219 C 861.046875 65.9375 858.445312 68.078125 856.171875 70.621094 C 852.460938 74.78125 849.730469 79.503906 849.355469 85.507812 Z M 849.355469 85.507812 "/></g></g></g><g clip-rule="nonzero" clip-path="url(#clip19)"><g clip-rule="nonzero" clip-path="url(#clip20)"><g clip-rule="nonzero" clip-path="url(#clip21)"><path style=" stroke:none;fill-rule:nonzero;fill:rgb(99.21875%,95.289612%,92.158508%);fill-opacity:1;" d="M 999.871094 130.40625 C 1000.058594 121.140625 1000.046875 114.222656 998.902344 107.285156 C 996.890625 95.796875 996.289062 84.234375 997.105469 72.601562 C 997.296875 70.074219 997.425781 67.542969 997.511719 65.015625 C 997.46875 64.386719 997.328125 63.78125 997.085938 63.203125 C 996.917969 63.0625 996.730469 63.023438 996.523438 63.082031 C 996.019531 63.414062 995.597656 63.828125 995.261719 64.332031 C 992.273438 70.386719 989.078125 76.335938 985.578125 82.109375 C 981.933594 88.296875 978.757812 94.71875 976.050781 101.371094 C 974.984375 103.894531 973.820312 106.386719 972.566406 108.820312 C 969.5625 114.746094 967.972656 121.03125 967.789062 127.675781 C 967.757812 129.578125 967.972656 131.457031 968.429688 133.308594 C 969.554688 138.496094 972.546875 142.523438 976.1875 146.121094 C 977.390625 147.328125 978.753906 148.316406 980.277344 149.082031 C 981.800781 149.847656 983.40625 150.355469 985.09375 150.601562 C 986.148438 150.785156 987.179688 150.695312 988.1875 150.328125 C 989.992188 149.65625 991.597656 148.664062 993.007812 147.351562 C 994.414062 146.042969 995.519531 144.511719 996.320312 142.761719 C 998.339844 138.078125 999.929688 133.289062 999.871094 130.40625 Z M 999.871094 130.40625 "/></g></g></g><g clip-rule="nonzero" clip-path="url(#clip22)"><g clip-rule="nonzero" clip-path="url(#clip23)"><g clip-rule="nonzero" clip-path="url(#clip24)"><path style=" stroke:none;fill-rule:nonzero;fill:rgb(1.179504%,59.609985%,61.959839%);fill-opacity:1;" d="M 899.167969 160.421875 C 900.449219 160.378906 901.292969 160.296875 902.132812 160.332031 C 904.46875 160.421875 906.753906 160.125 908.984375 159.429688 C 911.21875 158.734375 913.269531 157.691406 915.140625 156.289062 C 919.109375 153.4375 922.492188 150.003906 925.285156 145.996094 C 928.421875 141.757812 931.171875 137.285156 933.539062 132.574219 C 934.535156 130.484375 935.660156 128.460938 936.6875 126.386719 C 939.714844 120.117188 942.136719 113.621094 943.949219 106.898438 C 944.058594 106.488281 944.113281 106.074219 944.117188 105.652344 C 944.121094 105.464844 944.007812 105.152344 943.878906 105.109375 C 943.523438 104.988281 943.019531 104.800781 942.769531 104.960938 C 937.226562 108.386719 932.074219 112.40625 926.421875 115.679688 C 924.96875 116.519531 923.636719 117.566406 922.179688 118.40625 C 917.054688 121.371094 912.902344 125.660156 907.972656 128.898438 C 907.496094 129.316406 907.066406 129.777344 906.6875 130.285156 C 901.214844 136.195312 896.699219 142.761719 893.136719 149.980469 C 892.640625 150.914062 892.238281 151.882812 891.925781 152.890625 C 891.707031 153.703125 891.585938 154.53125 891.566406 155.371094 C 891.523438 155.851562 891.566406 156.320312 891.695312 156.78125 C 891.820312 157.242188 892.027344 157.667969 892.308594 158.054688 C 892.59375 158.441406 892.933594 158.769531 893.332031 159.03125 C 893.734375 159.296875 894.167969 159.480469 894.632812 159.585938 C 896.261719 159.992188 897.9375 160.203125 899.167969 160.421875 Z M 899.167969 160.421875 "/></g></g></g><g clip-rule="nonzero" clip-path="url(#clip25)"><g clip-rule="nonzero" clip-path="url(#clip26)"><g clip-rule="nonzero" clip-path="url(#clip27)"><path style=" stroke:none;fill-rule:nonzero;fill:rgb(0%,50.19989%,21.569824%);fill-opacity:1;" d="M 156.40625 91.394531 C 156.6875 94.34375 156.167969 97.144531 154.847656 99.792969 C 153.886719 101.675781 152.796875 103.480469 151.574219 105.203125 C 148.746094 109.484375 144.671875 111.195312 139.636719 110.90625 C 132.367188 110.488281 125.550781 108.257812 118.863281 105.617188 C 115.335938 104.226562 111.953125 102.464844 108.507812 100.863281 C 105.066406 99.261719 101.65625 97.589844 98.164062 96.082031 C 94.101562 94.324219 90.382812 91.832031 86.101562 90.527344 C 85.285156 90.257812 84.585938 89.808594 84 89.175781 C 82.804688 87.953125 81.410156 87.019531 79.820312 86.382812 C 79.058594 86.015625 78.351562 85.558594 77.707031 85.007812 C 73.769531 81.824219 69.84375 78.625 65.933594 75.40625 C 65.113281 74.738281 64.347656 74 63.476562 73.40625 C 59.351562 70.449219 55.414062 67.261719 51.660156 63.84375 C 48.828125 61.609375 46.328125 59.050781 44.15625 56.171875 C 42.964844 54.683594 41.65625 53.3125 40.222656 52.058594 C 37.09375 48.910156 33.847656 45.871094 30.851562 42.605469 C 28.871094 40.445312 27.535156 37.605469 25.34375 35.730469 C 23.117188 33.789062 21.0625 31.683594 19.175781 29.40625 C 16.996094 26.828125 15.085938 24 12.730469 21.601562 C 10.34375 19.175781 8.519531 16.34375 6.304688 13.804688 C 4.089844 11.265625 3.035156 7.929688 0.804688 5.386719 C 0.457031 4.988281 0.773438 3.78125 1.203125 3.691406 C 1.597656 3.609375 2.113281 3.464844 2.414062 3.636719 C 5.699219 5.53125 9.019531 7.386719 12.195312 9.445312 C 15.957031 11.796875 19.585938 14.34375 23.078125 17.085938 C 24.753906 18.378906 26.539062 19.5 28.429688 20.453125 C 30.304688 21.4375 32.046875 22.617188 33.65625 23.996094 C 36.90625 26.738281 40.472656 28.976562 44.351562 30.710938 C 50.464844 33.570312 56.636719 36.296875 62.871094 38.890625 C 69.6875 41.730469 76.433594 44.742188 83.613281 46.667969 C 88.089844 47.871094 92.421875 49.621094 96.867188 50.96875 C 101.515625 52.375 106.175781 53.746094 110.898438 54.863281 C 118.28125 56.753906 125.433594 59.289062 132.359375 62.472656 C 133.136719 62.796875 133.878906 63.1875 134.589844 63.640625 C 137.414062 65.503906 140.203125 67.410156 143.007812 69.292969 C 145.839844 71.191406 148.316406 73.476562 150.441406 76.144531 C 153.910156 80.507812 156.371094 85.378906 156.40625 91.394531 Z M 156.40625 91.394531 "/></g></g></g><g clip-rule="nonzero" clip-path="url(#clip28)"><g clip-rule="nonzero" clip-path="url(#clip29)"><g clip-rule="nonzero" clip-path="url(#clip30)"><path style=" stroke:none;fill-rule:nonzero;fill:rgb(99.21875%,95.289612%,92.158508%);fill-opacity:1;" d="M 3.589844 127.707031 C 3.929688 118.445312 4.328125 111.539062 5.867188 104.679688 C 8.523438 93.320312 9.777344 81.8125 9.621094 70.148438 C 9.574219 67.617188 9.585938 65.082031 9.648438 62.550781 C 9.722656 61.925781 9.898438 61.332031 10.175781 60.769531 C 10.347656 60.640625 10.535156 60.609375 10.738281 60.679688 C 11.226562 61.039062 11.621094 61.476562 11.929688 61.996094 C 14.570312 68.214844 17.421875 74.332031 20.59375 80.296875 C 23.882812 86.679688 26.6875 93.269531 29.015625 100.066406 C 29.9375 102.644531 30.960938 105.195312 32.074219 107.699219 C 34.734375 113.785156 35.96875 120.152344 35.777344 126.792969 C 35.699219 128.695312 35.378906 130.558594 34.816406 132.378906 C 33.398438 137.5 30.183594 141.347656 26.347656 144.734375 C 25.078125 145.875 23.660156 146.78125 22.09375 147.460938 C 20.53125 148.140625 18.898438 148.554688 17.199219 148.703125 C 16.136719 148.828125 15.113281 148.679688 14.128906 148.257812 C 12.367188 147.484375 10.820312 146.402344 9.484375 145.011719 C 8.152344 143.625 7.136719 142.035156 6.4375 140.242188 C 4.6875 135.453125 3.367188 130.582031 3.589844 127.707031 Z M 3.589844 127.707031 "/></g></g></g><g clip-rule="nonzero" clip-path="url(#clip31)"><g clip-rule="nonzero" clip-path="url(#clip32)"><g clip-rule="nonzero" clip-path="url(#clip33)"><path style=" stroke:none;fill-rule:nonzero;fill:rgb(1.179504%,59.609985%,61.959839%);fill-opacity:1;" d="M 102.4375 163.371094 C 101.15625 163.253906 100.320312 163.121094 99.480469 163.109375 C 97.140625 163.070312 94.878906 162.640625 92.691406 161.824219 C 90.5 161.003906 88.511719 159.84375 86.722656 158.339844 C 82.917969 155.269531 79.738281 151.652344 77.171875 147.488281 C 74.285156 143.078125 71.789062 138.457031 69.691406 133.621094 C 68.820312 131.480469 67.808594 129.394531 66.898438 127.269531 C 64.234375 120.835938 62.183594 114.210938 60.75 107.398438 C 60.667969 106.984375 60.636719 106.566406 60.65625 106.144531 C 60.660156 105.957031 60.792969 105.652344 60.925781 105.613281 C 61.285156 105.515625 61.800781 105.355469 62.042969 105.53125 C 67.378906 109.265625 72.296875 113.570312 77.753906 117.15625 C 79.15625 118.078125 80.429688 119.199219 81.835938 120.117188 C 86.785156 123.367188 90.691406 127.882812 95.429688 131.398438 C 95.878906 131.84375 96.28125 132.328125 96.632812 132.855469 C 101.761719 139.066406 105.898438 145.875 109.046875 153.285156 C 109.488281 154.246094 109.835938 155.234375 110.09375 156.261719 C 110.261719 157.085938 110.335938 157.917969 110.3125 158.757812 C 110.324219 159.238281 110.257812 159.703125 110.101562 160.15625 C 109.949219 160.609375 109.71875 161.023438 109.414062 161.394531 C 109.113281 161.765625 108.753906 162.070312 108.339844 162.3125 C 107.925781 162.550781 107.480469 162.710938 107.007812 162.792969 C 105.359375 163.105469 103.675781 163.222656 102.4375 163.371094 Z M 102.4375 163.371094 "/></g></g></g><g clip-rule="nonzero" clip-path="url(#clip34)"><g clip-rule="nonzero" clip-path="url(#clip35)"><g clip-rule="nonzero" clip-path="url(#clip36)"><path style=" stroke:none;fill-rule:nonzero;fill:rgb(0%,50.19989%,21.569824%);fill-opacity:1;" d="M 1007.5 482.585938 C 988.464844 479.445312 968.792969 480.792969 950.238281 473.371094 C 937.457031 468.257812 920.769531 459.175781 919.132812 444.195312 C 917.613281 430.261719 926.117188 420.449219 939.941406 419.683594 C 955.632812 418.816406 971.050781 431.339844 982.734375 440.871094 C 988.996094 445.984375 1018.433594 477.367188 1011.707031 483.65625 C 1010.925781 483.167969 1010.464844 483.328125 1007.5 482.585938 Z M 1007.5 482.585938 "/></g></g></g><g clip-rule="nonzero" clip-path="url(#clip37)"><g clip-rule="nonzero" clip-path="url(#clip38)"><g clip-rule="nonzero" clip-path="url(#clip39)"><path style=" stroke:none;fill-rule:nonzero;fill:rgb(99.21875%,95.289612%,92.158508%);fill-opacity:1;" d="M 982.9375 428.664062 C 974.75 418.398438 962.941406 410.757812 953.707031 401.414062 C 944.875 392.46875 935.734375 383.875 927.601562 374.097656 C 918.539062 363.203125 908.125 342.78125 911.640625 328.003906 C 916.4375 307.820312 942.285156 302.753906 956.085938 316.042969 C 974.277344 333.550781 977.042969 360.777344 981.175781 384.425781 C 983.796875 399.429688 988.722656 415.761719 987.320312 431.183594 C 985.816406 431.476562 984.773438 431.039062 982.9375 428.664062 Z M 982.9375 428.664062 "/></g></g></g><g clip-rule="nonzero" clip-path="url(#clip40)"><g clip-rule="nonzero" clip-path="url(#clip41)"><g clip-rule="nonzero" clip-path="url(#clip42)"><path style=" stroke:none;fill-rule:nonzero;fill:rgb(1.179504%,59.609985%,61.959839%);fill-opacity:1;" d="M 987.886719 431.996094 C 981.195312 425.328125 977.929688 411.855469 973.8125 403.089844 C 970.09375 394.914062 967.441406 386.402344 965.859375 377.554688 C 963.671875 366.386719 960.441406 346.542969 972.984375 339.691406 C 986.34375 332.386719 994.277344 352.480469 995.660156 362.246094 C 996.46875 368.28125 996.648438 374.339844 996.207031 380.417969 C 995.761719 386.492188 994.703125 392.460938 993.03125 398.320312 C 990.226562 408.683594 987.773438 418.996094 987.886719 431.996094 Z M 987.886719 431.996094 "/></g></g></g><g clip-rule="nonzero" clip-path="url(#clip43)"><g clip-rule="nonzero" clip-path="url(#clip44)"><g clip-rule="nonzero" clip-path="url(#clip45)"><path style=" stroke:none;fill-rule:nonzero;fill:rgb(99.21875%,95.289612%,92.158508%);fill-opacity:1;" d="M 997.847656 466.761719 C 992.429688 459.757812 977.308594 460.421875 969.484375 457.882812 C 963.222656 455.851562 954.03125 451.152344 950.472656 445.308594 C 946.503906 438.792969 954.519531 436.136719 959.785156 436.542969 C 968.496094 437.21875 974.28125 444.40625 981.007812 449.457031 C 987.660156 454.214844 993.273438 459.984375 997.847656 466.761719 Z M 997.847656 466.761719 "/></g></g></g><g clip-rule="nonzero" clip-path="url(#clip46)"><g clip-rule="nonzero" clip-path="url(#clip47)"><g clip-rule="nonzero" clip-path="url(#clip48)"><path style=" stroke:none;fill-rule:nonzero;fill:rgb(1.179504%,59.609985%,61.959839%);fill-opacity:1;" d="M 923.117188 394.710938 C 915.691406 400.054688 923.65625 410.246094 930.8125 409.300781 C 938.863281 408.238281 938.359375 398.316406 934.007812 393.371094 C 931.359375 390.363281 927.117188 390.160156 923.117188 394.710938 Z M 923.117188 394.710938 "/></g></g></g></g></svg>