<?xml version="1.0" encoding="UTF-8"?><svg xmlns="http://www.w3.org/2000/svg" xmlns:xlink="http://www.w3.org/1999/xlink" width="1012.5pt" zoomAndPan="magnify" viewBox="0 0 1012.5 487.499991" height="487.499991pt" preserveAspectRatio="xMidYMid meet" version="1.2"><defs><clipPath xml:id="clip1" id="clip1"><path d="M 24 412 L 180 412 L 180 461 L 24 461 Z M 24 412 "/></clipPath><clipPath xml:id="clip2" id="clip2"><path d="M 152.683594 322.226562 L 185.707031 466.15625 L 33.011719 501.195312 L -0.015625 357.261719 Z M 152.683594 322.226562 "/></clipPath><clipPath xml:id="clip3" id="clip3"><path d="M 152.683594 322.226562 L 185.707031 466.15625 L 33.011719 501.195312 L -0.015625 357.261719 Z M 152.683594 322.226562 "/></clipPath><clipPath xml:id="clip4" id="clip4"><path d="M 33 341 L 83 341 L 83 437 L 33 437 Z M 33 341 "/></clipPath><clipPath xml:id="clip5" id="clip5"><path d="M 152.683594 322.226562 L 185.707031 466.15625 L 33.011719 501.195312 L -0.015625 357.261719 Z M 152.683594 322.226562 "/></clipPath><clipPath xml:id="clip6" id="clip6"><path d="M 152.683594 322.226562 L 185.707031 466.15625 L 33.011719 501.195312 L -0.015625 357.261719 Z M 152.683594 322.226562 "/></clipPath><clipPath xml:id="clip7" id="clip7"><path d="M 75 372 L 135 372 L 135 413 L 75 413 Z M 75 372 "/></clipPath><clipPath xml:id="clip8" id="clip8"><path d="M 152.683594 322.226562 L 185.707031 466.15625 L 33.011719 501.195312 L -0.015625 357.261719 Z M 152.683594 322.226562 "/></clipPath><clipPath xml:id="clip9" id="clip9"><path d="M 152.683594 322.226562 L 185.707031 466.15625 L 33.011719 501.195312 L -0.015625 357.261719 Z M 152.683594 322.226562 "/></clipPath><clipPath xml:id="clip10" id="clip10"><path d="M 9 390 L 25 390 L 25 428 L 9 428 Z M 9 390 "/></clipPath><clipPath xml:id="clip11" id="clip11"><path d="M 152.683594 322.226562 L 185.707031 466.15625 L 33.011719 501.195312 L -0.015625 357.261719 Z M 152.683594 322.226562 "/></clipPath><clipPath xml:id="clip12" id="clip12"><path d="M 152.683594 322.226562 L 185.707031 466.15625 L 33.011719 501.195312 L -0.015625 357.261719 Z M 152.683594 322.226562 "/></clipPath><clipPath xml:id="clip13" id="clip13"><path d="M 41 458 L 90 458 L 90 476 L 41 476 Z M 41 458 "/></clipPath><clipPath xml:id="clip14" id="clip14"><path d="M 152.683594 322.226562 L 185.707031 466.15625 L 33.011719 501.195312 L -0.015625 357.261719 Z M 152.683594 322.226562 "/></clipPath><clipPath xml:id="clip15" id="clip15"><path d="M 152.683594 322.226562 L 185.707031 466.15625 L 33.011719 501.195312 L -0.015625 357.261719 Z M 152.683594 322.226562 "/></clipPath><clipPath xml:id="clip16" id="clip16"><path d="M 99 468 L 117 468 L 117 485 L 99 485 Z M 99 468 "/></clipPath><clipPath xml:id="clip17" id="clip17"><path d="M 152.683594 322.226562 L 185.707031 466.15625 L 33.011719 501.195312 L -0.015625 357.261719 Z M 152.683594 322.226562 "/></clipPath><clipPath xml:id="clip18" id="clip18"><path d="M 152.683594 322.226562 L 185.707031 466.15625 L 33.011719 501.195312 L -0.015625 357.261719 Z M 152.683594 322.226562 "/></clipPath><clipPath xml:id="clip19" id="clip19"><path d="M 25 368 L 35 368 L 35 381 L 25 381 Z M 25 368 "/></clipPath><clipPath xml:id="clip20" id="clip20"><path d="M 152.683594 322.226562 L 185.707031 466.15625 L 33.011719 501.195312 L -0.015625 357.261719 Z M 152.683594 322.226562 "/></clipPath><clipPath xml:id="clip21" id="clip21"><path d="M 152.683594 322.226562 L 185.707031 466.15625 L 33.011719 501.195312 L -0.015625 357.261719 Z M 152.683594 322.226562 "/></clipPath><clipPath xml:id="clip22" id="clip22"><path d="M 142 391 L 154 391 L 154 404 L 142 404 Z M 142 391 "/></clipPath><clipPath xml:id="clip23" id="clip23"><path d="M 152.683594 322.226562 L 185.707031 466.15625 L 33.011719 501.195312 L -0.015625 357.261719 Z M 152.683594 322.226562 "/></clipPath><clipPath xml:id="clip24" id="clip24"><path d="M 152.683594 322.226562 L 185.707031 466.15625 L 33.011719 501.195312 L -0.015625 357.261719 Z M 152.683594 322.226562 "/></clipPath><clipPath xml:id="clip25" id="clip25"><path d="M 839 412 L 995 412 L 995 461 L 839 461 Z M 839 412 "/></clipPath><clipPath xml:id="clip26" id="clip26"><path d="M 833.566406 466.277344 L 866.8125 322.398438 L 1019.457031 357.667969 L 986.210938 501.550781 Z M 833.566406 466.277344 "/></clipPath><clipPath xml:id="clip27" id="clip27"><path d="M 866.851562 322.226562 L 833.605469 466.105469 L 986.25 501.378906 L 1019.496094 357.496094 Z M 866.851562 322.226562 "/></clipPath><clipPath xml:id="clip28" id="clip28"><path d="M 937 341 L 987 341 L 987 437 L 937 437 Z M 937 341 "/></clipPath><clipPath xml:id="clip29" id="clip29"><path d="M 833.566406 466.277344 L 866.8125 322.398438 L 1019.457031 357.667969 L 986.210938 501.550781 Z M 833.566406 466.277344 "/></clipPath><clipPath xml:id="clip30" id="clip30"><path d="M 866.851562 322.226562 L 833.605469 466.105469 L 986.25 501.378906 L 1019.496094 357.496094 Z M 866.851562 322.226562 "/></clipPath><clipPath xml:id="clip31" id="clip31"><path d="M 884 372 L 945 372 L 945 413 L 884 413 Z M 884 372 "/></clipPath><clipPath xml:id="clip32" id="clip32"><path d="M 833.566406 466.277344 L 866.8125 322.398438 L 1019.457031 357.667969 L 986.210938 501.550781 Z M 833.566406 466.277344 "/></clipPath><clipPath xml:id="clip33" id="clip33"><path d="M 866.851562 322.226562 L 833.605469 466.105469 L 986.25 501.378906 L 1019.496094 357.496094 Z M 866.851562 322.226562 "/></clipPath><clipPath xml:id="clip34" id="clip34"><path d="M 994 390 L 1010 390 L 1010 428 L 994 428 Z M 994 390 "/></clipPath><clipPath xml:id="clip35" id="clip35"><path d="M 833.566406 466.277344 L 866.8125 322.398438 L 1019.457031 357.667969 L 986.210938 501.550781 Z M 833.566406 466.277344 "/></clipPath><clipPath xml:id="clip36" id="clip36"><path d="M 866.851562 322.226562 L 833.605469 466.105469 L 986.25 501.378906 L 1019.496094 357.496094 Z M 866.851562 322.226562 "/></clipPath><clipPath xml:id="clip37" id="clip37"><path d="M 930 458 L 978 458 L 978 476 L 930 476 Z M 930 458 "/></clipPath><clipPath xml:id="clip38" id="clip38"><path d="M 833.566406 466.277344 L 866.8125 322.398438 L 1019.457031 357.667969 L 986.210938 501.550781 Z M 833.566406 466.277344 "/></clipPath><clipPath xml:id="clip39" id="clip39"><path d="M 866.851562 322.226562 L 833.605469 466.105469 L 986.25 501.378906 L 1019.496094 357.496094 Z M 866.851562 322.226562 "/></clipPath><clipPath xml:id="clip40" id="clip40"><path d="M 903 468 L 920 468 L 920 485 L 903 485 Z M 903 468 "/></clipPath><clipPath xml:id="clip41" id="clip41"><path d="M 833.566406 466.277344 L 866.8125 322.398438 L 1019.457031 357.667969 L 986.210938 501.550781 Z M 833.566406 466.277344 "/></clipPath><clipPath xml:id="clip42" id="clip42"><path d="M 866.851562 322.226562 L 833.605469 466.105469 L 986.25 501.378906 L 1019.496094 357.496094 Z M 866.851562 322.226562 "/></clipPath><clipPath xml:id="clip43" id="clip43"><path d="M 984 368 L 995 368 L 995 381 L 984 381 Z M 984 368 "/></clipPath><clipPath xml:id="clip44" id="clip44"><path d="M 833.566406 466.277344 L 866.8125 322.398438 L 1019.457031 357.667969 L 986.210938 501.550781 Z M 833.566406 466.277344 "/></clipPath><clipPath xml:id="clip45" id="clip45"><path d="M 866.851562 322.226562 L 833.605469 466.105469 L 986.25 501.378906 L 1019.496094 357.496094 Z M 866.851562 322.226562 "/></clipPath><clipPath xml:id="clip46" id="clip46"><path d="M 865 391 L 877 391 L 877 404 L 865 404 Z M 865 391 "/></clipPath><clipPath xml:id="clip47" id="clip47"><path d="M 833.566406 466.277344 L 866.8125 322.398438 L 1019.457031 357.667969 L 986.210938 501.550781 Z M 833.566406 466.277344 "/></clipPath><clipPath xml:id="clip48" id="clip48"><path d="M 866.851562 322.226562 L 833.605469 466.105469 L 986.25 501.378906 L 1019.496094 357.496094 Z M 866.851562 322.226562 "/></clipPath><clipPath xml:id="clip49" id="clip49"><path d="M 54 68 L 94 68 L 94 141.675781 L 54 141.675781 Z M 54 68 "/></clipPath><clipPath xml:id="clip50" id="clip50"><path d="M 918 68 L 959 68 L 959 141.675781 L 918 141.675781 Z M 918 68 "/></clipPath><clipPath xml:id="clip51" id="clip51"><path d="M 33 140 L 83 140 L 83 190 L 33 190 Z M 33 140 "/></clipPath><clipPath xml:id="clip52" id="clip52"><path d="M 115.972656 185.90625 L 49.144531 264.871094 L -48.699219 182.0625 L 18.128906 103.101562 Z M 115.972656 185.90625 "/></clipPath><clipPath xml:id="clip53" id="clip53"><path d="M 115.972656 185.90625 L 49.144531 264.871094 L -48.699219 182.0625 L 18.128906 103.101562 Z M 115.972656 185.90625 "/></clipPath><clipPath xml:id="clip54" id="clip54"><path d="M 14 103 L 68 103 L 68 199 L 14 199 Z M 14 103 "/></clipPath><clipPath xml:id="clip55" id="clip55"><path d="M 115.972656 185.90625 L 49.144531 264.871094 L -48.699219 182.0625 L 18.128906 103.101562 Z M 115.972656 185.90625 "/></clipPath><clipPath xml:id="clip56" id="clip56"><path d="M 115.972656 185.90625 L 49.144531 264.871094 L -48.699219 182.0625 L 18.128906 103.101562 Z M 115.972656 185.90625 "/></clipPath><clipPath xml:id="clip57" id="clip57"><path d="M 3 173 L 46 173 L 46 240 L 3 240 Z M 3 173 "/></clipPath><clipPath xml:id="clip58" id="clip58"><path d="M 115.972656 185.90625 L 49.144531 264.871094 L -48.699219 182.0625 L 18.128906 103.101562 Z M 115.972656 185.90625 "/></clipPath><clipPath xml:id="clip59" id="clip59"><path d="M 115.972656 185.90625 L 49.144531 264.871094 L -48.699219 182.0625 L 18.128906 103.101562 Z M 115.972656 185.90625 "/></clipPath><clipPath xml:id="clip60" id="clip60"><path d="M 63 202 L 85 202 L 85 227 L 63 227 Z M 63 202 "/></clipPath><clipPath xml:id="clip61" id="clip61"><path d="M 115.972656 185.90625 L 49.144531 264.871094 L -48.699219 182.0625 L 18.128906 103.101562 Z M 115.972656 185.90625 "/></clipPath><clipPath xml:id="clip62" id="clip62"><path d="M 115.972656 185.90625 L 49.144531 264.871094 L -48.699219 182.0625 L 18.128906 103.101562 Z M 115.972656 185.90625 "/></clipPath><clipPath xml:id="clip63" id="clip63"><path d="M 923 140 L 973 140 L 973 189 L 923 189 Z M 923 140 "/></clipPath><clipPath xml:id="clip64" id="clip64"><path d="M 956.25 263.980469 L 889.917969 184.605469 L 987.699219 102.890625 L 1054.035156 182.265625 Z M 956.25 263.980469 "/></clipPath><clipPath xml:id="clip65" id="clip65"><path d="M 890.136719 184.867188 L 956.46875 264.242188 L 1054.25 182.527344 L 987.917969 103.148438 Z M 890.136719 184.867188 "/></clipPath><clipPath xml:id="clip66" id="clip66"><path d="M 938 103 L 992 103 L 992 198 L 938 198 Z M 938 103 "/></clipPath><clipPath xml:id="clip67" id="clip67"><path d="M 956.25 263.980469 L 889.917969 184.605469 L 987.699219 102.890625 L 1054.035156 182.265625 Z M 956.25 263.980469 "/></clipPath><clipPath xml:id="clip68" id="clip68"><path d="M 890.136719 184.867188 L 956.46875 264.242188 L 1054.25 182.527344 L 987.917969 103.148438 Z M 890.136719 184.867188 "/></clipPath><clipPath xml:id="clip69" id="clip69"><path d="M 959 173 L 1002 173 L 1002 239 L 959 239 Z M 959 173 "/></clipPath><clipPath xml:id="clip70" id="clip70"><path d="M 956.25 263.980469 L 889.917969 184.605469 L 987.699219 102.890625 L 1054.035156 182.265625 Z M 956.25 263.980469 "/></clipPath><clipPath xml:id="clip71" id="clip71"><path d="M 890.136719 184.867188 L 956.46875 264.242188 L 1054.25 182.527344 L 987.917969 103.148438 Z M 890.136719 184.867188 "/></clipPath><clipPath xml:id="clip72" id="clip72"><path d="M 921 201 L 943 201 L 943 226 L 921 226 Z M 921 201 "/></clipPath><clipPath xml:id="clip73" id="clip73"><path d="M 956.25 263.980469 L 889.917969 184.605469 L 987.699219 102.890625 L 1054.035156 182.265625 Z M 956.25 263.980469 "/></clipPath><clipPath xml:id="clip74" id="clip74"><path d="M 890.136719 184.867188 L 956.46875 264.242188 L 1054.25 182.527344 L 987.917969 103.148438 Z M 890.136719 184.867188 "/></clipPath></defs><g xml:id="surface1" id="surface1"><g clip-rule="nonzero" clip-path="url(#clip1)"><g clip-rule="nonzero" clip-path="url(#clip2)"><g clip-rule="nonzero" clip-path="url(#clip3)"><path style=" stroke:none;fill-rule:nonzero;fill:rgb(78.819275%,88.62915%,39.608765%);fill-opacity:1;" d="M 133.992188 412.082031 C 132.636719 412.6875 131.21875 413.035156 129.734375 413.128906 C 126.796875 413.285156 123.878906 413.839844 120.941406 413.980469 C 118.386719 414.074219 115.871094 414.457031 113.402344 415.128906 C 111.855469 415.671875 110.269531 415.835938 108.644531 415.617188 C 107.992188 415.496094 107.296875 415.644531 106.632812 415.5625 C 106.167969 415.480469 105.703125 415.5 105.246094 415.625 C 104.785156 415.75 104.378906 415.964844 104.015625 416.277344 C 103.613281 416.644531 103.144531 416.902344 102.617188 417.042969 C 102.085938 417.183594 101.554688 417.195312 101.019531 417.074219 C 100.484375 416.996094 99.964844 417.066406 99.46875 417.285156 C 97.242188 418.203125 95.070312 419.265625 92.59375 419.375 C 92.1875 419.410156 91.8125 419.539062 91.472656 419.769531 C 90.527344 420.28125 89.53125 420.667969 88.492188 420.9375 C 86.601562 421.628906 84.738281 422.398438 82.882812 423.179688 C 81.53125 423.75 80.273438 424.59375 78.738281 424.644531 C 76.636719 425.886719 74.273438 426.390625 71.980469 427.101562 C 71.101562 427.441406 70.265625 427.859375 69.464844 428.359375 C 69.023438 428.664062 68.5625 428.933594 68.082031 429.171875 C 66.566406 429.699219 64.917969 429.953125 63.523438 430.691406 C 62.109375 431.4375 60.855469 432.460938 59.289062 432.957031 C 58.539062 433.242188 57.804688 433.574219 57.09375 433.945312 C 55.027344 434.875 53.292969 436.515625 50.925781 436.820312 C 50.667969 436.902344 50.441406 437.039062 50.246094 437.230469 C 48.324219 438.75 46.046875 439.589844 43.828125 440.519531 C 42.449219 441.054688 41.183594 441.785156 40.035156 442.714844 C 37.863281 444.527344 35.488281 446.027344 32.917969 447.214844 C 30.621094 448.300781 28.445312 449.65625 26.242188 450.933594 C 25.792969 451.226562 25.410156 451.589844 25.089844 452.023438 C 24.949219 452.257812 24.929688 452.503906 25.03125 452.753906 C 25.160156 452.996094 25.359375 453.140625 25.632812 453.179688 C 26.835938 453.15625 28.035156 453.054688 29.226562 452.867188 C 32.65625 452.21875 36.0625 451.453125 39.488281 450.792969 C 43.164062 449.964844 46.886719 449.5625 50.652344 449.582031 C 54.007812 449.777344 57.359375 449.683594 60.699219 449.296875 C 61.234375 449.230469 61.769531 449.246094 62.304688 449.347656 C 64.035156 449.578125 65.773438 449.617188 67.515625 449.464844 C 71.941406 449.289062 76.359375 449.070312 80.773438 449.675781 C 81.976562 449.804688 83.183594 449.855469 84.390625 449.824219 C 88.824219 449.949219 93.230469 450.371094 97.605469 451.085938 C 102.78125 451.800781 107.921875 452.851562 113.074219 453.757812 C 115.324219 454.152344 117.484375 454.953125 119.703125 455.398438 C 123.527344 456.171875 127.253906 457.265625 131.039062 458.171875 C 133.765625 458.878906 136.519531 459.441406 139.308594 459.859375 C 145.023438 460.726562 150.769531 461.089844 156.550781 460.957031 C 160.335938 460.792969 164.03125 460.367188 167.527344 458.804688 C 168.265625 458.476562 169.046875 458.265625 169.800781 457.988281 C 175.023438 456.054688 177.933594 452.070312 179.554688 446.972656 C 179.695312 446.449219 179.726562 445.917969 179.648438 445.382812 C 179.363281 442.722656 179.105469 440.054688 178.699219 437.410156 C 178.46875 435.667969 177.953125 434.011719 177.152344 432.445312 C 176.355469 430.878906 175.316406 429.492188 174.035156 428.28125 C 173.546875 427.824219 173.089844 427.332031 172.585938 426.890625 C 169.664062 424.324219 166.597656 421.945312 163.390625 419.746094 C 161.5 418.441406 159.46875 417.417969 157.296875 416.675781 C 155.265625 415.984375 153.207031 415.359375 151.164062 414.710938 C 150.375 414.539062 149.613281 414.289062 148.878906 413.964844 C 148.039062 413.523438 147.140625 413.300781 146.1875 413.300781 C 142.835938 413.113281 139.488281 412.898438 136.140625 412.707031 C 135.320312 412.679688 134.558594 412.457031 133.855469 412.042969 Z M 133.992188 412.082031 "/></g></g></g><g clip-rule="nonzero" clip-path="url(#clip4)"><g clip-rule="nonzero" clip-path="url(#clip5)"><g clip-rule="nonzero" clip-path="url(#clip6)"><path style=" stroke:none;fill-rule:nonzero;fill:rgb(1.179504%,59.609985%,61.959839%);fill-opacity:1;" d="M 64.246094 344.417969 C 60.207031 346.375 57.472656 350.203125 54.757812 354.054688 C 52.90625 358.066406 51.007812 362.0625 50.082031 366.425781 C 49.832031 367.605469 49.5625 368.777344 49.277344 369.949219 C 48.300781 373.984375 47.257812 378 46.410156 382.066406 C 46.054688 383.765625 45.789062 385.488281 45.507812 387.207031 C 45.289062 388.527344 45.109375 389.855469 44.914062 391.179688 C 44.195312 396.078125 43.09375 400.90625 42.238281 405.785156 C 41.324219 410.9375 40.074219 416.003906 38.484375 420.992188 C 37.117188 425.308594 36.019531 429.78125 33.589844 433.71875 C 33.179688 434.308594 33.066406 434.945312 33.257812 435.632812 C 33.355469 435.941406 33.597656 436.109375 33.882812 435.996094 C 34.261719 435.875 34.601562 435.683594 34.898438 435.421875 C 37.222656 433.003906 39.550781 430.582031 41.816406 428.113281 C 42.628906 427.226562 43.285156 426.199219 44.011719 425.234375 C 45.21875 423.628906 46.363281 421.964844 47.644531 420.417969 C 49.871094 417.734375 52.1875 415.125 54.175781 412.246094 C 54.457031 411.789062 54.800781 411.378906 55.203125 411.015625 C 56.90625 409.652344 58.082031 407.855469 59.371094 406.136719 C 60.734375 404.3125 62.234375 402.589844 63.6875 400.832031 C 64.117188 400.316406 64.640625 399.878906 65.042969 399.351562 C 68.519531 394.75 71.503906 389.8125 74.777344 385.074219 C 74.992188 384.730469 75.167969 384.371094 75.304688 383.988281 C 76.648438 380.773438 77.988281 377.558594 79.320312 374.335938 C 79.679688 373.472656 79.984375 372.582031 80.304688 371.699219 C 81.640625 368.027344 82.707031 364.3125 82.390625 360.335938 C 82.335938 359.398438 82.347656 358.464844 82.425781 357.527344 C 82.621094 354.367188 81.71875 351.441406 80.597656 348.550781 C 79.859375 346.609375 78.636719 345.050781 76.929688 343.871094 C 73.710938 341.621094 70.296875 341.09375 66.695312 342.984375 C 65.980469 343.359375 65.300781 343.796875 64.246094 344.417969 Z M 64.246094 344.417969 "/></g></g></g><g clip-rule="nonzero" clip-path="url(#clip7)"><g clip-rule="nonzero" clip-path="url(#clip8)"><g clip-rule="nonzero" clip-path="url(#clip9)"><path style=" stroke:none;fill-rule:nonzero;fill:rgb(0%,50.19989%,21.569824%);fill-opacity:1;" d="M 123.246094 392.421875 C 124.589844 391.816406 125.882812 391.113281 127.121094 390.3125 C 129.714844 388.339844 131.816406 385.933594 133.421875 383.101562 C 134.195312 381.800781 134.558594 380.390625 134.519531 378.882812 C 134.542969 378.335938 134.449219 377.816406 134.230469 377.316406 C 134.015625 376.816406 133.703125 376.386719 133.289062 376.03125 C 130.480469 373.742188 127.332031 372.4375 123.632812 373.082031 C 120.109375 373.675781 116.722656 374.707031 113.464844 376.171875 C 110.207031 377.636719 107.1875 379.484375 104.410156 381.722656 C 101.417969 383.984375 98.582031 386.421875 95.902344 389.042969 C 93.296875 391.734375 90.398438 394.148438 87.894531 396.925781 C 85.75 399.308594 83.558594 401.65625 81.382812 404.011719 C 79.289062 406.28125 77.699219 408.929688 75.652344 411.222656 C 75.5625 411.324219 75.496094 411.4375 75.453125 411.570312 C 75.382812 411.820312 75.257812 412.277344 75.3125 412.300781 C 75.652344 412.453125 76.09375 412.679688 76.390625 412.570312 C 78.570312 411.90625 80.6875 411.074219 82.738281 410.074219 C 86.382812 408.050781 90.3125 406.695312 94.058594 404.914062 C 98.050781 403.023438 102.207031 401.480469 106.289062 399.777344 C 107.652344 399.210938 108.980469 398.5625 110.367188 398.070312 C 114.816406 396.542969 119.109375 394.660156 123.246094 392.421875 Z M 123.246094 392.421875 "/></g></g></g><g clip-rule="nonzero" clip-path="url(#clip10)"><g clip-rule="nonzero" clip-path="url(#clip11)"><g clip-rule="nonzero" clip-path="url(#clip12)"><path style=" stroke:none;fill-rule:nonzero;fill:rgb(95.289612%,91.369629%,82.348633%);fill-opacity:1;" d="M 23.542969 395.996094 C 21.292969 392.9375 18.753906 390.496094 14.21875 390.769531 C 13.847656 390.769531 13.480469 390.824219 13.125 390.9375 C 12.773438 391.050781 12.441406 391.21875 12.140625 391.4375 C 11.839844 391.65625 11.578125 391.914062 11.359375 392.214844 C 11.136719 392.515625 10.972656 392.84375 10.855469 393.199219 C 9.941406 395.636719 9.699219 398.140625 10.128906 400.707031 C 10.808594 404.140625 11.898438 407.441406 13.390625 410.605469 C 15.824219 415.570312 17.484375 420.78125 18.367188 426.238281 C 18.398438 426.507812 18.484375 426.757812 18.621094 426.988281 C 18.757812 427.21875 18.953125 427.382812 19.203125 427.472656 C 19.46875 427.519531 19.699219 427.449219 19.890625 427.257812 C 20.289062 426.722656 20.597656 426.140625 20.820312 425.515625 C 21.265625 423.972656 21.511719 422.367188 22.015625 420.84375 C 22.769531 418.546875 23.335938 416.207031 23.972656 413.882812 C 24.644531 411.40625 24.941406 408.890625 24.859375 406.328125 C 24.800781 404.050781 24.6875 401.769531 24.425781 399.511719 C 24.21875 398.316406 23.925781 397.148438 23.542969 395.996094 Z M 23.542969 395.996094 "/></g></g></g><g clip-rule="nonzero" clip-path="url(#clip13)"><g clip-rule="nonzero" clip-path="url(#clip14)"><g clip-rule="nonzero" clip-path="url(#clip15)"><path style=" stroke:none;fill-rule:nonzero;fill:rgb(1.179504%,59.609985%,61.959839%);fill-opacity:1;" d="M 84.460938 461.085938 C 82.277344 459.527344 79.851562 458.597656 77.183594 458.296875 C 72.757812 457.988281 68.335938 458.039062 63.914062 458.457031 C 61.773438 458.644531 59.65625 458.992188 57.566406 459.503906 C 52.984375 460.566406 48.625 462.339844 44.234375 463.988281 C 43.371094 464.367188 42.5625 464.839844 41.808594 465.402344 C 41.652344 465.503906 41.59375 465.890625 41.640625 466.113281 C 41.691406 466.335938 41.90625 466.671875 42.09375 466.707031 C 43.277344 466.925781 44.464844 467.101562 45.664062 467.234375 C 49.546875 467.570312 53.371094 468.246094 57.136719 469.253906 C 61.636719 470.585938 66.171875 471.847656 70.53125 473.582031 C 73.214844 474.652344 75.992188 474.941406 78.78125 475.246094 C 81.386719 475.492188 83.871094 475.054688 86.238281 473.933594 C 86.707031 473.734375 87.128906 473.464844 87.511719 473.125 C 87.890625 472.785156 88.207031 472.394531 88.457031 471.953125 C 88.710938 471.511719 88.882812 471.039062 88.980469 470.539062 C 89.074219 470.039062 89.089844 469.539062 89.019531 469.035156 C 88.363281 465.640625 86.929688 462.679688 84.460938 461.085938 Z M 84.460938 461.085938 "/></g></g></g><g clip-rule="nonzero" clip-path="url(#clip16)"><g clip-rule="nonzero" clip-path="url(#clip17)"><g clip-rule="nonzero" clip-path="url(#clip18)"><path style=" stroke:none;fill-rule:nonzero;fill:rgb(95.289612%,91.369629%,82.348633%);fill-opacity:1;" d="M 105.554688 469.390625 C 103.882812 470.621094 102.035156 471.722656 100.644531 473.40625 C 99.921875 474.277344 99.609375 475.277344 99.710938 476.402344 C 99.890625 478.867188 100.484375 481.167969 102.75 482.636719 C 102.863281 482.710938 102.96875 482.792969 103.066406 482.890625 C 103.613281 483.40625 104.246094 483.765625 104.972656 483.972656 C 105.695312 484.179688 106.429688 484.207031 107.167969 484.054688 C 107.832031 483.960938 108.488281 483.820312 109.136719 483.636719 C 110.585938 483.25 111.886719 482.570312 113.035156 481.605469 C 114.183594 480.640625 115.070312 479.476562 115.695312 478.113281 C 115.9375 477.628906 116.082031 477.121094 116.125 476.582031 C 116.265625 474.492188 115.785156 472.582031 114.144531 471.136719 C 113.539062 470.605469 112.898438 470.128906 112.21875 469.699219 C 110.089844 468.355469 107.871094 468.636719 105.554688 469.390625 Z M 105.554688 469.390625 "/></g></g></g><g clip-rule="nonzero" clip-path="url(#clip19)"><g clip-rule="nonzero" clip-path="url(#clip20)"><g clip-rule="nonzero" clip-path="url(#clip21)"><path style=" stroke:none;fill-rule:nonzero;fill:rgb(1.179504%,59.609985%,61.959839%);fill-opacity:1;" d="M 31.53125 379.035156 C 32.042969 378.691406 32.367188 378.464844 32.703125 378.246094 C 33.632812 377.636719 34.238281 376.792969 34.519531 375.71875 C 35.257812 373.25 34.351562 371.277344 32.730469 369.535156 C 32.398438 369.183594 32 368.953125 31.53125 368.839844 C 31.058594 368.730469 30.597656 368.757812 30.144531 368.921875 C 28.546875 369.390625 27.265625 370.300781 26.304688 371.65625 C 25.984375 372.085938 25.75 372.558594 25.605469 373.074219 C 25.167969 374.785156 25.160156 376.496094 25.585938 378.210938 C 25.695312 378.605469 25.890625 378.949219 26.171875 379.242188 C 26.457031 379.535156 26.792969 379.746094 27.183594 379.867188 C 27.960938 380.1875 28.742188 380.203125 29.53125 379.917969 C 30.277344 379.644531 30.992188 379.277344 31.53125 379.035156 Z M 31.53125 379.035156 "/></g></g></g><g clip-rule="nonzero" clip-path="url(#clip22)"><g clip-rule="nonzero" clip-path="url(#clip23)"><g clip-rule="nonzero" clip-path="url(#clip24)"><path style=" stroke:none;fill-rule:nonzero;fill:rgb(1.179504%,59.609985%,61.959839%);fill-opacity:1;" d="M 149.710938 402.757812 C 149.570312 402.835938 149.78125 402.746094 149.949219 402.609375 C 150.5625 402.132812 151.109375 401.585938 151.585938 400.96875 C 152.058594 400.355469 152.453125 399.691406 152.757812 398.976562 C 153.066406 398.261719 153.277344 397.523438 153.398438 396.753906 C 153.515625 395.988281 153.535156 395.21875 153.460938 394.445312 C 153.398438 393.996094 153.234375 393.59375 152.972656 393.226562 C 152.707031 392.859375 152.375 392.578125 151.96875 392.378906 C 149.472656 390.867188 146.886719 391.0625 144.316406 392.066406 C 143.734375 392.410156 143.347656 392.90625 143.148438 393.550781 C 142.351562 395.703125 142.695312 397.917969 143.03125 400.101562 C 143.417969 402.59375 147.105469 404.214844 149.710938 402.757812 Z M 149.710938 402.757812 "/></g></g></g><g clip-rule="nonzero" clip-path="url(#clip25)"><g clip-rule="nonzero" clip-path="url(#clip26)"><g clip-rule="nonzero" clip-path="url(#clip27)"><path style=" stroke:none;fill-rule:nonzero;fill:rgb(78.819275%,88.62915%,39.608765%);fill-opacity:1;" d="M 885.40625 412.113281 C 886.761719 412.71875 888.179688 413.070312 889.660156 413.164062 C 892.597656 413.328125 895.515625 413.882812 898.453125 414.03125 C 901.011719 414.125 903.523438 414.511719 905.988281 415.1875 C 907.539062 415.734375 909.125 415.898438 910.75 415.683594 C 911.398438 415.5625 912.097656 415.714844 912.757812 415.632812 C 913.226562 415.550781 913.6875 415.570312 914.148438 415.695312 C 914.605469 415.820312 915.015625 416.039062 915.375 416.351562 C 915.777344 416.722656 916.246094 416.976562 916.773438 417.121094 C 917.304688 417.261719 917.835938 417.273438 918.371094 417.15625 C 918.910156 417.078125 919.425781 417.148438 919.921875 417.367188 C 922.148438 418.289062 924.316406 419.351562 926.792969 419.46875 C 927.203125 419.5 927.574219 419.632812 927.914062 419.863281 C 928.859375 420.375 929.851562 420.765625 930.894531 421.035156 C 932.785156 421.730469 934.644531 422.503906 936.496094 423.285156 C 937.851562 423.859375 939.105469 424.703125 940.640625 424.757812 C 942.738281 426 945.105469 426.507812 947.394531 427.226562 C 948.269531 427.566406 949.109375 427.988281 949.90625 428.484375 C 950.347656 428.792969 950.808594 429.0625 951.292969 429.300781 C 952.804688 429.832031 954.453125 430.085938 955.847656 430.828125 C 957.257812 431.574219 958.511719 432.601562 960.078125 433.097656 C 960.828125 433.386719 961.558594 433.71875 962.273438 434.09375 C 964.335938 435.027344 966.070312 436.667969 968.433594 436.976562 C 968.695312 437.058594 968.921875 437.195312 969.113281 437.390625 C 971.03125 438.910156 973.308594 439.753906 975.527344 440.6875 C 976.90625 441.222656 978.167969 441.957031 979.316406 442.886719 C 981.488281 444.703125 983.855469 446.207031 986.425781 447.398438 C 988.722656 448.488281 990.894531 449.847656 993.097656 451.128906 C 993.546875 451.421875 993.929688 451.785156 994.246094 452.21875 C 994.386719 452.453125 994.40625 452.699219 994.304688 452.953125 C 994.175781 453.195312 993.972656 453.335938 993.703125 453.375 C 992.496094 453.351562 991.300781 453.246094 990.109375 453.058594 C 986.679688 452.40625 983.277344 451.632812 979.851562 450.96875 C 976.175781 450.132812 972.457031 449.726562 968.6875 449.738281 C 965.332031 449.929688 961.984375 449.832031 958.644531 449.441406 C 958.105469 449.371094 957.570312 449.382812 957.039062 449.484375 C 955.304688 449.714844 953.566406 449.75 951.824219 449.59375 C 947.398438 449.410156 942.980469 449.1875 938.566406 449.785156 C 937.363281 449.914062 936.15625 449.960938 934.949219 449.929688 C 930.515625 450.046875 926.109375 450.460938 921.734375 451.171875 C 916.554688 451.878906 911.414062 452.917969 906.261719 453.820312 C 904.007812 454.210938 901.847656 455.003906 899.628906 455.449219 C 895.804688 456.214844 892.074219 457.304688 888.289062 458.207031 C 885.5625 458.910156 882.804688 459.46875 880.015625 459.878906 C 874.300781 460.738281 868.554688 461.09375 862.773438 460.949219 C 858.988281 460.78125 855.292969 460.351562 851.796875 458.78125 C 851.0625 458.453125 850.28125 458.242188 849.527344 457.960938 C 844.308594 456.019531 841.402344 452.03125 839.789062 446.929688 C 839.652344 446.40625 839.621094 445.875 839.695312 445.339844 C 839.988281 442.679688 840.25 440.011719 840.660156 437.367188 C 840.894531 435.625 841.410156 433.972656 842.214844 432.40625 C 843.015625 430.84375 844.058594 429.457031 845.335938 428.25 C 845.824219 427.792969 846.285156 427.300781 846.789062 426.859375 C 849.714844 424.296875 852.785156 421.921875 855.996094 419.726562 C 857.890625 418.429688 859.921875 417.40625 862.097656 416.667969 C 864.128906 415.980469 866.183594 415.359375 868.230469 414.710938 C 869.019531 414.542969 869.78125 414.292969 870.515625 413.96875 C 871.359375 413.53125 872.257812 413.3125 873.210938 413.3125 C 876.558594 413.128906 879.90625 412.917969 883.257812 412.730469 C 884.074219 412.703125 884.839844 412.484375 885.542969 412.070312 Z M 885.40625 412.113281 "/></g></g></g><g clip-rule="nonzero" clip-path="url(#clip28)"><g clip-rule="nonzero" clip-path="url(#clip29)"><g clip-rule="nonzero" clip-path="url(#clip30)"><path style=" stroke:none;fill-rule:nonzero;fill:rgb(1.179504%,59.609985%,61.959839%);fill-opacity:1;" d="M 955.257812 344.550781 C 959.292969 346.519531 962.023438 350.351562 964.730469 354.203125 C 966.578125 358.21875 968.46875 362.21875 969.386719 366.582031 C 969.636719 367.761719 969.902344 368.9375 970.1875 370.109375 C 971.15625 374.144531 972.191406 378.164062 973.03125 382.226562 C 973.386719 383.929688 973.648438 385.652344 973.929688 387.371094 C 974.144531 388.691406 974.320312 390.019531 974.515625 391.34375 C 975.226562 396.246094 976.324219 401.074219 977.171875 405.953125 C 978.074219 411.109375 979.316406 416.179688 980.898438 421.164062 C 982.261719 425.488281 983.351562 429.960938 985.773438 433.902344 C 986.1875 434.492188 986.296875 435.128906 986.101562 435.816406 C 986.003906 436.125 985.761719 436.292969 985.480469 436.179688 C 985.101562 436.058594 984.761719 435.863281 984.464844 435.601562 C 982.140625 433.179688 979.820312 430.757812 977.554688 428.28125 C 976.746094 427.398438 976.089844 426.367188 975.367188 425.402344 C 974.160156 423.792969 973.023438 422.128906 971.742188 420.582031 C 969.515625 417.894531 967.203125 415.277344 965.222656 412.398438 C 964.941406 411.9375 964.597656 411.527344 964.199219 411.167969 C 962.496094 409.796875 961.324219 408.003906 960.039062 406.28125 C 958.675781 404.457031 957.179688 402.726562 955.726562 400.96875 C 955.300781 400.453125 954.777344 400.015625 954.375 399.484375 C 950.90625 394.878906 947.929688 389.9375 944.664062 385.191406 C 944.449219 384.851562 944.273438 384.488281 944.136719 384.109375 C 942.796875 380.890625 941.460938 377.671875 940.132812 374.449219 C 939.777344 373.582031 939.472656 372.695312 939.15625 371.8125 C 937.828125 368.136719 936.765625 364.421875 937.089844 360.445312 C 937.144531 359.507812 937.132812 358.570312 937.054688 357.636719 C 936.867188 354.472656 937.773438 351.550781 938.898438 348.660156 C 939.636719 346.722656 940.863281 345.164062 942.574219 343.988281 C 945.796875 341.742188 949.210938 341.21875 952.808594 343.117188 C 953.523438 343.492188 954.203125 343.929688 955.257812 344.550781 Z M 955.257812 344.550781 "/></g></g></g><g clip-rule="nonzero" clip-path="url(#clip31)"><g clip-rule="nonzero" clip-path="url(#clip32)"><g clip-rule="nonzero" clip-path="url(#clip33)"><path style=" stroke:none;fill-rule:nonzero;fill:rgb(0%,50.19989%,21.569824%);fill-opacity:1;" d="M 896.183594 392.46875 C 894.839844 391.859375 893.546875 391.15625 892.3125 390.355469 C 889.71875 388.375 887.621094 385.96875 886.019531 383.132812 C 885.25 381.828125 884.886719 380.421875 884.929688 378.910156 C 884.90625 378.367188 885.003906 377.84375 885.21875 377.34375 C 885.4375 376.84375 885.75 376.414062 886.164062 376.058594 C 888.976562 373.777344 892.125 372.476562 895.824219 373.125 C 899.347656 373.726562 902.734375 374.761719 905.988281 376.230469 C 909.242188 377.699219 912.257812 379.554688 915.035156 381.796875 C 918.023438 384.0625 920.855469 386.503906 923.53125 389.128906 C 926.132812 391.824219 929.027344 394.246094 931.527344 397.027344 C 933.671875 399.414062 935.855469 401.761719 938.027344 404.125 C 940.117188 406.394531 941.703125 409.042969 943.746094 411.339844 C 943.839844 411.441406 943.90625 411.558594 943.945312 411.6875 C 944.015625 411.9375 944.140625 412.394531 944.085938 412.421875 C 943.746094 412.574219 943.304688 412.796875 943.007812 412.6875 C 940.828125 412.019531 938.710938 411.183594 936.664062 410.183594 C 933.019531 408.152344 929.09375 406.789062 925.351562 405.003906 C 921.363281 403.105469 917.207031 401.554688 913.128906 399.847656 C 911.769531 399.28125 910.4375 398.628906 909.050781 398.132812 C 904.605469 396.601562 900.316406 394.710938 896.183594 392.46875 Z M 896.183594 392.46875 "/></g></g></g><g clip-rule="nonzero" clip-path="url(#clip34)"><g clip-rule="nonzero" clip-path="url(#clip35)"><g clip-rule="nonzero" clip-path="url(#clip36)"><path style=" stroke:none;fill-rule:nonzero;fill:rgb(95.289612%,91.369629%,82.348633%);fill-opacity:1;" d="M 995.882812 396.195312 C 998.132812 393.136719 1000.679688 390.703125 1005.210938 390.984375 C 1005.585938 390.980469 1005.949219 391.039062 1006.304688 391.152344 C 1006.660156 391.265625 1006.988281 391.433594 1007.289062 391.652344 C 1007.589844 391.871094 1007.851562 392.132812 1008.070312 392.433594 C 1008.289062 392.734375 1008.457031 393.0625 1008.570312 393.417969 C 1009.484375 395.855469 1009.722656 398.359375 1009.289062 400.925781 C 1008.601562 404.359375 1007.507812 407.65625 1006.007812 410.820312 C 1003.566406 415.78125 1001.902344 420.992188 1001.007812 426.445312 C 1000.976562 426.714844 1000.890625 426.964844 1000.753906 427.195312 C 1000.617188 427.425781 1000.421875 427.585938 1000.171875 427.679688 C 999.90625 427.722656 999.675781 427.652344 999.484375 427.464844 C 999.089844 426.925781 998.78125 426.34375 998.558594 425.71875 C 998.113281 424.175781 997.871094 422.566406 997.371094 421.042969 C 996.621094 418.746094 996.054688 416.40625 995.421875 414.082031 C 994.757812 411.605469 994.464844 409.085938 994.546875 406.523438 C 994.609375 404.25 994.726562 401.96875 994.992188 399.710938 C 995.199219 398.515625 995.496094 397.34375 995.882812 396.195312 Z M 995.882812 396.195312 "/></g></g></g><g clip-rule="nonzero" clip-path="url(#clip37)"><g clip-rule="nonzero" clip-path="url(#clip38)"><g clip-rule="nonzero" clip-path="url(#clip39)"><path style=" stroke:none;fill-rule:nonzero;fill:rgb(1.179504%,59.609985%,61.959839%);fill-opacity:1;" d="M 934.863281 461.191406 C 937.046875 459.636719 939.472656 458.710938 942.144531 458.414062 C 946.570312 458.109375 950.992188 458.171875 955.410156 458.59375 C 957.554688 458.78125 959.671875 459.136719 961.757812 459.648438 C 966.339844 460.71875 970.695312 462.5 975.085938 464.152344 C 975.945312 464.535156 976.753906 465.007812 977.507812 465.570312 C 977.664062 465.675781 977.722656 466.0625 977.675781 466.285156 C 977.625 466.507812 977.410156 466.84375 977.222656 466.878906 C 976.039062 467.09375 974.847656 467.265625 973.648438 467.398438 C 969.765625 467.730469 965.9375 468.398438 962.171875 469.402344 C 957.671875 470.726562 953.132812 471.980469 948.773438 473.710938 C 946.085938 474.777344 943.308594 475.058594 940.523438 475.359375 C 937.914062 475.601562 935.429688 475.160156 933.066406 474.035156 C 932.597656 473.832031 932.175781 473.5625 931.792969 473.222656 C 931.414062 472.886719 931.101562 472.492188 930.847656 472.050781 C 930.597656 471.609375 930.425781 471.136719 930.328125 470.636719 C 930.234375 470.136719 930.21875 469.636719 930.289062 469.132812 C 930.953125 465.738281 932.390625 462.78125 934.863281 461.191406 Z M 934.863281 461.191406 "/></g></g></g><g clip-rule="nonzero" clip-path="url(#clip40)"><g clip-rule="nonzero" clip-path="url(#clip41)"><g clip-rule="nonzero" clip-path="url(#clip42)"><path style=" stroke:none;fill-rule:nonzero;fill:rgb(95.289612%,91.369629%,82.348633%);fill-opacity:1;" d="M 913.753906 469.464844 C 915.425781 470.695312 917.273438 471.800781 918.660156 473.484375 C 919.382812 474.359375 919.691406 475.359375 919.589844 476.484375 C 919.40625 478.949219 918.804688 481.246094 916.539062 482.714844 C 916.425781 482.785156 916.320312 482.871094 916.226562 482.964844 C 915.675781 483.480469 915.039062 483.839844 914.316406 484.046875 C 913.589844 484.25 912.859375 484.277344 912.121094 484.125 C 911.457031 484.03125 910.800781 483.890625 910.152344 483.703125 C 908.703125 483.3125 907.40625 482.632812 906.257812 481.667969 C 905.113281 480.699219 904.226562 479.535156 903.601562 478.171875 C 903.359375 477.6875 903.21875 477.175781 903.171875 476.636719 C 903.039062 474.546875 903.519531 472.640625 905.164062 471.195312 C 905.769531 470.667969 906.410156 470.1875 907.089844 469.761719 C 909.21875 468.421875 911.4375 468.703125 913.753906 469.464844 Z M 913.753906 469.464844 "/></g></g></g><g clip-rule="nonzero" clip-path="url(#clip43)"><g clip-rule="nonzero" clip-path="url(#clip44)"><g clip-rule="nonzero" clip-path="url(#clip45)"><path style=" stroke:none;fill-rule:nonzero;fill:rgb(1.179504%,59.609985%,61.959839%);fill-opacity:1;" d="M 987.917969 379.222656 C 987.40625 378.878906 987.082031 378.652344 986.746094 378.429688 C 985.820312 377.820312 985.214844 376.976562 984.9375 375.902344 C 984.199219 373.429688 985.109375 371.457031 986.734375 369.71875 C 987.066406 369.367188 987.464844 369.136719 987.933594 369.027344 C 988.40625 368.917969 988.867188 368.945312 989.320312 369.109375 C 990.917969 369.578125 992.195312 370.492188 993.15625 371.851562 C 993.476562 372.28125 993.710938 372.753906 993.855469 373.269531 C 994.289062 374.980469 994.292969 376.695312 993.863281 378.40625 C 993.753906 378.800781 993.558594 379.144531 993.277344 379.4375 C 992.992188 379.730469 992.65625 379.9375 992.265625 380.0625 C 991.488281 380.378906 990.707031 380.394531 989.917969 380.105469 C 989.167969 379.832031 988.457031 379.464844 987.917969 379.222656 Z M 987.917969 379.222656 "/></g></g></g><g clip-rule="nonzero" clip-path="url(#clip46)"><g clip-rule="nonzero" clip-path="url(#clip47)"><g clip-rule="nonzero" clip-path="url(#clip48)"><path style=" stroke:none;fill-rule:nonzero;fill:rgb(1.179504%,59.609985%,61.959839%);fill-opacity:1;" d="M 869.703125 402.761719 C 869.839844 402.839844 869.632812 402.75 869.464844 402.613281 C 868.851562 402.136719 868.304688 401.589844 867.832031 400.972656 C 867.355469 400.355469 866.964844 399.691406 866.660156 398.976562 C 866.355469 398.261719 866.144531 397.519531 866.027344 396.753906 C 865.90625 395.984375 865.886719 395.214844 865.964844 394.441406 C 866.027344 393.996094 866.191406 393.589844 866.453125 393.226562 C 866.71875 392.859375 867.054688 392.578125 867.460938 392.378906 C 869.957031 390.871094 872.546875 391.070312 875.113281 392.078125 C 875.691406 392.425781 876.082031 392.921875 876.28125 393.566406 C 877.070312 395.71875 876.726562 397.933594 876.386719 400.117188 C 875.996094 402.605469 872.304688 404.226562 869.703125 402.761719 Z M 869.703125 402.761719 "/></g></g></g><g clip-rule="nonzero" clip-path="url(#clip49)"><path style=" stroke:none;fill-rule:nonzero;fill:rgb(0%,50.19989%,21.569824%);fill-opacity:1;" d="M 61.261719 139.097656 C 70.101562 128.234375 81.441406 119.503906 87.964844 106.535156 C 92.457031 97.605469 97.175781 84.628906 90.882812 75.675781 C 85.027344 67.347656 75.703125 66.089844 67.820312 72.320312 C 58.878906 79.390625 56.503906 93.632812 54.722656 104.445312 C 53.769531 110.246094 52.820312 141.507812 59.488281 141.703125 C 59.679688 141.0625 60.007812 140.929688 61.261719 139.097656 Z M 61.261719 139.097656 "/></g><path style=" stroke:none;fill-rule:nonzero;fill:rgb(95.289612%,91.369629%,82.348633%);fill-opacity:1;" d="M 48.757812 97.890625 C 48.285156 88.359375 51.042969 78.515625 51.582031 68.980469 C 52.09375 59.855469 52.941406 50.777344 52.675781 41.535156 C 52.375 31.238281 48.246094 15.097656 39.25 8.730469 C 26.96875 0.0351562 10.488281 9.703125 9.359375 23.585938 C 7.867188 41.875 19.417969 58.046875 28.507812 72.925781 C 34.277344 82.367188 39.429688 93.636719 47.585938 101.371094 C 48.542969 100.808594 48.898438 100.066406 48.757812 97.890625 Z M 48.757812 97.890625 "/><path style=" stroke:none;fill-rule:nonzero;fill:rgb(0%,50.19989%,21.569824%);fill-opacity:1;" d="M 47.667969 102.085938 C 48.105469 95.234375 43.421875 86.320312 41.457031 79.5625 C 39.558594 73.316406 36.917969 67.398438 33.539062 61.816406 C 29.371094 54.675781 21.617188 42.308594 11.511719 44.601562 C 0.75 47.046875 6.070312 61.8125 10 67.800781 C 14.964844 75.238281 21.207031 81.371094 28.726562 86.203125 C 35.21875 90.503906 41.496094 94.945312 47.667969 102.085938 Z M 47.667969 102.085938 "/><path style=" stroke:none;fill-rule:nonzero;fill:rgb(1.179504%,59.609985%,61.959839%);fill-opacity:1;" d="M 58.921875 125.828125 C 58.507812 119.40625 67.046875 112.496094 70.078125 107.347656 C 72.507812 103.230469 75.25 96.25 74.382812 91.351562 C 73.417969 85.894531 67.785156 88.296875 65.121094 91.050781 C 60.707031 95.609375 61.011719 102.3125 59.777344 108.296875 C 58.445312 114.089844 58.160156 119.933594 58.921875 125.828125 Z M 58.921875 125.828125 "/><path style=" stroke:none;fill-rule:nonzero;fill:rgb(1.179504%,59.609985%,61.959839%);fill-opacity:1;" d="M 64.992188 50.613281 C 71.589844 49.957031 72.148438 59.34375 67.804688 62.269531 C 62.921875 65.558594 58.4375 59.910156 58.433594 55.125 C 58.429688 52.210938 60.636719 50.058594 64.992188 50.613281 Z M 64.992188 50.613281 "/><g clip-rule="nonzero" clip-path="url(#clip50)"><path style=" stroke:none;fill-rule:nonzero;fill:rgb(0%,50.19989%,21.569824%);fill-opacity:1;" d="M 951.605469 139.097656 C 942.765625 128.234375 931.425781 119.503906 924.902344 106.535156 C 920.410156 97.605469 915.691406 84.628906 921.984375 75.675781 C 927.839844 67.347656 937.164062 66.089844 945.046875 72.320312 C 953.988281 79.390625 956.363281 93.632812 958.144531 104.445312 C 959.097656 110.246094 960.046875 141.507812 953.378906 141.703125 C 953.1875 141.0625 952.859375 140.929688 951.605469 139.097656 Z M 951.605469 139.097656 "/></g><path style=" stroke:none;fill-rule:nonzero;fill:rgb(95.289612%,91.369629%,82.348633%);fill-opacity:1;" d="M 964.109375 97.890625 C 964.582031 88.359375 961.824219 78.515625 961.285156 68.980469 C 960.773438 59.855469 959.925781 50.777344 960.195312 41.535156 C 960.492188 31.238281 964.625 15.097656 973.617188 8.730469 C 985.898438 0.0351562 1002.378906 9.703125 1003.507812 23.585938 C 1005 41.875 993.449219 58.046875 984.359375 72.925781 C 978.589844 82.367188 973.4375 93.636719 965.28125 101.371094 C 964.324219 100.808594 963.96875 100.066406 964.109375 97.890625 Z M 964.109375 97.890625 "/><path style=" stroke:none;fill-rule:nonzero;fill:rgb(0%,50.19989%,21.569824%);fill-opacity:1;" d="M 965.199219 102.085938 C 964.761719 95.234375 969.445312 86.320312 971.410156 79.5625 C 973.308594 73.316406 975.949219 67.398438 979.328125 61.816406 C 983.496094 54.675781 991.253906 42.308594 1001.355469 44.601562 C 1012.117188 47.046875 1006.796875 61.8125 1002.867188 67.800781 C 997.902344 75.238281 991.660156 81.371094 984.140625 86.203125 C 977.648438 90.503906 971.371094 94.945312 965.199219 102.085938 Z M 965.199219 102.085938 "/><path style=" stroke:none;fill-rule:nonzero;fill:rgb(1.179504%,59.609985%,61.959839%);fill-opacity:1;" d="M 953.945312 125.828125 C 954.359375 119.40625 945.824219 112.496094 942.789062 107.347656 C 940.359375 103.230469 937.617188 96.25 938.484375 91.351562 C 939.449219 85.894531 945.082031 88.296875 947.746094 91.050781 C 952.160156 95.609375 951.855469 102.3125 953.089844 108.296875 C 954.421875 114.089844 954.707031 119.933594 953.945312 125.828125 Z M 953.945312 125.828125 "/><path style=" stroke:none;fill-rule:nonzero;fill:rgb(1.179504%,59.609985%,61.959839%);fill-opacity:1;" d="M 947.875 50.613281 C 941.277344 49.957031 940.71875 59.34375 945.0625 62.269531 C 949.949219 65.558594 954.429688 59.910156 954.4375 55.125 C 954.4375 52.210938 952.230469 50.058594 947.875 50.613281 Z M 947.875 50.613281 "/><g clip-rule="nonzero" clip-path="url(#clip51)"><g clip-rule="nonzero" clip-path="url(#clip52)"><g clip-rule="nonzero" clip-path="url(#clip53)"><path style=" stroke:none;fill-rule:nonzero;fill:rgb(95.289612%,91.369629%,82.348633%);fill-opacity:1;" d="M 35.847656 157.304688 C 41.203125 161.203125 44.894531 168.429688 49.675781 173.085938 C 54.148438 177.320312 58.835938 181.304688 63.734375 185.039062 C 69.363281 189.457031 82.984375 193.222656 82.484375 182.191406 C 81.671875 164.265625 59.207031 158.019531 47.023438 150.371094 C 44.984375 149.089844 36.179688 139.929688 34.0625 140.570312 C 30.773438 141.5625 36.359375 152.953125 35.847656 157.304688 Z M 35.847656 157.304688 "/></g></g></g><g clip-rule="nonzero" clip-path="url(#clip54)"><g clip-rule="nonzero" clip-path="url(#clip55)"><g clip-rule="nonzero" clip-path="url(#clip56)"><path style=" stroke:none;fill-rule:nonzero;fill:rgb(1.179504%,59.609985%,61.959839%);fill-opacity:1;" d="M 18.265625 103.21875 C 19.988281 117.664062 31.636719 129.480469 40.375 140.535156 C 47.789062 149.910156 55.917969 158.328125 62.503906 168.246094 C 65.648438 172.972656 68.519531 178.445312 66.863281 183.996094 C 64.699219 191.238281 56.652344 199.484375 48.664062 198.152344 C 25.355469 194.257812 18.589844 162.734375 15.777344 144.054688 C 13.816406 131 12.347656 117.136719 18.265625 103.21875 Z M 18.265625 103.21875 "/></g></g></g><g clip-rule="nonzero" clip-path="url(#clip57)"><g clip-rule="nonzero" clip-path="url(#clip58)"><g clip-rule="nonzero" clip-path="url(#clip59)"><path style=" stroke:none;fill-rule:nonzero;fill:rgb(78.819275%,88.62915%,39.608765%);fill-opacity:1;" d="M 7.699219 176.90625 C 1.476562 185.890625 4.011719 203.4375 6.175781 212.25 C 8.710938 222.585938 12.449219 233.800781 23.007812 237.824219 C 31.613281 241.097656 40.234375 237.71875 44.554688 229.324219 C 50.058594 218.621094 36.542969 204.722656 29.683594 197.769531 C 22.191406 190.167969 16.800781 182.296875 11.148438 173.484375 C 9.777344 174.402344 8.628906 175.542969 7.699219 176.90625 Z M 7.699219 176.90625 "/></g></g></g><g clip-rule="nonzero" clip-path="url(#clip60)"><g clip-rule="nonzero" clip-path="url(#clip61)"><g clip-rule="nonzero" clip-path="url(#clip62)"><path style=" stroke:none;fill-rule:nonzero;fill:rgb(0%,50.19989%,21.569824%);fill-opacity:1;" d="M 81.113281 223.496094 C 68.75 234.085938 56.441406 213.691406 68.792969 204.355469 C 79.1875 196.5 90.644531 215.332031 81.113281 223.496094 Z M 81.113281 223.496094 "/></g></g></g><g clip-rule="nonzero" clip-path="url(#clip63)"><g clip-rule="nonzero" clip-path="url(#clip64)"><g clip-rule="nonzero" clip-path="url(#clip65)"><path style=" stroke:none;fill-rule:nonzero;fill:rgb(95.289612%,91.369629%,82.348633%);fill-opacity:1;" d="M 970.078125 157.058594 C 964.730469 160.898438 961.027344 168.078125 956.246094 172.675781 C 951.773438 176.863281 947.089844 180.792969 942.191406 184.476562 C 936.566406 188.832031 922.980469 192.46875 923.515625 181.464844 C 924.386719 163.589844 946.796875 157.5625 958.964844 150.042969 C 961.003906 148.785156 969.804688 139.722656 971.917969 140.382812 C 975.191406 141.398438 969.585938 152.710938 970.078125 157.058594 Z M 970.078125 157.058594 "/></g></g></g><g clip-rule="nonzero" clip-path="url(#clip66)"><g clip-rule="nonzero" clip-path="url(#clip67)"><g clip-rule="nonzero" clip-path="url(#clip68)"><path style=" stroke:none;fill-rule:nonzero;fill:rgb(1.179504%,59.609985%,61.959839%);fill-opacity:1;" d="M 987.785156 103.261719 C 986.019531 117.65625 974.375 129.339844 965.625 140.289062 C 958.207031 149.578125 950.074219 157.898438 943.476562 167.734375 C 940.328125 172.421875 937.445312 177.855469 939.078125 183.410156 C 941.207031 190.652344 949.203125 198.953125 957.167969 197.691406 C 980.410156 194.019531 987.261719 162.632812 990.128906 144.023438 C 992.128906 131.015625 993.640625 117.199219 987.785156 103.261719 Z M 987.785156 103.261719 "/></g></g></g><g clip-rule="nonzero" clip-path="url(#clip69)"><g clip-rule="nonzero" clip-path="url(#clip70)"><g clip-rule="nonzero" clip-path="url(#clip71)"><path style=" stroke:none;fill-rule:nonzero;fill:rgb(78.819275%,88.62915%,39.608765%);fill-opacity:1;" d="M 998.066406 176.871094 C 1004.238281 185.890625 1001.652344 203.371094 999.46875 212.140625 C 996.902344 222.429688 993.140625 233.585938 982.605469 237.5 C 974.015625 240.691406 965.433594 237.242188 961.15625 228.828125 C 955.707031 218.101562 969.226562 204.359375 976.085938 197.484375 C 983.578125 189.964844 988.976562 182.164062 994.640625 173.421875 C 996.003906 174.351562 997.148438 175.5 998.066406 176.871094 Z M 998.066406 176.871094 "/></g></g></g><g clip-rule="nonzero" clip-path="url(#clip72)"><g clip-rule="nonzero" clip-path="url(#clip73)"><g clip-rule="nonzero" clip-path="url(#clip74)"><path style=" stroke:none;fill-rule:nonzero;fill:rgb(0%,50.19989%,21.569824%);fill-opacity:1;" d="M 924.742188 222.6875 C 937.027344 233.363281 949.363281 213.128906 937.085938 203.699219 C 926.753906 195.769531 915.269531 214.453125 924.742188 222.6875 Z M 924.742188 222.6875 "/></g></g></g></g></svg>