<?xml version="1.0" encoding="UTF-8"?><svg xmlns="http://www.w3.org/2000/svg" xmlns:xlink="http://www.w3.org/1999/xlink" contentScriptType="text/ecmascript" width="150pt" zoomAndPan="magnify" contentStyleType="text/css" viewBox="0 0 150 74.999997" height="74.999997pt" preserveAspectRatio="xMidYMid meet" version="1.2"><defs><g/><filter x="0%" y="0%" width="100%" xmlns:xlink="http://www.w3.org/1999/xlink" xlink:type="simple" filterUnits="objectBoundingBox" xlink:actuate="onLoad" id="alpha" height="100%" xlink:show="other" xml:id="alpha"><feColorMatrix values="0 0 0 0 1 0 0 0 0 1 0 0 0 0 1 0 0 0 1 0" type="matrix" in="SourceGraphic"/></filter><clipPath xml:id="clip2" id="clip2"><path d="M 0.914062 23 L 105.914062 23 L 105.914062 65 L 0.914062 65 Z M 0.914062 23 "/></clipPath><clipPath xml:id="clip1" id="clip1"><rect x="0" width="107" y="0" height="75"/></clipPath></defs><g xml:id="surface1" id="surface1"><g mask="url(#mask0)" transform="matrix(1,0,0,1,18,-0.000000000000001893)"><g xml:id="surface5" id="surface5" clip-path="url(#clip1)"><g clip-rule="nonzero" clip-path="url(#clip2)"><path style=" stroke:none;fill-rule:nonzero;fill:rgb(1.179504%,59.609985%,61.959839%);fill-opacity:1;" d="M 105.910156 64.582031 L 0.914062 64.582031 L 0.914062 23.828125 L 105.910156 23.828125 L 105.910156 64.582031 "/></g><path style=" stroke:none;fill-rule:nonzero;fill:rgb(0%,50.19989%,21.569824%);fill-opacity:1;" d="M 99.957031 74.277344 L 99.957031 67.925781 C 99.957031 67.742188 99.882812 67.5625 99.753906 67.433594 C 99.625 67.304688 99.445312 67.230469 99.261719 67.230469 L 93.050781 67.230469 L 93.050781 29.804688 C 93.050781 29.625 92.976562 29.445312 92.847656 29.3125 C 92.71875 29.1875 92.539062 29.113281 92.355469 29.113281 L 90.332031 29.113281 L 90.332031 25.496094 C 90.332031 25.3125 90.257812 25.132812 90.128906 25.003906 C 90 24.875 89.820312 24.800781 89.640625 24.800781 L 79.226562 24.800781 C 79.042969 24.800781 78.863281 24.875 78.734375 25.003906 C 78.605469 25.132812 78.53125 25.3125 78.53125 25.496094 L 78.53125 29.113281 L 75.828125 29.113281 C 75.644531 29.113281 75.464844 29.1875 75.339844 29.3125 C 75.207031 29.445312 75.136719 29.625 75.136719 29.804688 L 75.136719 67.230469 L 73.578125 67.230469 L 73.578125 8.476562 C 73.578125 8.25 73.46875 8.035156 73.28125 7.90625 C 73.09375 7.773438 72.855469 7.746094 72.644531 7.824219 L 53.171875 15.085938 C 52.902344 15.1875 52.71875 15.449219 52.71875 15.738281 L 52.71875 67.230469 L 50.257812 67.230469 L 50.257812 20.050781 C 50.257812 19.867188 50.183594 19.6875 50.054688 19.558594 C 49.925781 19.429688 49.746094 19.355469 49.5625 19.355469 L 47.539062 19.355469 L 47.539062 15.738281 C 47.539062 15.554688 47.464844 15.378906 47.335938 15.246094 C 47.207031 15.117188 47.03125 15.042969 46.847656 15.042969 L 35.976562 15.042969 C 35.796875 15.042969 35.617188 15.117188 35.488281 15.246094 C 35.359375 15.378906 35.285156 15.554688 35.285156 15.738281 L 35.285156 19.355469 L 33.714844 19.355469 C 33.53125 19.355469 33.351562 19.429688 33.222656 19.558594 C 33.09375 19.6875 33.019531 19.867188 33.019531 20.050781 L 33.019531 67.230469 L 29.652344 67.230469 L 29.652344 26.855469 C 29.652344 26.671875 29.578125 26.492188 29.449219 26.367188 C 29.320312 26.234375 29.140625 26.160156 28.960938 26.160156 L 14.46875 26.160156 C 14.285156 26.160156 14.105469 26.234375 13.976562 26.367188 C 13.847656 26.492188 13.773438 26.671875 13.773438 26.855469 L 13.773438 67.230469 L 7.5625 67.230469 C 7.378906 67.230469 7.199219 67.304688 7.070312 67.433594 C 6.941406 67.5625 6.867188 67.742188 6.867188 67.925781 L 6.867188 74.277344 C 6.867188 74.664062 7.179688 74.972656 7.5625 74.972656 C 7.945312 74.972656 8.253906 74.664062 8.253906 74.277344 L 8.253906 68.621094 L 14.46875 68.621094 C 14.652344 68.621094 14.828125 68.546875 14.957031 68.417969 C 15.085938 68.289062 15.160156 68.109375 15.160156 67.925781 L 15.160156 27.550781 L 28.265625 27.550781 L 28.265625 67.925781 C 28.265625 68.109375 28.339844 68.289062 28.46875 68.417969 C 28.597656 68.546875 28.777344 68.621094 28.960938 68.621094 L 33.714844 68.621094 C 33.894531 68.621094 34.074219 68.546875 34.203125 68.417969 C 34.332031 68.289062 34.40625 68.109375 34.40625 67.925781 L 34.40625 20.746094 L 35.976562 20.746094 C 36.160156 20.746094 36.339844 20.671875 36.46875 20.539062 C 36.597656 20.410156 36.671875 20.234375 36.671875 20.050781 L 36.671875 16.433594 L 46.152344 16.433594 L 46.152344 20.050781 C 46.152344 20.234375 46.226562 20.410156 46.355469 20.539062 C 46.484375 20.671875 46.664062 20.746094 46.847656 20.746094 L 48.871094 20.746094 L 48.871094 67.925781 C 48.871094 68.109375 48.945312 68.289062 49.074219 68.417969 C 49.203125 68.546875 49.382812 68.621094 49.5625 68.621094 L 53.414062 68.621094 C 53.59375 68.621094 53.773438 68.546875 53.902344 68.417969 C 54.03125 68.289062 54.105469 68.109375 54.105469 67.925781 L 54.105469 16.222656 L 72.191406 9.476562 L 72.191406 67.925781 C 72.191406 68.109375 72.265625 68.289062 72.394531 68.417969 C 72.523438 68.546875 72.703125 68.621094 72.882812 68.621094 L 75.828125 68.621094 C 76.011719 68.621094 76.191406 68.546875 76.316406 68.417969 C 76.445312 68.289062 76.523438 68.109375 76.523438 67.925781 L 76.523438 30.5 L 79.226562 30.5 C 79.40625 30.5 79.585938 30.425781 79.714844 30.296875 C 79.84375 30.167969 79.917969 29.988281 79.917969 29.804688 L 79.917969 26.191406 L 88.945312 26.191406 L 88.945312 29.804688 C 88.945312 29.988281 89.019531 30.167969 89.148438 30.296875 C 89.277344 30.425781 89.457031 30.5 89.640625 30.5 L 91.664062 30.5 L 91.664062 67.925781 C 91.664062 68.109375 91.738281 68.289062 91.867188 68.417969 C 91.996094 68.546875 92.175781 68.621094 92.355469 68.621094 L 98.570312 68.621094 L 98.570312 74.277344 C 98.570312 74.664062 98.878906 74.972656 99.261719 74.972656 C 99.644531 74.972656 99.957031 74.664062 99.957031 74.277344 "/><path style=" stroke:none;fill-rule:nonzero;fill:rgb(0%,50.19989%,21.569824%);fill-opacity:1;" d="M 40.675781 15.738281 L 40.675781 0.535156 C 40.675781 0.253906 40.445312 0.0234375 40.167969 0.0234375 C 39.882812 0.0234375 39.65625 0.253906 39.65625 0.535156 L 39.65625 15.738281 C 39.65625 16.019531 39.882812 16.25 40.167969 16.25 C 40.445312 16.25 40.675781 16.019531 40.675781 15.738281 "/></g><mask xml:id="mask0" id="mask0"><g filter="url(#alpha)"><rect x="0" width="150" y="0" height="74.999997" style="fill:rgb(0%,0%,0%);fill-opacity:0.7882;stroke:none;"/></g></mask></g><g style="fill:rgb(100%,100%,100%);fill-opacity:1;"><g transform="translate(23.973036, 55.713191)"><path style="stroke:none;" d="M 8.445312 -24.75 C 7.824219 -24.679688 7.445312 -24.648438 6.136719 -24.648438 L 4.445312 -24.648438 C 4.207031 -24.648438 4.03125 -24.679688 3.828125 -24.679688 C 1.863281 -24.679688 1.65625 -23.921875 1.65625 -23.234375 L 1.65625 -22.886719 C 1.65625 -21.921875 1.6875 -21.269531 1.757812 -20.683594 C 1.828125 -20.097656 1.894531 -19.269531 1.894531 -18.132812 L 1.894531 -17.476562 C 1.894531 -16.890625 1.863281 -16.375 1.828125 -15.789062 C 1.792969 -14.996094 1.757812 -14.097656 1.757812 -12.617188 C 1.757812 -11.925781 1.757812 -10.71875 1.792969 -9.824219 C 1.828125 -8.652344 1.863281 -7.375 1.863281 -6.273438 C 1.863281 -4.585938 1.828125 -3.171875 1.722656 -1.863281 C 1.722656 -0.171875 2.449219 0.0703125 3.34375 0.0703125 L 3.621094 0.0703125 C 4.757812 0.0351562 5.480469 0.0703125 5.964844 0.101562 L 6.410156 0.101562 C 6.824219 0.101562 7.515625 0.0703125 7.960938 0.0351562 C 8.445312 0 9.066406 -0.0351562 9.445312 0 L 10.617188 0.0351562 C 10.960938 0.0351562 11.445312 -0.515625 11.445312 -0.964844 C 11.445312 -2.273438 10.652344 -2.550781 9.515625 -2.550781 C 8.929688 -2.550781 8.375 -2.515625 7.859375 -2.480469 C 7.445312 -2.449219 6.996094 -2.449219 6.582031 -2.449219 C 5.996094 -2.449219 5.207031 -2.414062 4.550781 -2.449219 L 4.550781 -3.480469 C 4.550781 -4.445312 4.515625 -4.792969 4.515625 -4.964844 L 4.515625 -5.101562 L 4.585938 -7.789062 L 4.585938 -8.167969 C 4.585938 -8.546875 4.585938 -9.132812 4.550781 -9.515625 C 4.550781 -9.925781 4.515625 -10.308594 4.515625 -10.652344 L 4.515625 -11.789062 C 5.238281 -11.789062 5.445312 -11.824219 5.964844 -11.824219 C 6.34375 -11.824219 6.6875 -11.824219 7.101562 -11.789062 L 8.101562 -11.789062 C 8.960938 -11.789062 9.339844 -12.167969 9.339844 -13.03125 C 9.101562 -13.890625 8.582031 -14.304688 7.894531 -14.304688 L 7.238281 -14.304688 L 5.757812 -14.339844 C 5.378906 -14.375 4.824219 -14.375 4.414062 -14.375 C 4.414062 -15.820312 4.414062 -16.855469 4.445312 -18.269531 C 4.445312 -19.511719 4.480469 -20.890625 4.480469 -22.234375 C 5.34375 -22.300781 5.652344 -22.269531 6.34375 -22.269531 C 6.929688 -22.269531 7.582031 -22.269531 8.238281 -22.234375 C 8.960938 -22.199219 9.722656 -22.164062 10.480469 -22.164062 C 11.339844 -22.164062 11.71875 -22.683594 11.71875 -23.542969 C 11.375 -24.199219 10.824219 -24.785156 9.996094 -24.785156 Z M 8.445312 -24.75 "/></g></g><g style="fill:rgb(100%,100%,100%);fill-opacity:1;"><g transform="translate(37.622893, 55.713191)"><path style="stroke:none;" d="M 9.167969 -5.136719 C 8.308594 -5.136719 8.101562 -4.515625 7.824219 -3.757812 L 7.824219 -3.792969 C 7.582031 -3.171875 7.34375 -2.449219 6.515625 -2.34375 L 6.273438 -2.34375 C 4.652344 -2.34375 3.964844 -3 3.964844 -4.894531 L 3.964844 -5.585938 C 3.964844 -5.652344 4 -5.757812 4 -5.859375 L 4 -6.03125 C 4.03125 -6.550781 4.03125 -7.03125 4.03125 -7.550781 C 4.03125 -8.203125 4 -8.894531 3.964844 -9.582031 C 3.929688 -10.167969 3.929688 -10.71875 3.929688 -11.238281 L 3.929688 -11.925781 C 3.894531 -12.273438 3.859375 -12.582031 3.859375 -12.890625 C 3.859375 -14.304688 4.171875 -15.71875 6.308594 -15.71875 C 6.964844 -15.71875 7.859375 -15.410156 7.859375 -14.789062 C 8.03125 -14.167969 8.410156 -13.167969 9.480469 -13.167969 C 10.03125 -13.167969 10.582031 -13.683594 10.582031 -14.476562 C 10.582031 -15.996094 9.515625 -17.648438 7.960938 -18.234375 C 7.582031 -18.304688 6.238281 -18.40625 5.6875 -18.40625 C 1.308594 -18.40625 1.207031 -14.375 1.207031 -11.375 C 1.207031 -10.617188 1.277344 -9.925781 1.308594 -9.238281 C 1.34375 -8.546875 1.378906 -7.859375 1.378906 -7.171875 L 1.378906 -5.6875 C 1.378906 -5.515625 1.34375 -5.308594 1.34375 -5.101562 C 1.34375 -3.828125 1.480469 -2.480469 2.242188 -1.515625 C 3.136719 -0.414062 4.894531 0.449219 6.480469 0.449219 C 8.617188 0.449219 10.753906 -1.035156 10.753906 -3.550781 C 10.753906 -4.378906 10.375 -5 9.238281 -5.136719 Z M 9.167969 -5.136719 "/></g></g><g style="fill:rgb(100%,100%,100%);fill-opacity:1;"><g transform="translate(49.721629, 55.713191)"><path style="stroke:none;" d="M 8.582031 -18.339844 C 4.101562 -18.339844 0.621094 -13.167969 0.621094 -9.582031 L 0.621094 -8.617188 C 1.035156 -3.171875 3.550781 -0.378906 8.546875 0.449219 L 9.167969 0.449219 C 14.925781 0.449219 16.375 -4.207031 16.375 -8.375 C 16.375 -9.582031 16.269531 -10.511719 16.027344 -11.304688 L 15.996094 -11.304688 C 15.132812 -14.71875 12.511719 -18.339844 8.582031 -18.339844 Z M 11.789062 -3 C 11.273438 -2.480469 10.308594 -2.34375 9.066406 -2.34375 C 8.859375 -2.34375 8.652344 -2.34375 8.445312 -2.378906 L 8.480469 -2.378906 C 4.894531 -3 3.207031 -5.617188 3.207031 -8.546875 C 3.207031 -9.753906 3.34375 -11.03125 3.929688 -12.167969 L 3.929688 -12.132812 C 5.101562 -14.375 6.722656 -15.753906 8.582031 -15.753906 C 9.445312 -15.753906 10.273438 -15.410156 11.097656 -14.683594 L 12.097656 -13.71875 C 13.097656 -12.304688 13.683594 -10.410156 13.683594 -8.6875 L 13.683594 -8.273438 C 13.546875 -5.964844 13.0625 -4.136719 11.789062 -3 Z M 11.789062 -3 "/></g></g><g style="fill:rgb(100%,100%,100%);fill-opacity:1;"><g transform="translate(67.128645, 55.713191)"><path style="stroke:none;" d="M 11.132812 -22.957031 C 10.824219 -23.371094 10.546875 -23.714844 10.101562 -23.957031 C 9.617188 -24.300781 7.582031 -24.648438 7.238281 -24.679688 L 5.308594 -24.75 L 5.066406 -24.75 C 4.308594 -24.785156 3.585938 -24.820312 2.792969 -24.820312 C 2.035156 -24.820312 1.585938 -24.300781 1.414062 -23.371094 L 1.515625 -20.957031 C 1.550781 -20.097656 1.550781 -19.234375 1.550781 -18.371094 L 1.550781 -14.511719 C 1.550781 -14.097656 1.515625 -13.617188 1.515625 -13.132812 L 1.515625 -10.582031 C 1.515625 -9.480469 1.585938 -8.617188 1.65625 -7.789062 C 1.722656 -7.03125 1.757812 -6.308594 1.757812 -5.550781 C 1.757812 -3.515625 1.757812 -2 1.792969 -0.792969 C 2 -0.0351562 3 0.136719 3.757812 0.136719 C 4.378906 -0.277344 4.617188 -0.863281 4.617188 -1.621094 L 4.617188 -1.929688 C 4.550781 -2.894531 4.515625 -3.828125 4.515625 -4.859375 L 4.273438 -9.308594 C 5.480469 -9.203125 6.238281 -9.167969 6.964844 -9.167969 L 8.753906 -5.894531 C 9.722656 -4.101562 10.824219 -2.066406 11.617188 -0.308594 C 12.066406 -0.0351562 12.410156 0.0703125 12.753906 0.0703125 C 13.339844 0.0703125 14.03125 -0.277344 14.03125 -1.136719 C 14.03125 -1.171875 14.03125 -1.308594 13.855469 -1.828125 C 13.339844 -3.242188 12.789062 -4.238281 12.339844 -5.136719 L 11.960938 -5.996094 L 11.03125 -7.550781 L 11.03125 -7.515625 L 10.894531 -7.757812 C 10.511719 -8.410156 10.101562 -9.101562 9.824219 -9.6875 C 11.582031 -10.339844 12.71875 -12.753906 12.71875 -14.304688 L 12.71875 -14.441406 C 12.789062 -15.0625 12.789062 -15.617188 12.789062 -15.960938 L 12.789062 -17.582031 C 12.789062 -18.578125 12.753906 -19.269531 12.617188 -19.925781 L 12.410156 -20.511719 L 12.375 -20.648438 C 12.097656 -21.441406 11.789062 -22.300781 11.132812 -22.957031 Z M 9.824219 -19.511719 C 9.996094 -18.890625 10.101562 -17.027344 10.101562 -15.71875 C 10.101562 -14.441406 9.824219 -12.375 8.273438 -12.03125 C 7.6875 -11.925781 6.929688 -11.859375 6.515625 -11.859375 L 5.6875 -11.859375 C 5.34375 -11.859375 5 -11.925781 4.722656 -11.996094 C 4.617188 -11.996094 4.445312 -12.066406 4.34375 -12.066406 C 4.34375 -12.238281 4.308594 -12.304688 4.273438 -12.410156 L 4.207031 -13.132812 L 4.207031 -13.960938 C 4.207031 -14.582031 4.171875 -15.234375 4.171875 -15.855469 C 4.136719 -16.511719 4.136719 -17.167969 4.136719 -17.855469 L 4.136719 -20.648438 C 4.136719 -21.0625 4.171875 -21.511719 4.171875 -21.957031 L 4.171875 -22.0625 C 4.308594 -22.097656 4.414062 -22.097656 4.515625 -22.097656 L 5.722656 -22.097656 C 6.03125 -22.097656 6.550781 -22.097656 6.894531 -22.0625 C 8.894531 -21.855469 9.167969 -21.511719 9.722656 -20.0625 Z M 9.824219 -19.511719 "/></g></g><g style="fill:rgb(100%,100%,100%);fill-opacity:1;"><g transform="translate(82.39856, 55.713191)"><path style="stroke:none;" d="M 10.03125 -5.101562 L 9.859375 -5.136719 C 9.167969 -5.101562 8.6875 -4.6875 8.375 -3.859375 L 8.34375 -3.757812 L 8.34375 -3.792969 C 8.273438 -3.6875 8.238281 -3.414062 8.238281 -3.207031 C 8.238281 -3.136719 8.203125 -2.859375 8.136719 -2.792969 C 7.960938 -2.449219 7.550781 -2.308594 7.066406 -2.308594 C 4.480469 -2.308594 3.585938 -3.550781 3.585938 -5.929688 C 3.585938 -6.171875 3.550781 -6.410156 3.550781 -6.617188 L 3.550781 -7.203125 C 3.515625 -7.550781 3.515625 -7.824219 3.515625 -8.136719 L 3.515625 -8.789062 C 4.308594 -8.894531 5.308594 -8.894531 7.03125 -8.894531 L 7.445312 -8.894531 L 7.722656 -8.859375 C 7.789062 -8.859375 7.894531 -8.859375 7.960938 -8.824219 C 8.03125 -8.824219 8.101562 -8.789062 8.203125 -8.789062 C 8.375 -8.753906 8.6875 -8.722656 8.859375 -8.722656 C 9.6875 -8.722656 10.238281 -9.101562 10.652344 -9.789062 L 10.6875 -10.066406 C 10.238281 -16.753906 9.480469 -18.511719 5.550781 -18.511719 C 2.273438 -18.511719 0.757812 -16.683594 0.757812 -10.753906 C 0.757812 -8.238281 0.828125 -3.550781 1.722656 -2.273438 C 2.6875 -0.277344 4.824219 0.378906 6.550781 0.378906 L 6.722656 0.378906 C 8.996094 0.207031 10.894531 -0.308594 10.894531 -3.515625 C 10.894531 -4.34375 10.6875 -4.824219 10.03125 -5.101562 Z M 4.273438 -15.375 C 4.445312 -15.683594 4.894531 -15.753906 5.550781 -15.855469 L 5.792969 -15.855469 C 6.308594 -15.855469 6.722656 -15.71875 7.03125 -15.582031 L 6.996094 -15.582031 C 7.375 -15.375 7.550781 -14.683594 7.617188 -13.652344 C 7.6875 -13.097656 7.722656 -12.445312 7.757812 -11.375 L 6.101562 -11.375 C 5.308594 -11.410156 4.617188 -11.410156 4.03125 -11.410156 L 3.515625 -11.410156 C 3.480469 -11.753906 3.480469 -12.066406 3.480469 -12.511719 C 3.480469 -13.546875 3.621094 -14.476562 4.273438 -15.375 Z M 4.273438 -15.375 "/></g></g><g style="fill:rgb(100%,100%,100%);fill-opacity:1;"><g transform="translate(94.462827, 55.713191)"><path style="stroke:none;" d="M 11.445312 -13.476562 C 11.445312 -14.890625 11.445312 -16.234375 10.511719 -17.167969 C 9.652344 -18.027344 8.375 -18.371094 7.101562 -18.371094 C 6.378906 -18.371094 5.652344 -18.269531 5.171875 -18.132812 C 3.378906 -17.613281 1.964844 -16.753906 1.757812 -14.789062 C 1.585938 -13.269531 1.515625 -11.6875 1.515625 -10.132812 L 1.515625 -3.242188 C 1.515625 -2.242188 1.480469 -0.585938 2.449219 -0.101562 C 2.722656 0.0703125 3 0.101562 3.136719 0.101562 C 4.273438 0.101562 4.273438 -1.34375 4.273438 -2.621094 L 4.273438 -4.03125 C 4.273438 -5.757812 4.273438 -7.722656 4.238281 -9.339844 C 4.207031 -10.375 4.171875 -11.410156 4.171875 -12.410156 C 4.171875 -12.925781 4.207031 -13.375 4.273438 -13.890625 C 4.273438 -13.960938 4.308594 -14.0625 4.308594 -14.167969 C 4.414062 -14.960938 5.859375 -15.617188 6.824219 -15.820312 C 7.960938 -15.789062 8.582031 -15.234375 8.753906 -13.996094 C 8.894531 -12.996094 8.894531 -11.925781 8.894531 -10.859375 L 8.894531 -8.753906 C 8.859375 -8.066406 8.859375 -7.375 8.859375 -6.722656 L 8.859375 -3.414062 C 8.859375 -1.828125 8.960938 0 10.339844 0 C 11.617188 0 11.617188 -0.828125 11.617188 -2.066406 L 11.617188 -2.6875 C 11.617188 -3.6875 11.546875 -4.6875 11.480469 -5.378906 C 11.445312 -5.652344 11.445312 -5.792969 11.445312 -5.929688 Z M 11.445312 -13.476562 "/></g></g><g style="fill:rgb(100%,100%,100%);fill-opacity:1;"><g transform="translate(108.353971, 55.713191)"><path style="stroke:none;" d="M 7.929688 -3.621094 C 7.550781 -2.792969 7.273438 -2.136719 6.378906 -2.136719 C 5.207031 -2.207031 4.792969 -3.550781 4.792969 -4.6875 C 4.792969 -5.308594 4.792969 -5.824219 4.824219 -6.203125 C 4.824219 -6.515625 4.859375 -6.789062 4.859375 -7.03125 L 4.859375 -8.238281 C 4.859375 -9.101562 4.824219 -10.03125 4.824219 -10.925781 L 4.824219 -14.238281 C 4.824219 -14.582031 4.859375 -15.167969 4.722656 -15.234375 C 4.859375 -15.234375 5.03125 -15.234375 5.171875 -15.269531 L 5.101562 -15.269531 L 7.375 -15.375 C 8.136719 -15.410156 8.515625 -15.789062 8.515625 -16.476562 C 8.515625 -17.167969 7.6875 -17.925781 6.824219 -17.925781 C 6.273438 -17.925781 5.34375 -17.855469 4.859375 -17.820312 C 4.824219 -18.511719 4.792969 -19.199219 4.792969 -19.648438 L 4.792969 -22.855469 C 4.792969 -23.542969 4.03125 -23.992188 3.273438 -23.992188 C 2.828125 -23.992188 2.414062 -23.75 2.308594 -23.371094 L 2.378906 -23.441406 C 2.136719 -23.027344 1.894531 -22.128906 1.894531 -21.714844 C 1.894531 -19.648438 2 -18.925781 2.066406 -18.476562 C 2.066406 -18.269531 2.101562 -18.0625 2.136719 -17.820312 L 1.242188 -17.820312 C 1.101562 -17.820312 0.929688 -17.855469 0.792969 -17.855469 C 0.34375 -17.855469 -0.308594 -16.789062 -0.308594 -16.304688 C -0.308594 -15.269531 0.863281 -14.996094 1.722656 -14.996094 L 2.101562 -14.996094 C 2.101562 -12.753906 2.136719 -10.582031 2.207031 -8.410156 L 2.207031 -8.238281 C 2.207031 -7.757812 2.171875 -6.894531 2.171875 -6.480469 L 2.171875 -4.652344 C 2.171875 -3.550781 2.207031 -2.515625 2.722656 -1.550781 C 3.515625 -0.34375 5.03125 0.515625 6.378906 0.515625 C 8.617188 0.515625 9.753906 -0.6875 10.273438 -2.515625 C 10.339844 -2.828125 10.339844 -3.035156 10.339844 -3.171875 C 10.339844 -4.136719 9.960938 -4.617188 9.167969 -4.617188 C 8.546875 -4.617188 8.203125 -4.136719 8.03125 -3.792969 C 7.996094 -3.722656 8.066406 -3.757812 8.03125 -3.722656 Z M 7.929688 -3.621094 "/></g></g></g></svg>