<?xml version="1.0" encoding="UTF-8"?><svg xmlns="http://www.w3.org/2000/svg" xmlns:xlink="http://www.w3.org/1999/xlink" width="375pt" zoomAndPan="magnify" viewBox="0 0 375 187.499995" height="187.499995pt" preserveAspectRatio="xMidYMid meet" version="1.2"><defs><g/><clipPath xml:id="clip1" id="clip1"><path d="M 244 3 L 321 3 L 321 157 L 244 157 Z M 244 3 "/></clipPath><clipPath xml:id="clip2" id="clip2"><path d="M 243.890625 156.800781 L 218.5 18.488281 L 364.167969 -8.253906 L 389.5625 130.058594 Z M 243.890625 156.800781 "/></clipPath><clipPath xml:id="clip3" id="clip3"><path d="M 218.5 18.488281 L 243.890625 156.800781 L 389.5625 130.058594 L 364.167969 -8.253906 Z M 218.5 18.488281 "/></clipPath><clipPath xml:id="clip4" id="clip4"><path d="M 294 106 L 373 106 L 373 140 L 294 140 Z M 294 106 "/></clipPath><clipPath xml:id="clip5" id="clip5"><path d="M 243.890625 156.800781 L 218.5 18.488281 L 364.167969 -8.253906 L 389.5625 130.058594 Z M 243.890625 156.800781 "/></clipPath><clipPath xml:id="clip6" id="clip6"><path d="M 218.5 18.488281 L 243.890625 156.800781 L 389.5625 130.058594 L 364.167969 -8.253906 Z M 218.5 18.488281 "/></clipPath><clipPath xml:id="clip7" id="clip7"><path d="M 326 35 L 374 35 L 374 88 L 326 88 Z M 326 35 "/></clipPath><clipPath xml:id="clip8" id="clip8"><path d="M 243.890625 156.800781 L 218.5 18.488281 L 364.167969 -8.253906 L 389.5625 130.058594 Z M 243.890625 156.800781 "/></clipPath><clipPath xml:id="clip9" id="clip9"><path d="M 218.5 18.488281 L 243.890625 156.800781 L 389.5625 130.058594 L 364.167969 -8.253906 Z M 218.5 18.488281 "/></clipPath><clipPath xml:id="clip10" id="clip10"><path d="M 54.53125 59 L 317.078125 59 L 317.078125 162 L 54.53125 162 Z M 54.53125 59 "/></clipPath></defs><g xml:id="surface1" id="surface1"><g clip-rule="nonzero" clip-path="url(#clip1)"><g clip-rule="nonzero" clip-path="url(#clip2)"><g clip-rule="nonzero" clip-path="url(#clip3)"><path style=" stroke:none;fill-rule:nonzero;fill:rgb(13.328552%,25.878906%,23.919678%);fill-opacity:1;" d="M 300.386719 3.628906 C 302.996094 2.941406 305.589844 2.996094 308.164062 3.792969 C 309.996094 4.378906 311.777344 5.097656 313.507812 5.941406 C 317.769531 7.851562 319.902344 11.265625 320.382812 15.832031 C 321.074219 22.425781 320.070312 28.882812 318.679688 35.28125 C 317.949219 38.652344 316.859375 41.953125 315.925781 45.285156 C 314.996094 48.613281 313.996094 51.921875 313.152344 55.28125 C 312.167969 59.191406 310.476562 62.902344 309.929688 66.9375 C 309.808594 67.714844 309.507812 68.410156 309.027344 69.027344 C 308.101562 70.285156 307.46875 71.671875 307.128906 73.191406 C 306.914062 73.933594 306.605469 74.636719 306.207031 75.296875 C 303.921875 79.300781 301.621094 83.296875 299.308594 87.285156 C 298.828125 88.121094 298.273438 88.917969 297.871094 89.789062 C 295.820312 93.929688 293.53125 97.9375 291.011719 101.8125 C 289.421875 104.683594 287.492188 107.308594 285.21875 109.683594 C 284.058594 110.96875 283.019531 112.351562 282.101562 113.824219 C 279.734375 117.097656 277.476562 120.457031 274.984375 123.632812 C 273.332031 125.730469 270.980469 127.347656 269.617188 129.589844 C 268.199219 131.878906 266.605469 134.035156 264.839844 136.0625 C 262.84375 138.398438 260.582031 140.535156 258.773438 143.003906 C 256.945312 145.503906 254.664062 147.558594 252.707031 149.921875 C 250.753906 152.285156 247.910156 153.722656 245.953125 156.101562 C 245.648438 156.472656 244.515625 156.367188 244.371094 155.992188 C 244.238281 155.648438 244.035156 155.207031 244.144531 154.910156 C 245.363281 151.679688 246.542969 148.425781 247.925781 145.265625 C 249.488281 141.539062 251.246094 137.90625 253.195312 134.367188 C 254.109375 132.667969 254.855469 130.898438 255.433594 129.058594 C 256.042969 127.230469 256.847656 125.492188 257.851562 123.84375 C 259.835938 120.519531 261.324219 116.984375 262.3125 113.242188 C 263.984375 107.332031 265.527344 101.382812 266.941406 95.398438 C 268.492188 88.855469 270.210938 82.351562 270.886719 75.617188 C 271.308594 71.414062 272.246094 67.265625 272.804688 63.070312 C 273.386719 58.6875 273.933594 54.300781 274.242188 49.890625 C 274.859375 42.976562 276.085938 36.175781 277.929688 29.484375 C 278.109375 28.738281 278.347656 28.011719 278.652344 27.308594 C 279.910156 24.496094 281.214844 21.710938 282.496094 18.914062 C 283.789062 16.089844 285.476562 13.527344 287.5625 11.226562 C 290.972656 7.464844 294.984375 4.542969 300.386719 3.628906 Z M 300.386719 3.628906 "/></g></g></g><g clip-rule="nonzero" clip-path="url(#clip4)"><g clip-rule="nonzero" clip-path="url(#clip5)"><g clip-rule="nonzero" clip-path="url(#clip6)"><path style=" stroke:none;fill-rule:nonzero;fill:rgb(95.289612%,91.369629%,82.348633%);fill-opacity:1;" d="M 355.457031 135.640625 C 347.082031 136.695312 340.820312 137.347656 334.429688 136.976562 C 323.832031 136.253906 313.308594 136.816406 302.851562 138.667969 C 300.582031 139.085938 298.304688 139.445312 296.019531 139.761719 C 295.449219 139.785156 294.890625 139.714844 294.339844 139.550781 C 294.199219 139.414062 294.144531 139.25 294.175781 139.054688 C 294.429688 138.566406 294.765625 138.144531 295.1875 137.792969 C 300.386719 134.507812 305.464844 131.042969 310.359375 127.320312 C 315.613281 123.425781 321.121094 119.933594 326.886719 116.847656 C 329.070312 115.640625 331.210938 114.347656 333.292969 112.976562 C 338.375 109.691406 343.914062 107.648438 349.910156 106.847656 C 351.628906 106.636719 353.351562 106.652344 355.070312 106.890625 C 359.878906 107.410156 363.808594 109.734375 367.417969 112.6875 C 368.625 113.660156 369.648438 114.800781 370.488281 116.109375 C 371.328125 117.414062 371.941406 118.820312 372.324219 120.324219 C 372.59375 121.261719 372.609375 122.207031 372.375 123.152344 C 371.9375 124.847656 371.195312 126.398438 370.140625 127.800781 C 369.089844 129.203125 367.808594 130.347656 366.300781 131.242188 C 362.253906 133.519531 358.070312 135.417969 355.457031 135.640625 Z M 355.457031 135.640625 "/></g></g></g><g clip-rule="nonzero" clip-path="url(#clip7)"><g clip-rule="nonzero" clip-path="url(#clip8)"><g clip-rule="nonzero" clip-path="url(#clip9)"><path style=" stroke:none;fill-rule:nonzero;fill:rgb(78.819275%,88.62915%,39.608765%);fill-opacity:1;" d="M 372.988281 41.566406 C 373.070312 42.730469 373.074219 43.503906 373.1875 44.261719 C 373.496094 46.367188 373.441406 48.464844 373.027344 50.554688 C 372.613281 52.640625 371.863281 54.597656 370.773438 56.429688 C 368.574219 60.296875 365.789062 63.6875 362.425781 66.601562 C 358.890625 69.847656 355.101562 72.765625 351.066406 75.363281 C 349.269531 76.460938 347.542969 77.675781 345.765625 78.804688 C 340.378906 82.144531 334.726562 84.960938 328.816406 87.246094 C 328.453125 87.382812 328.082031 87.472656 327.703125 87.519531 C 327.535156 87.539062 327.238281 87.46875 327.1875 87.351562 C 327.042969 87.042969 326.824219 86.605469 326.945312 86.363281 C 329.519531 81.015625 332.664062 75.964844 335.085938 70.535156 C 335.707031 69.136719 336.527344 67.828125 337.148438 66.429688 C 339.34375 61.507812 342.828125 57.332031 345.289062 52.558594 C 345.621094 52.085938 346 51.65625 346.421875 51.261719 C 351.246094 45.742188 356.757812 41.023438 362.957031 37.105469 C 363.75 36.566406 364.589844 36.109375 365.472656 35.730469 C 366.1875 35.453125 366.925781 35.265625 367.6875 35.164062 C 368.113281 35.082031 368.542969 35.074219 368.976562 35.148438 C 369.40625 35.21875 369.808594 35.363281 370.1875 35.582031 C 370.566406 35.800781 370.890625 36.078125 371.167969 36.417969 C 371.445312 36.753906 371.65625 37.128906 371.796875 37.542969 C 372.320312 38.976562 372.671875 40.472656 372.988281 41.566406 Z M 372.988281 41.566406 "/></g></g></g><g clip-rule="nonzero" clip-path="url(#clip10)"><path style=" stroke:none;fill-rule:nonzero;fill:rgb(1.179504%,59.609985%,61.959839%);fill-opacity:1;" d="M 317.078125 161.027344 L 54.53125 161.027344 L 54.53125 59.410156 L 317.078125 59.410156 L 317.078125 161.027344 "/></g><path style=" stroke:none;fill-rule:nonzero;fill:rgb(0%,50.19989%,21.569824%);fill-opacity:1;" d="M 302.1875 185.207031 L 302.1875 169.363281 C 302.1875 168.910156 302 168.460938 301.675781 168.136719 C 301.355469 167.816406 300.910156 167.632812 300.453125 167.632812 L 284.914062 167.632812 L 284.914062 74.316406 C 284.914062 73.863281 284.734375 73.414062 284.410156 73.089844 C 284.089844 72.769531 283.644531 72.585938 283.183594 72.585938 L 278.121094 72.585938 L 278.121094 63.566406 C 278.121094 63.113281 277.9375 62.664062 277.617188 62.339844 C 277.292969 62.019531 276.84375 61.835938 276.390625 61.835938 L 250.347656 61.835938 C 249.890625 61.835938 249.445312 62.019531 249.121094 62.339844 C 248.800781 62.664062 248.613281 63.113281 248.613281 63.566406 L 248.613281 72.585938 L 241.855469 72.585938 C 241.394531 72.585938 240.949219 72.769531 240.628906 73.089844 C 240.304688 73.414062 240.125 73.863281 240.125 74.316406 L 240.125 167.632812 L 236.226562 167.632812 L 236.226562 21.132812 C 236.226562 20.566406 235.953125 20.035156 235.484375 19.710938 C 235.019531 19.382812 234.421875 19.3125 233.890625 19.511719 L 185.203125 37.617188 C 184.523438 37.867188 184.074219 38.519531 184.074219 39.242188 L 184.074219 167.632812 L 177.914062 167.632812 L 177.914062 49.992188 C 177.914062 49.535156 177.730469 49.089844 177.40625 48.761719 C 177.085938 48.441406 176.636719 48.257812 176.183594 48.257812 L 171.121094 48.257812 L 171.121094 39.242188 C 171.121094 38.785156 170.9375 38.339844 170.613281 38.015625 C 170.292969 37.695312 169.84375 37.507812 169.390625 37.507812 L 142.210938 37.507812 C 141.753906 37.507812 141.308594 37.695312 140.988281 38.015625 C 140.660156 38.339844 140.476562 38.785156 140.476562 39.242188 L 140.476562 48.257812 L 136.550781 48.257812 C 136.09375 48.257812 135.644531 48.441406 135.320312 48.761719 C 135 49.089844 134.816406 49.535156 134.816406 49.992188 L 134.816406 167.632812 L 126.394531 167.632812 L 126.394531 66.960938 C 126.394531 66.503906 126.207031 66.058594 125.882812 65.738281 C 125.5625 65.414062 125.113281 65.226562 124.660156 65.226562 L 88.425781 65.226562 C 87.96875 65.226562 87.523438 65.414062 87.199219 65.738281 C 86.875 66.058594 86.691406 66.503906 86.691406 66.960938 L 86.691406 167.632812 L 71.15625 167.632812 C 70.699219 167.632812 70.25 167.816406 69.929688 168.136719 C 69.605469 168.460938 69.421875 168.910156 69.421875 169.363281 L 69.421875 185.207031 C 69.421875 186.164062 70.199219 186.9375 71.15625 186.9375 C 72.113281 186.9375 72.886719 186.164062 72.886719 185.207031 L 72.886719 171.097656 L 88.425781 171.097656 C 88.882812 171.097656 89.328125 170.910156 89.648438 170.589844 C 89.972656 170.265625 90.160156 169.820312 90.160156 169.363281 L 90.160156 68.691406 L 122.925781 68.691406 L 122.925781 169.363281 C 122.925781 169.820312 123.109375 170.265625 123.429688 170.589844 C 123.757812 170.910156 124.203125 171.097656 124.660156 171.097656 L 136.550781 171.097656 C 137.003906 171.097656 137.453125 170.910156 137.773438 170.589844 C 138.097656 170.265625 138.28125 169.820312 138.28125 169.363281 L 138.28125 51.722656 L 142.210938 51.722656 C 142.664062 51.722656 143.113281 51.539062 143.4375 51.210938 C 143.757812 50.890625 143.941406 50.445312 143.941406 49.992188 L 143.941406 40.972656 L 167.65625 40.972656 L 167.65625 49.992188 C 167.65625 50.445312 167.839844 50.890625 168.160156 51.210938 C 168.480469 51.539062 168.929688 51.722656 169.390625 51.722656 L 174.449219 51.722656 L 174.449219 169.363281 C 174.449219 169.820312 174.632812 170.265625 174.953125 170.589844 C 175.28125 170.910156 175.726562 171.097656 176.183594 171.097656 L 185.804688 171.097656 C 186.261719 171.097656 186.710938 170.910156 187.03125 170.589844 C 187.355469 170.265625 187.539062 169.820312 187.539062 169.363281 L 187.539062 40.445312 L 232.761719 23.625 L 232.761719 169.363281 C 232.761719 169.820312 232.945312 170.265625 233.269531 170.589844 C 233.589844 170.910156 234.039062 171.097656 234.496094 171.097656 L 241.855469 171.097656 C 242.3125 171.097656 242.757812 170.910156 243.078125 170.589844 C 243.402344 170.265625 243.589844 169.820312 243.589844 169.363281 L 243.589844 76.050781 L 250.347656 76.050781 C 250.804688 76.050781 251.25 75.863281 251.570312 75.539062 C 251.894531 75.21875 252.082031 74.773438 252.082031 74.316406 L 252.082031 65.300781 L 274.65625 65.300781 L 274.65625 74.316406 C 274.65625 74.773438 274.839844 75.21875 275.164062 75.539062 C 275.484375 75.863281 275.933594 76.050781 276.390625 76.050781 L 281.449219 76.050781 L 281.449219 169.363281 C 281.449219 169.820312 281.632812 170.265625 281.960938 170.589844 C 282.285156 170.910156 282.726562 171.097656 283.183594 171.097656 L 298.71875 171.097656 L 298.71875 185.207031 C 298.71875 186.164062 299.496094 186.9375 300.453125 186.9375 C 301.410156 186.9375 302.1875 186.164062 302.1875 185.207031 "/><path style=" stroke:none;fill-rule:nonzero;fill:rgb(0%,50.19989%,21.569824%);fill-opacity:1;" d="M 153.957031 39.242188 L 153.957031 1.332031 C 153.957031 0.628906 153.382812 0.0585938 152.683594 0.0585938 C 151.976562 0.0585938 151.40625 0.628906 151.40625 1.332031 L 151.40625 39.242188 C 151.40625 39.945312 151.976562 40.511719 152.683594 40.511719 C 153.382812 40.511719 153.957031 39.945312 153.957031 39.242188 "/><g style="fill:rgb(100%,100%,100%);fill-opacity:1;"><g transform="translate(55.036487, 143.88752)"><path style="stroke:none;" d="M 23.210938 -68.015625 C 21.503906 -67.828125 20.460938 -67.734375 16.863281 -67.734375 L 12.21875 -67.734375 C 11.558594 -67.734375 11.082031 -67.828125 10.515625 -67.828125 C 5.117188 -67.828125 4.546875 -65.742188 4.546875 -63.847656 L 4.546875 -62.902344 C 4.546875 -60.25 4.640625 -58.449219 4.832031 -56.839844 C 5.019531 -55.230469 5.210938 -52.957031 5.210938 -49.828125 L 5.210938 -48.027344 C 5.210938 -46.417969 5.117188 -44.996094 5.019531 -43.386719 C 4.925781 -41.207031 4.832031 -38.746094 4.832031 -34.671875 C 4.832031 -32.777344 4.832031 -29.460938 4.925781 -27 C 5.019531 -23.777344 5.117188 -20.273438 5.117188 -17.242188 C 5.117188 -12.597656 5.019531 -8.714844 4.738281 -5.117188 C 4.738281 -0.472656 6.726562 0.191406 9.1875 0.191406 L 9.945312 0.191406 C 13.074219 0.09375 15.0625 0.191406 16.386719 0.285156 L 17.621094 0.285156 C 18.757812 0.285156 20.652344 0.191406 21.882812 0.09375 C 23.210938 0 24.914062 -0.09375 25.957031 0 L 29.175781 0.09375 C 30.125 0.09375 31.449219 -1.421875 31.449219 -2.652344 C 31.449219 -6.253906 29.273438 -7.011719 26.144531 -7.011719 C 24.535156 -7.011719 23.019531 -6.914062 21.597656 -6.820312 C 20.460938 -6.726562 19.230469 -6.726562 18.09375 -6.726562 C 16.484375 -6.726562 14.304688 -6.632812 12.503906 -6.726562 L 12.503906 -9.566406 C 12.503906 -12.21875 12.410156 -13.167969 12.410156 -13.640625 L 12.410156 -14.019531 L 12.597656 -21.410156 L 12.597656 -22.453125 C 12.597656 -23.492188 12.597656 -25.105469 12.503906 -26.144531 C 12.503906 -27.28125 12.410156 -28.324219 12.410156 -29.273438 L 12.410156 -32.398438 C 14.398438 -32.398438 14.96875 -32.492188 16.386719 -32.492188 C 17.429688 -32.492188 18.378906 -32.492188 19.515625 -32.398438 L 22.261719 -32.398438 C 24.628906 -32.398438 25.671875 -33.441406 25.671875 -35.808594 C 25.007812 -38.175781 23.589844 -39.3125 21.695312 -39.3125 L 19.894531 -39.3125 L 15.820312 -39.410156 C 14.777344 -39.503906 13.261719 -39.503906 12.125 -39.503906 C 12.125 -43.480469 12.125 -46.324219 12.21875 -50.207031 C 12.21875 -53.617188 12.316406 -57.40625 12.316406 -61.101562 C 14.683594 -61.292969 15.535156 -61.195312 17.429688 -61.195312 C 19.042969 -61.195312 20.839844 -61.195312 22.640625 -61.101562 C 24.628906 -61.007812 26.714844 -60.914062 28.796875 -60.914062 C 31.167969 -60.914062 32.207031 -62.332031 32.207031 -64.703125 C 31.261719 -66.5 29.746094 -68.113281 27.472656 -68.113281 Z M 23.210938 -68.015625 "/></g></g><g style="fill:rgb(100%,100%,100%);fill-opacity:1;"><g transform="translate(92.548747, 143.88752)"><path style="stroke:none;" d="M 25.199219 -14.113281 C 22.832031 -14.113281 22.261719 -12.410156 21.503906 -10.324219 L 21.503906 -10.421875 C 20.839844 -8.714844 20.179688 -6.726562 17.90625 -6.441406 L 17.242188 -6.441406 C 12.789062 -6.441406 10.894531 -8.242188 10.894531 -13.453125 L 10.894531 -15.347656 C 10.894531 -15.535156 10.988281 -15.820312 10.988281 -16.105469 L 10.988281 -16.578125 C 11.082031 -18 11.082031 -19.324219 11.082031 -20.746094 C 11.082031 -22.546875 10.988281 -24.441406 10.894531 -26.335938 C 10.800781 -27.945312 10.800781 -29.460938 10.800781 -30.882812 L 10.800781 -32.777344 C 10.703125 -33.722656 10.609375 -34.578125 10.609375 -35.429688 C 10.609375 -39.3125 11.460938 -43.199219 17.335938 -43.199219 C 19.136719 -43.199219 21.597656 -42.34375 21.597656 -40.640625 C 22.074219 -38.933594 23.113281 -36.1875 26.050781 -36.1875 C 27.566406 -36.1875 29.082031 -37.609375 29.082031 -39.789062 C 29.082031 -43.957031 26.144531 -48.503906 21.882812 -50.113281 C 20.839844 -50.300781 17.148438 -50.585938 15.628906 -50.585938 C 3.601562 -50.585938 3.316406 -39.503906 3.316406 -31.261719 C 3.316406 -29.175781 3.503906 -27.28125 3.601562 -25.386719 C 3.695312 -23.492188 3.789062 -21.597656 3.789062 -19.703125 L 3.789062 -15.628906 C 3.789062 -15.15625 3.695312 -14.589844 3.695312 -14.019531 C 3.695312 -10.515625 4.074219 -6.820312 6.15625 -4.167969 C 8.621094 -1.136719 13.453125 1.230469 17.808594 1.230469 C 23.683594 1.230469 29.554688 -2.84375 29.554688 -9.757812 C 29.554688 -12.03125 28.515625 -13.734375 25.386719 -14.113281 Z M 25.199219 -14.113281 "/></g></g><g style="fill:rgb(100%,100%,100%);fill-opacity:1;"><g transform="translate(125.798248, 143.88752)"><path style="stroke:none;" d="M 23.589844 -50.398438 C 11.273438 -50.398438 1.707031 -36.1875 1.707031 -26.335938 L 1.707031 -23.683594 C 2.84375 -8.714844 9.757812 -1.042969 23.492188 1.230469 L 25.199219 1.230469 C 41.019531 1.230469 44.996094 -11.558594 44.996094 -23.019531 C 44.996094 -26.335938 44.714844 -28.894531 44.050781 -31.070312 L 43.957031 -31.070312 C 41.585938 -40.449219 34.386719 -50.398438 23.589844 -50.398438 Z M 32.398438 -8.242188 C 30.976562 -6.820312 28.324219 -6.441406 24.914062 -6.441406 C 24.347656 -6.441406 23.777344 -6.441406 23.210938 -6.535156 L 23.304688 -6.535156 C 13.453125 -8.242188 8.808594 -15.441406 8.808594 -23.492188 C 8.808594 -26.808594 9.1875 -30.3125 10.800781 -33.441406 L 10.800781 -33.34375 C 14.019531 -39.503906 18.472656 -43.292969 23.589844 -43.292969 C 25.957031 -43.292969 28.230469 -42.34375 30.503906 -40.355469 L 33.25 -37.703125 C 36 -33.820312 37.609375 -28.609375 37.609375 -23.871094 L 37.609375 -22.734375 C 37.230469 -16.386719 35.902344 -11.367188 32.398438 -8.242188 Z M 32.398438 -8.242188 "/></g></g><g style="fill:rgb(100%,100%,100%);fill-opacity:1;"><g transform="translate(173.635853, 143.88752)"><path style="stroke:none;" d="M 30.597656 -63.089844 C 29.746094 -64.226562 28.988281 -65.175781 27.757812 -65.839844 C 26.429688 -66.785156 20.839844 -67.734375 19.894531 -67.828125 L 14.589844 -68.015625 L 13.925781 -68.015625 C 11.839844 -68.113281 9.851562 -68.207031 7.671875 -68.207031 C 5.589844 -68.207031 4.359375 -66.785156 3.882812 -64.226562 L 4.167969 -57.597656 C 4.261719 -55.230469 4.261719 -52.859375 4.261719 -50.492188 L 4.261719 -39.882812 C 4.261719 -38.746094 4.167969 -37.417969 4.167969 -36.09375 L 4.167969 -29.082031 C 4.167969 -26.050781 4.359375 -23.683594 4.546875 -21.410156 C 4.738281 -19.324219 4.832031 -17.335938 4.832031 -15.25 C 4.832031 -9.664062 4.832031 -5.496094 4.925781 -2.179688 C 5.496094 -0.09375 8.242188 0.378906 10.324219 0.378906 C 12.03125 -0.757812 12.695312 -2.367188 12.695312 -4.453125 L 12.695312 -5.304688 C 12.503906 -7.957031 12.410156 -10.515625 12.410156 -13.355469 L 11.746094 -25.578125 C 15.0625 -25.292969 17.148438 -25.199219 19.136719 -25.199219 L 24.0625 -16.199219 C 26.714844 -11.273438 29.746094 -5.683594 31.925781 -0.851562 C 33.15625 -0.09375 34.101562 0.191406 35.050781 0.191406 C 36.660156 0.191406 38.554688 -0.757812 38.554688 -3.125 C 38.554688 -3.222656 38.554688 -3.601562 38.082031 -5.019531 C 36.660156 -8.90625 35.144531 -11.652344 33.914062 -14.113281 L 32.871094 -16.484375 L 30.3125 -20.746094 L 30.3125 -20.652344 L 29.933594 -21.316406 C 28.894531 -23.113281 27.757812 -25.007812 27 -26.621094 C 31.828125 -28.417969 34.957031 -35.050781 34.957031 -39.3125 L 34.957031 -39.691406 C 35.144531 -41.398438 35.144531 -42.914062 35.144531 -43.859375 L 35.144531 -48.3125 C 35.144531 -51.058594 35.050781 -52.957031 34.671875 -54.753906 L 34.101562 -56.367188 L 34.007812 -56.746094 C 33.25 -58.921875 32.398438 -61.292969 30.597656 -63.089844 Z M 27 -53.617188 C 27.472656 -51.914062 27.757812 -46.796875 27.757812 -43.199219 C 27.757812 -39.691406 27 -34.007812 22.734375 -33.0625 C 21.125 -32.777344 19.042969 -32.585938 17.90625 -32.585938 L 15.628906 -32.585938 C 14.683594 -32.585938 13.734375 -32.777344 12.976562 -32.964844 C 12.695312 -32.964844 12.21875 -33.15625 11.9375 -33.15625 C 11.9375 -33.628906 11.839844 -33.820312 11.746094 -34.101562 L 11.558594 -36.09375 L 11.558594 -38.367188 C 11.558594 -40.070312 11.460938 -41.871094 11.460938 -43.578125 C 11.367188 -45.375 11.367188 -47.175781 11.367188 -49.070312 L 11.367188 -56.746094 C 11.367188 -57.882812 11.460938 -59.113281 11.460938 -60.34375 L 11.460938 -60.628906 C 11.839844 -60.722656 12.125 -60.722656 12.410156 -60.722656 L 15.726562 -60.722656 C 16.578125 -60.722656 18 -60.722656 18.945312 -60.628906 C 24.441406 -60.058594 25.199219 -59.113281 26.714844 -55.132812 Z M 27 -53.617188 "/></g></g><g style="fill:rgb(100%,100%,100%);fill-opacity:1;"><g transform="translate(215.600323, 143.88752)"><path style="stroke:none;" d="M 27.566406 -14.019531 L 27.09375 -14.113281 C 25.199219 -14.019531 23.871094 -12.882812 23.019531 -10.609375 L 22.925781 -10.324219 L 22.925781 -10.421875 C 22.734375 -10.136719 22.640625 -9.378906 22.640625 -8.808594 C 22.640625 -8.621094 22.546875 -7.863281 22.355469 -7.671875 C 21.882812 -6.726562 20.746094 -6.347656 19.421875 -6.347656 C 12.316406 -6.347656 9.851562 -9.757812 9.851562 -16.292969 C 9.851562 -16.957031 9.757812 -17.621094 9.757812 -18.1875 L 9.757812 -19.800781 C 9.664062 -20.746094 9.664062 -21.503906 9.664062 -22.355469 L 9.664062 -24.15625 C 11.839844 -24.441406 14.589844 -24.441406 19.324219 -24.441406 L 20.460938 -24.441406 L 21.21875 -24.347656 C 21.410156 -24.347656 21.695312 -24.347656 21.882812 -24.25 C 22.074219 -24.25 22.261719 -24.15625 22.546875 -24.15625 C 23.019531 -24.0625 23.871094 -23.96875 24.347656 -23.96875 C 26.621094 -23.96875 28.136719 -25.007812 29.273438 -26.902344 L 29.367188 -27.660156 C 28.136719 -46.039062 26.050781 -50.871094 15.25 -50.871094 C 6.253906 -50.871094 2.085938 -45.851562 2.085938 -29.554688 C 2.085938 -22.640625 2.273438 -9.757812 4.738281 -6.253906 C 7.390625 -0.757812 13.261719 1.042969 18 1.042969 L 18.472656 1.042969 C 24.726562 0.570312 29.933594 -0.851562 29.933594 -9.664062 C 29.933594 -11.9375 29.367188 -13.261719 27.566406 -14.019531 Z M 11.746094 -42.25 C 12.21875 -43.101562 13.453125 -43.292969 15.25 -43.578125 L 15.914062 -43.578125 C 17.335938 -43.578125 18.472656 -43.199219 19.324219 -42.820312 L 19.230469 -42.820312 C 20.273438 -42.25 20.746094 -40.355469 20.9375 -37.515625 C 21.125 -36 21.21875 -34.199219 21.316406 -31.261719 L 16.765625 -31.261719 C 14.589844 -31.355469 12.695312 -31.355469 11.082031 -31.355469 L 9.664062 -31.355469 C 9.566406 -32.304688 9.566406 -33.15625 9.566406 -34.386719 C 9.566406 -37.230469 9.945312 -39.789062 11.746094 -42.25 Z M 11.746094 -42.25 "/></g></g><g style="fill:rgb(100%,100%,100%);fill-opacity:1;"><g transform="translate(248.755098, 143.88752)"><path style="stroke:none;" d="M 31.449219 -37.039062 C 31.449219 -40.925781 31.449219 -44.617188 28.894531 -47.175781 C 26.523438 -49.542969 23.019531 -50.492188 19.515625 -50.492188 C 17.527344 -50.492188 15.535156 -50.207031 14.210938 -49.828125 C 9.285156 -48.40625 5.398438 -46.039062 4.832031 -40.640625 C 4.359375 -36.472656 4.167969 -32.113281 4.167969 -27.851562 L 4.167969 -8.90625 C 4.167969 -6.15625 4.074219 -1.609375 6.726562 -0.285156 C 7.484375 0.191406 8.242188 0.285156 8.621094 0.285156 C 11.746094 0.285156 11.746094 -3.695312 11.746094 -7.199219 L 11.746094 -11.082031 C 11.746094 -15.820312 11.746094 -21.21875 11.652344 -25.671875 C 11.558594 -28.515625 11.460938 -31.355469 11.460938 -34.101562 C 11.460938 -35.523438 11.558594 -36.757812 11.746094 -38.175781 C 11.746094 -38.367188 11.839844 -38.652344 11.839844 -38.933594 C 12.125 -41.113281 16.105469 -42.914062 18.757812 -43.480469 C 21.882812 -43.386719 23.589844 -41.871094 24.0625 -38.460938 C 24.441406 -35.714844 24.441406 -32.777344 24.441406 -29.839844 L 24.441406 -24.0625 C 24.347656 -22.167969 24.347656 -20.273438 24.347656 -18.472656 L 24.347656 -9.378906 C 24.347656 -5.019531 24.628906 0 28.417969 0 C 31.925781 0 31.925781 -2.273438 31.925781 -5.683594 L 31.925781 -7.390625 C 31.925781 -10.136719 31.734375 -12.882812 31.546875 -14.777344 C 31.449219 -15.535156 31.449219 -15.914062 31.449219 -16.292969 Z M 31.449219 -37.039062 "/></g></g><g style="fill:rgb(100%,100%,100%);fill-opacity:1;"><g transform="translate(286.930456, 143.88752)"><path style="stroke:none;" d="M 21.789062 -9.945312 C 20.746094 -7.671875 19.988281 -5.875 17.527344 -5.875 C 14.304688 -6.0625 13.167969 -9.757812 13.167969 -12.882812 C 13.167969 -14.589844 13.167969 -16.007812 13.261719 -17.050781 C 13.261719 -17.90625 13.355469 -18.664062 13.355469 -19.324219 L 13.355469 -22.640625 C 13.355469 -25.007812 13.261719 -27.566406 13.261719 -30.03125 L 13.261719 -39.125 C 13.261719 -40.070312 13.355469 -41.683594 12.976562 -41.871094 C 13.355469 -41.871094 13.832031 -41.871094 14.210938 -41.964844 L 14.019531 -41.964844 L 20.273438 -42.25 C 22.355469 -42.34375 23.398438 -43.386719 23.398438 -45.28125 C 23.398438 -47.175781 21.125 -49.261719 18.757812 -49.261719 C 17.242188 -49.261719 14.683594 -49.070312 13.355469 -48.976562 C 13.261719 -50.871094 13.167969 -52.765625 13.167969 -53.996094 L 13.167969 -62.808594 C 13.167969 -64.703125 11.082031 -65.933594 9 -65.933594 C 7.769531 -65.933594 6.632812 -65.269531 6.347656 -64.226562 L 6.535156 -64.417969 C 5.875 -63.28125 5.210938 -60.816406 5.210938 -59.679688 C 5.210938 -53.996094 5.496094 -52.007812 5.683594 -50.777344 C 5.683594 -50.207031 5.777344 -49.640625 5.875 -48.976562 L 3.410156 -48.976562 C 3.03125 -48.976562 2.558594 -49.070312 2.179688 -49.070312 C 0.949219 -49.070312 -0.851562 -46.132812 -0.851562 -44.808594 C -0.851562 -41.964844 2.367188 -41.207031 4.738281 -41.207031 L 5.777344 -41.207031 C 5.777344 -35.050781 5.875 -29.082031 6.0625 -23.113281 L 6.0625 -22.640625 C 6.0625 -21.316406 5.96875 -18.945312 5.96875 -17.808594 L 5.96875 -12.789062 C 5.96875 -9.757812 6.0625 -6.914062 7.484375 -4.261719 C 9.664062 -0.949219 13.832031 1.421875 17.527344 1.421875 C 23.683594 1.421875 26.808594 -1.894531 28.230469 -6.914062 C 28.417969 -7.769531 28.417969 -8.335938 28.417969 -8.714844 C 28.417969 -11.367188 27.378906 -12.695312 25.199219 -12.695312 C 23.492188 -12.695312 22.546875 -11.367188 22.074219 -10.421875 C 21.976562 -10.230469 22.167969 -10.324219 22.074219 -10.230469 Z M 21.789062 -9.945312 "/></g></g></g></svg>