<?xml version="1.0" encoding="UTF-8"?><svg xmlns="http://www.w3.org/2000/svg" xmlns:xlink="http://www.w3.org/1999/xlink" width="375pt" zoomAndPan="magnify" viewBox="0 0 375 187.499995" height="187.499995pt" preserveAspectRatio="xMidYMid meet" version="1.2"><defs><g/><clipPath xml:id="clip1" id="clip1"><path d="M 318 123 L 361 123 L 361 153 L 318 153 Z M 318 123 "/></clipPath><clipPath xml:id="clip2" id="clip2"><path d="M 349.59375 62.570312 L 394.464844 102.15625 L 336.566406 167.785156 L 291.695312 128.195312 Z M 349.59375 62.570312 "/></clipPath><clipPath xml:id="clip3" id="clip3"><path d="M 349.59375 62.570312 L 394.464844 102.15625 L 336.566406 167.785156 L 291.695312 128.195312 Z M 349.59375 62.570312 "/></clipPath><clipPath xml:id="clip4" id="clip4"><path d="M 329 73 L 365 73 L 365 129 L 329 129 Z M 329 73 "/></clipPath><clipPath xml:id="clip5" id="clip5"><path d="M 349.59375 62.570312 L 394.464844 102.15625 L 336.566406 167.785156 L 291.695312 128.195312 Z M 349.59375 62.570312 "/></clipPath><clipPath xml:id="clip6" id="clip6"><path d="M 349.59375 62.570312 L 394.464844 102.15625 L 336.566406 167.785156 L 291.695312 128.195312 Z M 349.59375 62.570312 "/></clipPath><clipPath xml:id="clip7" id="clip7"><path d="M 325 86 L 341 86 L 341 130 L 325 130 Z M 325 86 "/></clipPath><clipPath xml:id="clip8" id="clip8"><path d="M 349.59375 62.570312 L 394.464844 102.15625 L 336.566406 167.785156 L 291.695312 128.195312 Z M 349.59375 62.570312 "/></clipPath><clipPath xml:id="clip9" id="clip9"><path d="M 349.59375 62.570312 L 394.464844 102.15625 L 336.566406 167.785156 L 291.695312 128.195312 Z M 349.59375 62.570312 "/></clipPath><clipPath xml:id="clip10" id="clip10"><path d="M 325 131 L 347 131 L 347 145 L 325 145 Z M 325 131 "/></clipPath><clipPath xml:id="clip11" id="clip11"><path d="M 349.59375 62.570312 L 394.464844 102.15625 L 336.566406 167.785156 L 291.695312 128.195312 Z M 349.59375 62.570312 "/></clipPath><clipPath xml:id="clip12" id="clip12"><path d="M 349.59375 62.570312 L 394.464844 102.15625 L 336.566406 167.785156 L 291.695312 128.195312 Z M 349.59375 62.570312 "/></clipPath><clipPath xml:id="clip13" id="clip13"><path d="M 352 110 L 361 110 L 361 119 L 352 119 Z M 352 110 "/></clipPath><clipPath xml:id="clip14" id="clip14"><path d="M 349.59375 62.570312 L 394.464844 102.15625 L 336.566406 167.785156 L 291.695312 128.195312 Z M 349.59375 62.570312 "/></clipPath><clipPath xml:id="clip15" id="clip15"><path d="M 349.59375 62.570312 L 394.464844 102.15625 L 336.566406 167.785156 L 291.695312 128.195312 Z M 349.59375 62.570312 "/></clipPath><clipPath xml:id="clip16" id="clip16"><path d="M 287 18 L 373 18 L 373 81 L 287 81 Z M 287 18 "/></clipPath><clipPath xml:id="clip17" id="clip17"><path d="M 318.683594 -32.691406 L 381.976562 38.148438 L 307.230469 104.933594 L 243.9375 34.09375 Z M 318.683594 -32.691406 "/></clipPath><clipPath xml:id="clip18" id="clip18"><path d="M 318.683594 -32.691406 L 381.976562 38.148438 L 307.230469 104.933594 L 243.9375 34.09375 Z M 318.683594 -32.691406 "/></clipPath><clipPath xml:id="clip19" id="clip19"><path d="M 273 2 L 295 2 L 295 69 L 273 69 Z M 273 2 "/></clipPath><clipPath xml:id="clip20" id="clip20"><path d="M 318.683594 -32.691406 L 381.976562 38.148438 L 307.230469 104.933594 L 243.9375 34.09375 Z M 318.683594 -32.691406 "/></clipPath><clipPath xml:id="clip21" id="clip21"><path d="M 318.683594 -32.691406 L 381.976562 38.148438 L 307.230469 104.933594 L 243.9375 34.09375 Z M 318.683594 -32.691406 "/></clipPath><clipPath xml:id="clip22" id="clip22"><path d="M 303 3 L 327 3 L 327 42 L 303 42 Z M 303 3 "/></clipPath><clipPath xml:id="clip23" id="clip23"><path d="M 318.683594 -32.691406 L 381.976562 38.148438 L 307.230469 104.933594 L 243.9375 34.09375 Z M 318.683594 -32.691406 "/></clipPath><clipPath xml:id="clip24" id="clip24"><path d="M 318.683594 -32.691406 L 381.976562 38.148438 L 307.230469 104.933594 L 243.9375 34.09375 Z M 318.683594 -32.691406 "/></clipPath><clipPath xml:id="clip25" id="clip25"><path d="M 261 47 L 277 47 L 277 68 L 261 68 Z M 261 47 "/></clipPath><clipPath xml:id="clip26" id="clip26"><path d="M 318.683594 -32.691406 L 381.976562 38.148438 L 307.230469 104.933594 L 243.9375 34.09375 Z M 318.683594 -32.691406 "/></clipPath><clipPath xml:id="clip27" id="clip27"><path d="M 318.683594 -32.691406 L 381.976562 38.148438 L 307.230469 104.933594 L 243.9375 34.09375 Z M 318.683594 -32.691406 "/></clipPath><clipPath xml:id="clip28" id="clip28"><path d="M 301 66 L 330 66 L 330 83 L 301 83 Z M 301 66 "/></clipPath><clipPath xml:id="clip29" id="clip29"><path d="M 318.683594 -32.691406 L 381.976562 38.148438 L 307.230469 104.933594 L 243.9375 34.09375 Z M 318.683594 -32.691406 "/></clipPath><clipPath xml:id="clip30" id="clip30"><path d="M 318.683594 -32.691406 L 381.976562 38.148438 L 307.230469 104.933594 L 243.9375 34.09375 Z M 318.683594 -32.691406 "/></clipPath><clipPath xml:id="clip31" id="clip31"><path d="M 336 62 L 347 62 L 347 74 L 336 74 Z M 336 62 "/></clipPath><clipPath xml:id="clip32" id="clip32"><path d="M 318.683594 -32.691406 L 381.976562 38.148438 L 307.230469 104.933594 L 243.9375 34.09375 Z M 318.683594 -32.691406 "/></clipPath><clipPath xml:id="clip33" id="clip33"><path d="M 318.683594 -32.691406 L 381.976562 38.148438 L 307.230469 104.933594 L 243.9375 34.09375 Z M 318.683594 -32.691406 "/></clipPath><clipPath xml:id="clip34" id="clip34"><path d="M 263 30 L 270 30 L 270 39 L 263 39 Z M 263 30 "/></clipPath><clipPath xml:id="clip35" id="clip35"><path d="M 318.683594 -32.691406 L 381.976562 38.148438 L 307.230469 104.933594 L 243.9375 34.09375 Z M 318.683594 -32.691406 "/></clipPath><clipPath xml:id="clip36" id="clip36"><path d="M 318.683594 -32.691406 L 381.976562 38.148438 L 307.230469 104.933594 L 243.9375 34.09375 Z M 318.683594 -32.691406 "/></clipPath><clipPath xml:id="clip37" id="clip37"><path d="M 335 7 L 343 7 L 343 15 L 335 15 Z M 335 7 "/></clipPath><clipPath xml:id="clip38" id="clip38"><path d="M 318.683594 -32.691406 L 381.976562 38.148438 L 307.230469 104.933594 L 243.9375 34.09375 Z M 318.683594 -32.691406 "/></clipPath><clipPath xml:id="clip39" id="clip39"><path d="M 318.683594 -32.691406 L 381.976562 38.148438 L 307.230469 104.933594 L 243.9375 34.09375 Z M 318.683594 -32.691406 "/></clipPath><clipPath xml:id="clip40" id="clip40"><path d="M 54.53125 59 L 317.078125 59 L 317.078125 162 L 54.53125 162 Z M 54.53125 59 "/></clipPath></defs><g xml:id="surface1" id="surface1"><g clip-rule="nonzero" clip-path="url(#clip1)"><g clip-rule="nonzero" clip-path="url(#clip2)"><g clip-rule="nonzero" clip-path="url(#clip3)"><path style=" stroke:none;fill-rule:nonzero;fill:rgb(95.289612%,91.369629%,82.348633%);fill-opacity:1;" d="M 320.875 151.816406 C 329.417969 150.40625 338.246094 151.003906 346.574219 147.667969 C 352.3125 145.371094 359.800781 141.289062 360.542969 134.566406 C 361.226562 128.3125 357.414062 123.910156 351.210938 123.570312 C 344.171875 123.183594 337.25 128.808594 332.003906 133.089844 C 329.191406 135.386719 315.972656 149.480469 318.988281 152.300781 C 319.339844 152.078125 319.546875 152.152344 320.875 151.816406 Z M 320.875 151.816406 "/></g></g></g><g clip-rule="nonzero" clip-path="url(#clip4)"><g clip-rule="nonzero" clip-path="url(#clip5)"><g clip-rule="nonzero" clip-path="url(#clip6)"><path style=" stroke:none;fill-rule:nonzero;fill:rgb(49.409485%,85.099792%,34.118652%);fill-opacity:1;" d="M 331.914062 127.613281 C 335.59375 123.003906 340.894531 119.570312 345.039062 115.375 C 349.007812 111.359375 353.109375 107.5 356.765625 103.109375 C 360.832031 98.21875 365.511719 89.050781 363.941406 82.417969 C 361.792969 73.363281 350.195312 71.09375 344 77.0625 C 335.832031 84.921875 334.582031 97.144531 332.722656 107.757812 C 331.539062 114.492188 329.324219 121.824219 329.949219 128.746094 C 330.621094 128.875 331.089844 128.675781 331.914062 127.613281 Z M 331.914062 127.613281 "/></g></g></g><g clip-rule="nonzero" clip-path="url(#clip7)"><g clip-rule="nonzero" clip-path="url(#clip8)"><g clip-rule="nonzero" clip-path="url(#clip9)"><path style=" stroke:none;fill-rule:nonzero;fill:rgb(78.819275%,88.62915%,39.608765%);fill-opacity:1;" d="M 329.695312 129.109375 C 332.699219 126.113281 334.167969 120.066406 336.019531 116.132812 C 337.691406 112.460938 338.882812 108.640625 339.59375 104.671875 C 340.578125 99.65625 342.035156 90.75 336.410156 87.679688 C 330.417969 84.40625 326.851562 93.425781 326.226562 97.808594 C 325.492188 103.285156 325.882812 108.679688 327.394531 113.996094 C 328.652344 118.648438 329.75 123.273438 329.695312 129.109375 Z M 329.695312 129.109375 "/></g></g></g><g clip-rule="nonzero" clip-path="url(#clip10)"><g clip-rule="nonzero" clip-path="url(#clip11)"><g clip-rule="nonzero" clip-path="url(#clip12)"><path style=" stroke:none;fill-rule:nonzero;fill:rgb(1.179504%,59.609985%,61.959839%);fill-opacity:1;" d="M 325.214844 144.714844 C 327.644531 141.570312 334.433594 141.863281 337.945312 140.722656 C 340.753906 139.808594 344.878906 137.699219 346.480469 135.074219 C 348.261719 132.148438 344.664062 130.957031 342.300781 131.140625 C 338.394531 131.445312 335.792969 134.675781 332.773438 136.945312 C 329.789062 139.082031 327.269531 141.671875 325.214844 144.714844 Z M 325.214844 144.714844 "/></g></g></g><g clip-rule="nonzero" clip-path="url(#clip13)"><g clip-rule="nonzero" clip-path="url(#clip14)"><g clip-rule="nonzero" clip-path="url(#clip15)"><path style=" stroke:none;fill-rule:nonzero;fill:rgb(78.819275%,88.62915%,39.608765%);fill-opacity:1;" d="M 358.769531 112.359375 C 362.101562 114.753906 358.523438 119.332031 355.3125 118.910156 C 351.699219 118.433594 351.929688 113.980469 353.882812 111.761719 C 355.070312 110.410156 356.976562 110.316406 358.769531 112.359375 Z M 358.769531 112.359375 "/></g></g></g><g clip-rule="nonzero" clip-path="url(#clip16)"><g clip-rule="nonzero" clip-path="url(#clip17)"><g clip-rule="nonzero" clip-path="url(#clip18)"><path style=" stroke:none;fill-rule:nonzero;fill:rgb(95.289612%,91.369629%,82.348633%);fill-opacity:1;" d="M 336.152344 23.648438 C 335.578125 24.40625 334.890625 25.042969 334.085938 25.550781 C 332.488281 26.546875 331.023438 27.753906 329.421875 28.742188 C 328.015625 29.582031 326.726562 30.570312 325.550781 31.707031 C 324.851562 32.492188 324.011719 33.074219 323.03125 33.453125 C 322.628906 33.582031 322.285156 33.882812 321.886719 34.039062 C 321.28125 34.246094 320.863281 34.648438 320.640625 35.25 C 320.53125 35.582031 320.347656 35.867188 320.09375 36.113281 C 319.84375 36.355469 319.546875 36.523438 319.210938 36.621094 C 318.882812 36.746094 318.617188 36.941406 318.40625 37.21875 C 317.441406 38.421875 316.554688 39.6875 315.199219 40.515625 C 314.980469 40.660156 314.8125 40.847656 314.691406 41.082031 C 314.320312 41.660156 313.886719 42.1875 313.382812 42.660156 C 312.539062 43.628906 311.734375 44.636719 310.9375 45.648438 C 310.355469 46.386719 309.914062 47.246094 309.066406 47.75 C 308.273438 49.097656 307.105469 50.109375 306.039062 51.214844 C 305.65625 51.679688 305.316406 52.171875 305.023438 52.699219 C 304.867188 53.007812 304.695312 53.300781 304.496094 53.582031 C 303.8125 54.347656 302.964844 54.996094 302.414062 55.84375 C 301.855469 56.699219 301.46875 57.660156 300.742188 58.421875 C 300.410156 58.816406 300.101562 59.230469 299.820312 59.65625 C 298.949219 60.816406 298.488281 62.273438 297.253906 63.175781 C 297.132812 63.300781 297.050781 63.449219 297.003906 63.617188 C 296.394531 65.0625 295.378906 66.238281 294.425781 67.445312 C 293.816406 68.171875 293.335938 68.972656 292.980469 69.851562 C 292.324219 71.539062 291.460938 73.117188 290.386719 74.578125 C 289.4375 75.898438 288.636719 77.328125 287.800781 78.730469 C 287.640625 79.03125 287.535156 79.355469 287.492188 79.695312 C 287.488281 79.871094 287.550781 80.015625 287.6875 80.125 C 287.835938 80.222656 287.992188 80.242188 288.15625 80.179688 C 288.824219 79.796875 289.464844 79.367188 290.078125 78.898438 C 291.796875 77.476562 293.46875 75.996094 295.183594 74.566406 C 296.988281 72.96875 298.953125 71.59375 301.070312 70.445312 C 303.015625 69.519531 304.863281 68.433594 306.617188 67.1875 C 306.898438 66.984375 307.203125 66.828125 307.53125 66.71875 C 308.578125 66.316406 309.5625 65.804688 310.492188 65.179688 C 312.917969 63.71875 315.332031 62.230469 317.996094 61.214844 C 318.710938 60.914062 319.402344 60.570312 320.070312 60.179688 C 322.597656 58.886719 325.195312 57.765625 327.875 56.820312 C 331 55.625 334.207031 54.632812 337.382812 53.554688 C 338.765625 53.085938 340.226562 52.867188 341.609375 52.4375 C 343.992188 51.691406 346.425781 51.160156 348.828125 50.503906 C 350.578125 50.0625 352.300781 49.527344 353.992188 48.90625 C 357.46875 47.632812 360.804688 46.066406 364.003906 44.207031 C 366.078125 42.949219 368.019531 41.570312 369.496094 39.613281 C 369.804688 39.203125 370.175781 38.84375 370.515625 38.453125 C 372.839844 35.753906 373.234375 32.613281 372.558594 29.246094 C 372.472656 28.90625 372.328125 28.601562 372.117188 28.320312 C 371.128906 26.914062 370.152344 25.488281 369.101562 24.125 C 368.433594 23.214844 367.628906 22.445312 366.691406 21.808594 C 365.757812 21.175781 364.742188 20.710938 363.648438 20.425781 C 363.234375 20.316406 362.824219 20.183594 362.402344 20.089844 C 359.964844 19.546875 357.507812 19.152344 355.023438 18.902344 C 353.558594 18.75 352.101562 18.800781 350.648438 19.050781 C 349.292969 19.289062 347.949219 19.570312 346.597656 19.835938 C 346.105469 19.984375 345.601562 20.078125 345.085938 20.121094 C 344.476562 20.132812 343.902344 20.285156 343.371094 20.578125 C 341.433594 21.503906 339.488281 22.414062 337.550781 23.339844 C 337.082031 23.574219 336.585938 23.683594 336.0625 23.667969 Z M 336.152344 23.648438 "/></g></g></g><g clip-rule="nonzero" clip-path="url(#clip19)"><g clip-rule="nonzero" clip-path="url(#clip20)"><g clip-rule="nonzero" clip-path="url(#clip21)"><path style=" stroke:none;fill-rule:nonzero;fill:rgb(0%,50.19989%,21.569824%);fill-opacity:1;" d="M 275.984375 7.058594 C 274.328125 9.402344 273.984375 12.402344 273.660156 15.40625 C 273.867188 18.234375 274.046875 21.070312 274.882812 23.8125 C 275.109375 24.550781 275.324219 25.296875 275.53125 26.042969 C 276.234375 28.613281 276.902344 31.195312 277.691406 33.746094 C 278.019531 34.8125 278.40625 35.863281 278.78125 36.917969 C 279.070312 37.730469 279.382812 38.53125 279.6875 39.335938 C 280.808594 42.316406 281.691406 45.375 282.726562 48.382812 C 283.820312 51.566406 284.695312 54.804688 285.351562 58.097656 C 285.929688 60.953125 286.703125 63.808594 286.566406 66.773438 C 286.519531 67.230469 286.65625 67.625 286.976562 67.953125 C 287.128906 68.097656 287.316406 68.117188 287.4375 67.964844 C 287.613281 67.78125 287.742188 67.566406 287.828125 67.328125 C 288.382812 65.25 288.933594 63.171875 289.4375 61.082031 C 289.617188 60.332031 289.667969 59.554688 289.773438 58.785156 C 289.949219 57.507812 290.074219 56.222656 290.3125 54.957031 C 290.726562 52.757812 291.214844 50.574219 291.433594 48.34375 C 291.449219 47.996094 291.515625 47.660156 291.625 47.332031 C 292.160156 46.039062 292.257812 44.667969 292.445312 43.300781 C 292.644531 41.855469 292.949219 40.421875 293.21875 38.984375 C 293.296875 38.5625 293.457031 38.15625 293.519531 37.734375 C 294.035156 34.070312 294.175781 30.375 294.535156 26.695312 C 294.550781 26.4375 294.535156 26.179688 294.496094 25.925781 C 294.25 23.699219 294 21.476562 293.746094 19.253906 C 293.675781 18.65625 293.574219 18.058594 293.476562 17.464844 C 293.082031 14.988281 292.527344 12.566406 291.113281 10.425781 C 290.789062 9.914062 290.503906 9.382812 290.257812 8.832031 C 289.382812 6.992188 287.96875 5.625 286.441406 4.34375 C 285.425781 3.480469 284.253906 2.976562 282.925781 2.839844 C 280.421875 2.566406 278.34375 3.320312 276.910156 5.496094 C 276.628906 5.925781 276.382812 6.382812 275.984375 7.058594 Z M 275.984375 7.058594 "/></g></g></g><g clip-rule="nonzero" clip-path="url(#clip22)"><g clip-rule="nonzero" clip-path="url(#clip23)"><g clip-rule="nonzero" clip-path="url(#clip24)"><path style=" stroke:none;fill-rule:nonzero;fill:rgb(49.409485%,85.099792%,34.118652%);fill-opacity:1;" d="M 324.007812 15.894531 C 324.574219 15.140625 325.078125 14.347656 325.527344 13.515625 C 326.367188 11.601562 326.796875 9.601562 326.816406 7.511719 C 326.84375 6.542969 326.609375 5.636719 326.121094 4.796875 C 325.789062 4.136719 325.265625 3.726562 324.542969 3.570312 C 322.253906 3.152344 320.082031 3.386719 318.207031 4.890625 C 314.566406 7.777344 311.871094 11.375 310.113281 15.679688 C 309.140625 17.871094 308.308594 20.121094 307.621094 22.421875 C 306.996094 24.738281 306.121094 26.992188 305.582031 29.324219 C 305.117188 31.328125 304.621094 33.324219 304.132812 35.320312 C 303.664062 37.242188 303.597656 39.222656 303.160156 41.144531 C 303.140625 41.230469 303.140625 41.316406 303.15625 41.402344 C 303.195312 41.566406 303.269531 41.859375 303.308594 41.859375 C 303.542969 41.839844 303.863281 41.828125 303.992188 41.675781 C 305.011719 40.628906 305.9375 39.511719 306.777344 38.316406 C 308.191406 36.054688 309.976562 34.078125 311.523438 31.921875 C 313.171875 29.628906 315.023438 27.476562 316.785156 25.261719 C 317.371094 24.523438 317.917969 23.746094 318.542969 23.042969 C 320.5625 20.8125 322.382812 18.429688 324.007812 15.894531 Z M 324.007812 15.894531 "/></g></g></g><g clip-rule="nonzero" clip-path="url(#clip25)"><g clip-rule="nonzero" clip-path="url(#clip26)"><g clip-rule="nonzero" clip-path="url(#clip27)"><path style=" stroke:none;fill-rule:nonzero;fill:rgb(95.289612%,91.369629%,82.348633%);fill-opacity:1;" d="M 269.195312 48.636719 C 266.984375 47.605469 264.800781 47.015625 262.34375 48.566406 C 261.910156 48.800781 261.59375 49.140625 261.382812 49.582031 C 261.175781 50.027344 261.117188 50.488281 261.210938 50.972656 C 261.457031 52.625 262.097656 54.109375 263.136719 55.421875 C 264.589844 57.144531 266.226562 58.667969 268.046875 59.988281 C 270.957031 62.035156 273.507812 64.457031 275.703125 67.253906 C 275.804688 67.394531 275.929688 67.511719 276.078125 67.597656 C 276.226562 67.6875 276.382812 67.71875 276.554688 67.691406 C 276.71875 67.636719 276.824219 67.523438 276.875 67.359375 C 276.929688 66.9375 276.921875 66.511719 276.851562 66.09375 C 276.625 65.085938 276.261719 64.105469 276.066406 63.09375 C 275.777344 61.570312 275.367188 60.078125 275.003906 58.570312 C 274.609375 56.972656 273.992188 55.464844 273.152344 54.046875 C 272.410156 52.78125 271.636719 51.535156 270.785156 50.34375 C 270.300781 49.734375 269.769531 49.164062 269.195312 48.636719 Z M 269.195312 48.636719 "/></g></g></g><g clip-rule="nonzero" clip-path="url(#clip28)"><g clip-rule="nonzero" clip-path="url(#clip29)"><g clip-rule="nonzero" clip-path="url(#clip30)"><path style=" stroke:none;fill-rule:nonzero;fill:rgb(78.819275%,88.62915%,39.608765%);fill-opacity:1;" d="M 323.613281 66.5 C 321.902344 66.296875 320.253906 66.519531 318.664062 67.171875 C 316.082031 68.363281 313.621094 69.753906 311.269531 71.351562 C 310.125 72.117188 309.046875 72.964844 308.035156 73.898438 C 305.792969 75.910156 303.902344 78.25 301.949219 80.53125 C 301.585938 81.011719 301.28125 81.527344 301.03125 82.074219 C 300.976562 82.179688 301.0625 82.417969 301.160156 82.527344 C 301.253906 82.636719 301.480469 82.761719 301.597656 82.722656 C 302.328125 82.480469 303.050781 82.210938 303.761719 81.917969 C 306.046875 80.910156 308.402344 80.109375 310.828125 79.519531 C 313.765625 78.882812 316.703125 78.195312 319.683594 77.828125 C 321.523438 77.601562 323.171875 76.90625 324.828125 76.21875 C 326.367188 75.554688 327.625 74.542969 328.601562 73.183594 C 328.804688 72.925781 328.957031 72.644531 329.066406 72.335938 C 329.175781 72.027344 329.230469 71.710938 329.234375 71.382812 C 329.238281 71.058594 329.1875 70.738281 329.085938 70.429688 C 328.984375 70.117188 328.835938 69.832031 328.640625 69.570312 C 327.21875 67.859375 325.492188 66.632812 323.613281 66.5 Z M 323.613281 66.5 "/></g></g></g><g clip-rule="nonzero" clip-path="url(#clip31)"><g clip-rule="nonzero" clip-path="url(#clip32)"><g clip-rule="nonzero" clip-path="url(#clip33)"><path style=" stroke:none;fill-rule:nonzero;fill:rgb(95.289612%,91.369629%,82.348633%);fill-opacity:1;" d="M 338.027344 64.671875 C 337.46875 65.882812 336.777344 67.070312 336.519531 68.445312 C 336.386719 69.160156 336.523438 69.816406 336.929688 70.421875 C 337.796875 71.753906 338.847656 72.863281 340.574219 72.992188 C 340.660156 73 340.746094 73.015625 340.828125 73.039062 C 341.296875 73.160156 341.765625 73.167969 342.234375 73.058594 C 342.707031 72.953125 343.125 72.742188 343.492188 72.429688 C 343.835938 72.171875 344.160156 71.890625 344.464844 71.589844 C 345.160156 70.921875 345.675781 70.140625 346.019531 69.242188 C 346.363281 68.347656 346.5 67.417969 346.429688 66.457031 C 346.414062 66.109375 346.335938 65.777344 346.191406 65.460938 C 345.621094 64.242188 344.757812 63.316406 343.386719 63.007812 C 342.882812 62.898438 342.375 62.824219 341.859375 62.792969 C 340.25 62.691406 339.089844 63.535156 338.027344 64.671875 Z M 338.027344 64.671875 "/></g></g></g><g clip-rule="nonzero" clip-path="url(#clip34)"><g clip-rule="nonzero" clip-path="url(#clip35)"><g clip-rule="nonzero" clip-path="url(#clip36)"><path style=" stroke:none;fill-rule:nonzero;fill:rgb(78.819275%,88.62915%,39.608765%);fill-opacity:1;" d="M 268.402344 36.628906 C 268.582031 36.277344 268.695312 36.046875 268.8125 35.820312 C 269.144531 35.191406 269.222656 34.53125 269.046875 33.839844 C 268.691406 32.222656 267.570312 31.390625 266.121094 30.910156 C 265.824219 30.8125 265.527344 30.808594 265.230469 30.890625 C 264.933594 30.972656 264.679688 31.128906 264.476562 31.359375 C 263.726562 32.117188 263.292969 33.023438 263.175781 34.082031 C 263.128906 34.425781 263.144531 34.761719 263.222656 35.097656 C 263.511719 36.195312 264.039062 37.160156 264.8125 37.996094 C 265.203125 38.398438 265.671875 38.542969 266.222656 38.433594 C 266.757812 38.375 267.203125 38.144531 267.554688 37.738281 C 267.890625 37.355469 268.175781 36.929688 268.402344 36.628906 Z M 268.402344 36.628906 "/></g></g></g><g clip-rule="nonzero" clip-path="url(#clip37)"><g clip-rule="nonzero" clip-path="url(#clip38)"><g clip-rule="nonzero" clip-path="url(#clip39)"><path style=" stroke:none;fill-rule:nonzero;fill:rgb(0%,50.19989%,21.569824%);fill-opacity:1;" d="M 342.066406 13.554688 C 342.011719 13.644531 342.101562 13.527344 342.15625 13.398438 C 342.554688 12.46875 342.703125 11.496094 342.601562 10.488281 C 342.5 9.480469 342.160156 8.558594 341.582031 7.722656 C 341.214844 7.226562 340.722656 6.992188 340.105469 7.015625 C 338.234375 6.9375 336.84375 7.84375 335.714844 9.199219 C 335.496094 9.574219 335.433594 9.972656 335.519531 10.398438 C 335.746094 11.855469 336.625 12.996094 337.492188 14.117188 C 338.484375 15.402344 341.058594 15.179688 342.066406 13.554688 Z M 342.066406 13.554688 "/></g></g></g><g clip-rule="nonzero" clip-path="url(#clip40)"><path style=" stroke:none;fill-rule:nonzero;fill:rgb(1.179504%,59.609985%,61.959839%);fill-opacity:1;" d="M 317.078125 161.027344 L 54.53125 161.027344 L 54.53125 59.410156 L 317.078125 59.410156 L 317.078125 161.027344 "/></g><path style=" stroke:none;fill-rule:nonzero;fill:rgb(0%,0%,0%);fill-opacity:1;" d="M 302.1875 185.207031 L 302.1875 169.363281 C 302.1875 168.910156 302 168.460938 301.675781 168.136719 C 301.355469 167.816406 300.910156 167.632812 300.453125 167.632812 L 284.914062 167.632812 L 284.914062 74.316406 C 284.914062 73.863281 284.734375 73.414062 284.410156 73.089844 C 284.089844 72.769531 283.644531 72.585938 283.183594 72.585938 L 278.121094 72.585938 L 278.121094 63.566406 C 278.121094 63.113281 277.9375 62.664062 277.617188 62.339844 C 277.292969 62.019531 276.84375 61.835938 276.390625 61.835938 L 250.347656 61.835938 C 249.890625 61.835938 249.445312 62.019531 249.121094 62.339844 C 248.800781 62.664062 248.613281 63.113281 248.613281 63.566406 L 248.613281 72.585938 L 241.855469 72.585938 C 241.394531 72.585938 240.949219 72.769531 240.628906 73.089844 C 240.304688 73.414062 240.125 73.863281 240.125 74.316406 L 240.125 167.632812 L 236.226562 167.632812 L 236.226562 21.132812 C 236.226562 20.566406 235.953125 20.035156 235.484375 19.710938 C 235.019531 19.382812 234.421875 19.3125 233.890625 19.511719 L 185.203125 37.617188 C 184.523438 37.867188 184.074219 38.519531 184.074219 39.242188 L 184.074219 167.632812 L 177.914062 167.632812 L 177.914062 49.992188 C 177.914062 49.535156 177.730469 49.089844 177.40625 48.761719 C 177.085938 48.441406 176.636719 48.257812 176.183594 48.257812 L 171.121094 48.257812 L 171.121094 39.242188 C 171.121094 38.785156 170.9375 38.339844 170.613281 38.015625 C 170.292969 37.695312 169.84375 37.507812 169.390625 37.507812 L 142.210938 37.507812 C 141.753906 37.507812 141.308594 37.695312 140.988281 38.015625 C 140.660156 38.339844 140.476562 38.785156 140.476562 39.242188 L 140.476562 48.257812 L 136.550781 48.257812 C 136.09375 48.257812 135.644531 48.441406 135.320312 48.761719 C 135 49.089844 134.816406 49.535156 134.816406 49.992188 L 134.816406 167.632812 L 126.394531 167.632812 L 126.394531 66.960938 C 126.394531 66.503906 126.207031 66.058594 125.882812 65.738281 C 125.5625 65.414062 125.113281 65.226562 124.660156 65.226562 L 88.425781 65.226562 C 87.96875 65.226562 87.523438 65.414062 87.199219 65.738281 C 86.875 66.058594 86.691406 66.503906 86.691406 66.960938 L 86.691406 167.632812 L 71.15625 167.632812 C 70.699219 167.632812 70.25 167.816406 69.929688 168.136719 C 69.605469 168.460938 69.421875 168.910156 69.421875 169.363281 L 69.421875 185.207031 C 69.421875 186.164062 70.199219 186.9375 71.15625 186.9375 C 72.113281 186.9375 72.886719 186.164062 72.886719 185.207031 L 72.886719 171.097656 L 88.425781 171.097656 C 88.882812 171.097656 89.328125 170.910156 89.648438 170.589844 C 89.972656 170.265625 90.160156 169.820312 90.160156 169.363281 L 90.160156 68.691406 L 122.925781 68.691406 L 122.925781 169.363281 C 122.925781 169.820312 123.109375 170.265625 123.429688 170.589844 C 123.757812 170.910156 124.203125 171.097656 124.660156 171.097656 L 136.550781 171.097656 C 137.003906 171.097656 137.453125 170.910156 137.773438 170.589844 C 138.097656 170.265625 138.28125 169.820312 138.28125 169.363281 L 138.28125 51.722656 L 142.210938 51.722656 C 142.664062 51.722656 143.113281 51.539062 143.4375 51.210938 C 143.757812 50.890625 143.941406 50.445312 143.941406 49.992188 L 143.941406 40.972656 L 167.65625 40.972656 L 167.65625 49.992188 C 167.65625 50.445312 167.839844 50.890625 168.160156 51.210938 C 168.480469 51.539062 168.929688 51.722656 169.390625 51.722656 L 174.449219 51.722656 L 174.449219 169.363281 C 174.449219 169.820312 174.632812 170.265625 174.953125 170.589844 C 175.28125 170.910156 175.726562 171.097656 176.183594 171.097656 L 185.804688 171.097656 C 186.261719 171.097656 186.710938 170.910156 187.03125 170.589844 C 187.355469 170.265625 187.539062 169.820312 187.539062 169.363281 L 187.539062 40.445312 L 232.761719 23.625 L 232.761719 169.363281 C 232.761719 169.820312 232.945312 170.265625 233.269531 170.589844 C 233.589844 170.910156 234.039062 171.097656 234.496094 171.097656 L 241.855469 171.097656 C 242.3125 171.097656 242.757812 170.910156 243.078125 170.589844 C 243.402344 170.265625 243.589844 169.820312 243.589844 169.363281 L 243.589844 76.050781 L 250.347656 76.050781 C 250.804688 76.050781 251.25 75.863281 251.570312 75.539062 C 251.894531 75.21875 252.082031 74.773438 252.082031 74.316406 L 252.082031 65.300781 L 274.65625 65.300781 L 274.65625 74.316406 C 274.65625 74.773438 274.839844 75.21875 275.164062 75.539062 C 275.484375 75.863281 275.933594 76.050781 276.390625 76.050781 L 281.449219 76.050781 L 281.449219 169.363281 C 281.449219 169.820312 281.632812 170.265625 281.960938 170.589844 C 282.285156 170.910156 282.726562 171.097656 283.183594 171.097656 L 298.71875 171.097656 L 298.71875 185.207031 C 298.71875 186.164062 299.496094 186.9375 300.453125 186.9375 C 301.410156 186.9375 302.1875 186.164062 302.1875 185.207031 "/><path style=" stroke:none;fill-rule:nonzero;fill:rgb(0%,0%,0%);fill-opacity:1;" d="M 153.957031 39.242188 L 153.957031 1.332031 C 153.957031 0.628906 153.382812 0.0585938 152.683594 0.0585938 C 151.976562 0.0585938 151.40625 0.628906 151.40625 1.332031 L 151.40625 39.242188 C 151.40625 39.945312 151.976562 40.511719 152.683594 40.511719 C 153.382812 40.511719 153.957031 39.945312 153.957031 39.242188 "/><g style="fill:rgb(100%,100%,100%);fill-opacity:1;"><g transform="translate(52.876793, 147.834705)"><path style="stroke:none;" d="M 23.375 -68.507812 C 21.660156 -68.316406 20.609375 -68.222656 16.984375 -68.222656 L 12.308594 -68.222656 C 11.640625 -68.222656 11.164062 -68.316406 10.589844 -68.316406 C 5.152344 -68.316406 4.578125 -66.21875 4.578125 -64.308594 L 4.578125 -63.355469 C 4.578125 -60.683594 4.675781 -58.871094 4.867188 -57.25 C 5.058594 -55.628906 5.246094 -53.335938 5.246094 -50.1875 L 5.246094 -48.375 C 5.246094 -46.753906 5.152344 -45.324219 5.058594 -43.699219 C 4.960938 -41.503906 4.867188 -39.023438 4.867188 -34.921875 C 4.867188 -33.015625 4.867188 -29.675781 4.960938 -27.195312 C 5.058594 -23.949219 5.152344 -20.417969 5.152344 -17.367188 C 5.152344 -12.691406 5.058594 -8.777344 4.769531 -5.152344 C 4.769531 -0.476562 6.773438 0.191406 9.253906 0.191406 L 10.019531 0.191406 C 13.167969 0.09375 15.171875 0.191406 16.507812 0.285156 L 17.746094 0.285156 C 18.890625 0.285156 20.800781 0.191406 22.039062 0.09375 C 23.375 0 25.09375 -0.09375 26.144531 0 L 29.386719 0.09375 C 30.34375 0.09375 31.679688 -1.429688 31.679688 -2.671875 C 31.679688 -6.296875 29.484375 -7.0625 26.335938 -7.0625 C 24.710938 -7.0625 23.1875 -6.964844 21.753906 -6.871094 C 20.609375 -6.773438 19.371094 -6.773438 18.222656 -6.773438 C 16.601562 -6.773438 14.40625 -6.679688 12.59375 -6.773438 L 12.59375 -9.636719 C 12.59375 -12.308594 12.5 -13.261719 12.5 -13.738281 L 12.5 -14.121094 L 12.691406 -21.5625 L 12.691406 -22.613281 C 12.691406 -23.664062 12.691406 -25.285156 12.59375 -26.335938 C 12.59375 -27.480469 12.5 -28.527344 12.5 -29.484375 L 12.5 -32.632812 C 14.503906 -32.632812 15.074219 -32.726562 16.507812 -32.726562 C 17.554688 -32.726562 18.511719 -32.726562 19.65625 -32.632812 L 22.421875 -32.632812 C 24.808594 -32.632812 25.859375 -33.683594 25.859375 -36.066406 C 25.191406 -38.453125 23.757812 -39.597656 21.851562 -39.597656 L 20.039062 -39.597656 L 15.933594 -39.691406 C 14.886719 -39.789062 13.359375 -39.789062 12.214844 -39.789062 C 12.214844 -43.796875 12.214844 -46.660156 12.308594 -50.570312 C 12.308594 -54.003906 12.402344 -57.820312 12.402344 -61.542969 C 14.789062 -61.734375 15.648438 -61.636719 17.554688 -61.636719 C 19.179688 -61.636719 20.992188 -61.636719 22.804688 -61.542969 C 24.808594 -61.449219 26.90625 -61.351562 29.007812 -61.351562 C 31.390625 -61.351562 32.441406 -62.785156 32.441406 -65.167969 C 31.488281 -66.980469 29.960938 -68.605469 27.671875 -68.605469 Z M 23.375 -68.507812 "/></g></g><g style="fill:rgb(100%,100%,100%);fill-opacity:1;"><g transform="translate(90.657439, 147.834705)"><path style="stroke:none;" d="M 25.378906 -14.21875 C 22.996094 -14.21875 22.421875 -12.5 21.660156 -10.398438 L 21.660156 -10.496094 C 20.992188 -8.777344 20.324219 -6.773438 18.035156 -6.488281 L 17.367188 -6.488281 C 12.882812 -6.488281 10.972656 -8.300781 10.972656 -13.550781 L 10.972656 -15.457031 C 10.972656 -15.648438 11.066406 -15.933594 11.066406 -16.21875 L 11.066406 -16.699219 C 11.164062 -18.128906 11.164062 -19.464844 11.164062 -20.894531 C 11.164062 -22.707031 11.066406 -24.617188 10.972656 -26.527344 C 10.878906 -28.148438 10.878906 -29.675781 10.878906 -31.105469 L 10.878906 -33.015625 C 10.78125 -33.96875 10.6875 -34.828125 10.6875 -35.683594 C 10.6875 -39.597656 11.546875 -43.507812 17.460938 -43.507812 C 19.273438 -43.507812 21.753906 -42.652344 21.753906 -40.933594 C 22.230469 -39.214844 23.28125 -36.449219 26.238281 -36.449219 C 27.765625 -36.449219 29.292969 -37.878906 29.292969 -40.074219 C 29.292969 -44.273438 26.335938 -48.851562 22.039062 -50.476562 C 20.992188 -50.664062 17.269531 -50.953125 15.742188 -50.953125 C 3.625 -50.953125 3.339844 -39.789062 3.339844 -31.488281 C 3.339844 -29.386719 3.53125 -27.480469 3.625 -25.570312 C 3.722656 -23.664062 3.816406 -21.753906 3.816406 -19.847656 L 3.816406 -15.742188 C 3.816406 -15.265625 3.722656 -14.695312 3.722656 -14.121094 C 3.722656 -10.589844 4.101562 -6.871094 6.203125 -4.199219 C 8.683594 -1.144531 13.550781 1.242188 17.9375 1.242188 C 23.855469 1.242188 29.769531 -2.863281 29.769531 -9.828125 C 29.769531 -12.117188 28.71875 -13.835938 25.570312 -14.21875 Z M 25.378906 -14.21875 "/></g></g><g style="fill:rgb(100%,100%,100%);fill-opacity:1;"><g transform="translate(124.144828, 147.834705)"><path style="stroke:none;" d="M 23.757812 -50.761719 C 11.355469 -50.761719 1.71875 -36.449219 1.71875 -26.527344 L 1.71875 -23.855469 C 2.863281 -8.777344 9.828125 -1.050781 23.664062 1.242188 L 25.378906 1.242188 C 41.316406 1.242188 45.324219 -11.640625 45.324219 -23.1875 C 45.324219 -26.527344 45.035156 -29.101562 44.367188 -31.296875 L 44.273438 -31.296875 C 41.886719 -40.742188 34.636719 -50.761719 23.757812 -50.761719 Z M 32.632812 -8.300781 C 31.199219 -6.871094 28.527344 -6.488281 25.09375 -6.488281 C 24.523438 -6.488281 23.949219 -6.488281 23.375 -6.582031 L 23.472656 -6.582031 C 13.550781 -8.300781 8.875 -15.554688 8.875 -23.664062 C 8.875 -27.003906 9.253906 -30.53125 10.878906 -33.683594 L 10.878906 -33.585938 C 14.121094 -39.789062 18.605469 -43.605469 23.757812 -43.605469 C 26.144531 -43.605469 28.433594 -42.652344 30.722656 -40.648438 L 33.492188 -37.976562 C 36.257812 -34.0625 37.878906 -28.816406 37.878906 -24.042969 L 37.878906 -22.898438 C 37.5 -16.507812 36.164062 -11.449219 32.632812 -8.300781 Z M 32.632812 -8.300781 "/></g></g><g style="fill:rgb(100%,100%,100%);fill-opacity:1;"><g transform="translate(172.324695, 147.834705)"><path style="stroke:none;" d="M 30.820312 -63.546875 C 29.960938 -64.691406 29.195312 -65.644531 27.957031 -66.3125 C 26.621094 -67.269531 20.992188 -68.222656 20.039062 -68.316406 L 14.695312 -68.507812 L 14.027344 -68.507812 C 11.925781 -68.605469 9.921875 -68.699219 7.730469 -68.699219 C 5.628906 -68.699219 4.390625 -67.269531 3.910156 -64.691406 L 4.199219 -58.011719 C 4.292969 -55.628906 4.292969 -53.242188 4.292969 -50.855469 L 4.292969 -40.171875 C 4.292969 -39.023438 4.199219 -37.6875 4.199219 -36.351562 L 4.199219 -29.292969 C 4.199219 -26.238281 4.390625 -23.855469 4.578125 -21.5625 C 4.769531 -19.464844 4.867188 -17.460938 4.867188 -15.363281 C 4.867188 -9.730469 4.867188 -5.535156 4.960938 -2.195312 C 5.535156 -0.09375 8.300781 0.382812 10.398438 0.382812 C 12.117188 -0.761719 12.785156 -2.386719 12.785156 -4.484375 L 12.785156 -5.34375 C 12.59375 -8.015625 12.5 -10.589844 12.5 -13.453125 L 11.832031 -25.761719 C 15.171875 -25.476562 17.269531 -25.378906 19.273438 -25.378906 L 24.234375 -16.316406 C 26.90625 -11.355469 29.960938 -5.726562 32.15625 -0.859375 C 33.394531 -0.09375 34.347656 0.191406 35.304688 0.191406 C 36.925781 0.191406 38.835938 -0.761719 38.835938 -3.148438 C 38.835938 -3.242188 38.835938 -3.625 38.355469 -5.058594 C 36.925781 -8.96875 35.398438 -11.734375 34.160156 -14.21875 L 33.109375 -16.601562 L 30.53125 -20.894531 L 30.53125 -20.800781 L 30.152344 -21.46875 C 29.101562 -23.28125 27.957031 -25.191406 27.195312 -26.8125 C 32.058594 -28.625 35.207031 -35.304688 35.207031 -39.597656 L 35.207031 -39.980469 C 35.398438 -41.695312 35.398438 -43.222656 35.398438 -44.175781 L 35.398438 -48.660156 C 35.398438 -51.429688 35.304688 -53.335938 34.921875 -55.148438 L 34.347656 -56.773438 L 34.253906 -57.152344 C 33.492188 -59.347656 32.632812 -61.734375 30.820312 -63.546875 Z M 27.195312 -54.003906 C 27.671875 -52.289062 27.957031 -47.136719 27.957031 -43.507812 C 27.957031 -39.980469 27.195312 -34.253906 22.898438 -33.300781 C 21.277344 -33.015625 19.179688 -32.824219 18.035156 -32.824219 L 15.742188 -32.824219 C 14.789062 -32.824219 13.835938 -33.015625 13.070312 -33.203125 C 12.785156 -33.203125 12.308594 -33.394531 12.023438 -33.394531 C 12.023438 -33.871094 11.925781 -34.0625 11.832031 -34.347656 L 11.640625 -36.351562 L 11.640625 -38.644531 C 11.640625 -40.359375 11.546875 -42.171875 11.546875 -43.890625 C 11.449219 -45.703125 11.449219 -47.515625 11.449219 -49.425781 L 11.449219 -57.152344 C 11.449219 -58.300781 11.546875 -59.539062 11.546875 -60.78125 L 11.546875 -61.066406 C 11.925781 -61.160156 12.214844 -61.160156 12.5 -61.160156 L 15.839844 -61.160156 C 16.699219 -61.160156 18.128906 -61.160156 19.082031 -61.066406 C 24.617188 -60.492188 25.378906 -59.539062 26.90625 -55.53125 Z M 27.195312 -54.003906 "/></g></g><g style="fill:rgb(100%,100%,100%);fill-opacity:1;"><g transform="translate(214.589401, 147.834705)"><path style="stroke:none;" d="M 27.765625 -14.121094 L 27.289062 -14.21875 C 25.378906 -14.121094 24.042969 -12.976562 23.1875 -10.6875 L 23.089844 -10.398438 L 23.089844 -10.496094 C 22.898438 -10.210938 22.804688 -9.445312 22.804688 -8.875 C 22.804688 -8.683594 22.707031 -7.917969 22.519531 -7.730469 C 22.039062 -6.773438 20.894531 -6.394531 19.558594 -6.394531 C 12.402344 -6.394531 9.921875 -9.828125 9.921875 -16.410156 C 9.921875 -17.078125 9.828125 -17.746094 9.828125 -18.320312 L 9.828125 -19.941406 C 9.730469 -20.894531 9.730469 -21.660156 9.730469 -22.519531 L 9.730469 -24.332031 C 11.925781 -24.617188 14.695312 -24.617188 19.464844 -24.617188 L 20.609375 -24.617188 L 21.375 -24.523438 C 21.5625 -24.523438 21.851562 -24.523438 22.039062 -24.425781 C 22.230469 -24.425781 22.421875 -24.332031 22.707031 -24.332031 C 23.1875 -24.234375 24.042969 -24.140625 24.523438 -24.140625 C 26.8125 -24.140625 28.339844 -25.191406 29.484375 -27.097656 L 29.578125 -27.863281 C 28.339844 -46.371094 26.238281 -51.238281 15.363281 -51.238281 C 6.296875 -51.238281 2.097656 -46.179688 2.097656 -29.769531 C 2.097656 -22.804688 2.289062 -9.828125 4.769531 -6.296875 C 7.441406 -0.761719 13.359375 1.050781 18.128906 1.050781 L 18.605469 1.050781 C 24.902344 0.574219 30.152344 -0.859375 30.152344 -9.730469 C 30.152344 -12.023438 29.578125 -13.359375 27.765625 -14.121094 Z M 11.832031 -42.554688 C 12.308594 -43.414062 13.550781 -43.605469 15.363281 -43.890625 L 16.03125 -43.890625 C 17.460938 -43.890625 18.605469 -43.507812 19.464844 -43.128906 L 19.371094 -43.128906 C 20.417969 -42.554688 20.894531 -40.648438 21.085938 -37.785156 C 21.277344 -36.257812 21.375 -34.445312 21.46875 -31.488281 L 16.886719 -31.488281 C 14.695312 -31.582031 12.785156 -31.582031 11.164062 -31.582031 L 9.730469 -31.582031 C 9.636719 -32.535156 9.636719 -33.394531 9.636719 -34.636719 C 9.636719 -37.5 10.019531 -40.074219 11.832031 -42.554688 Z M 11.832031 -42.554688 "/></g></g><g style="fill:rgb(100%,100%,100%);fill-opacity:1;"><g transform="translate(247.981394, 147.834705)"><path style="stroke:none;" d="M 31.679688 -37.308594 C 31.679688 -41.21875 31.679688 -44.941406 29.101562 -47.515625 C 26.714844 -49.902344 23.1875 -50.855469 19.65625 -50.855469 C 17.652344 -50.855469 15.648438 -50.570312 14.3125 -50.1875 C 9.351562 -48.757812 5.4375 -46.371094 4.867188 -40.933594 C 4.390625 -36.734375 4.199219 -32.347656 4.199219 -28.050781 L 4.199219 -8.96875 C 4.199219 -6.203125 4.101562 -1.621094 6.773438 -0.285156 C 7.539062 0.191406 8.300781 0.285156 8.683594 0.285156 C 11.832031 0.285156 11.832031 -3.722656 11.832031 -7.25 L 11.832031 -11.164062 C 11.832031 -15.933594 11.832031 -21.375 11.734375 -25.859375 C 11.640625 -28.71875 11.546875 -31.582031 11.546875 -34.347656 C 11.546875 -35.78125 11.640625 -37.019531 11.832031 -38.453125 C 11.832031 -38.644531 11.925781 -38.929688 11.925781 -39.214844 C 12.214844 -41.410156 16.21875 -43.222656 18.890625 -43.796875 C 22.039062 -43.699219 23.757812 -42.171875 24.234375 -38.738281 C 24.617188 -35.972656 24.617188 -33.015625 24.617188 -30.054688 L 24.617188 -24.234375 C 24.523438 -22.328125 24.523438 -20.417969 24.523438 -18.605469 L 24.523438 -9.445312 C 24.523438 -5.058594 24.808594 0 28.625 0 C 32.15625 0 32.15625 -2.289062 32.15625 -5.726562 L 32.15625 -7.441406 C 32.15625 -10.210938 31.964844 -12.976562 31.773438 -14.886719 C 31.679688 -15.648438 31.679688 -16.03125 31.679688 -16.410156 Z M 31.679688 -37.308594 "/></g></g><g style="fill:rgb(100%,100%,100%);fill-opacity:1;"><g transform="translate(286.429888, 147.834705)"><path style="stroke:none;" d="M 21.945312 -10.019531 C 20.894531 -7.730469 20.132812 -5.914062 17.652344 -5.914062 C 14.40625 -6.105469 13.261719 -9.828125 13.261719 -12.976562 C 13.261719 -14.695312 13.261719 -16.125 13.359375 -17.175781 C 13.359375 -18.035156 13.453125 -18.796875 13.453125 -19.464844 L 13.453125 -22.804688 C 13.453125 -25.191406 13.359375 -27.765625 13.359375 -30.246094 L 13.359375 -39.40625 C 13.359375 -40.359375 13.453125 -41.984375 13.070312 -42.171875 C 13.453125 -42.171875 13.929688 -42.171875 14.3125 -42.269531 L 14.121094 -42.269531 L 20.417969 -42.554688 C 22.519531 -42.652344 23.566406 -43.699219 23.566406 -45.609375 C 23.566406 -47.515625 21.277344 -49.617188 18.890625 -49.617188 C 17.367188 -49.617188 14.789062 -49.425781 13.453125 -49.328125 C 13.359375 -51.238281 13.261719 -53.144531 13.261719 -54.386719 L 13.261719 -63.261719 C 13.261719 -65.167969 11.164062 -66.410156 9.066406 -66.410156 C 7.824219 -66.410156 6.679688 -65.742188 6.394531 -64.691406 L 6.582031 -64.882812 C 5.914062 -63.738281 5.246094 -61.257812 5.246094 -60.113281 C 5.246094 -54.386719 5.535156 -52.382812 5.726562 -51.144531 C 5.726562 -50.570312 5.820312 -49.996094 5.914062 -49.328125 L 3.433594 -49.328125 C 3.054688 -49.328125 2.578125 -49.425781 2.195312 -49.425781 C 0.953125 -49.425781 -0.859375 -46.46875 -0.859375 -45.132812 C -0.859375 -42.269531 2.386719 -41.503906 4.769531 -41.503906 L 5.820312 -41.503906 C 5.820312 -35.304688 5.914062 -29.292969 6.105469 -23.28125 L 6.105469 -22.804688 C 6.105469 -21.46875 6.011719 -19.082031 6.011719 -17.9375 L 6.011719 -12.882812 C 6.011719 -9.828125 6.105469 -6.964844 7.539062 -4.292969 C 9.730469 -0.953125 13.929688 1.429688 17.652344 1.429688 C 23.855469 1.429688 27.003906 -1.910156 28.433594 -6.964844 C 28.625 -7.824219 28.625 -8.398438 28.625 -8.777344 C 28.625 -11.449219 27.574219 -12.785156 25.378906 -12.785156 C 23.664062 -12.785156 22.707031 -11.449219 22.230469 -10.496094 C 22.136719 -10.304688 22.328125 -10.398438 22.230469 -10.304688 Z M 21.945312 -10.019531 "/></g></g></g></svg>

