<?xml version="1.0" encoding="UTF-8"?><svg xmlns="http://www.w3.org/2000/svg" xmlns:xlink="http://www.w3.org/1999/xlink" contentScriptType="text/ecmascript" width="150pt" zoomAndPan="magnify" contentStyleType="text/css" viewBox="0 0 150 74.999997" height="74.999997pt" preserveAspectRatio="xMidYMid meet" version="1.2"><defs><g/><clipPath xml:id="clip1" id="clip1"><path d="M 20.429688 23 L 125.429688 23 L 125.429688 65 L 20.429688 65 Z M 20.429688 23 "/></clipPath></defs><g xml:id="surface1" id="surface1"><g clip-rule="nonzero" clip-path="url(#clip1)"><path style=" stroke:none;fill-rule:nonzero;fill:rgb(0%,50.19989%,21.569824%);fill-opacity:1;" d="M 125.429688 64.582031 L 20.429688 64.582031 L 20.429688 23.828125 L 125.429688 23.828125 L 125.429688 64.582031 "/></g><path style=" stroke:none;fill-rule:nonzero;fill:rgb(13.729858%,12.159729%,12.548828%);fill-opacity:1;" d="M 119.476562 74.277344 L 119.476562 67.925781 C 119.476562 67.742188 119.402344 67.5625 119.269531 67.433594 C 119.144531 67.304688 118.964844 67.230469 118.78125 67.230469 L 112.570312 67.230469 L 112.570312 29.804688 C 112.570312 29.625 112.496094 29.445312 112.367188 29.3125 C 112.238281 29.1875 112.058594 29.113281 111.875 29.113281 L 109.851562 29.113281 L 109.851562 25.496094 C 109.851562 25.3125 109.777344 25.132812 109.648438 25.003906 C 109.519531 24.875 109.339844 24.800781 109.160156 24.800781 L 98.742188 24.800781 C 98.5625 24.800781 98.382812 24.875 98.253906 25.003906 C 98.125 25.132812 98.050781 25.3125 98.050781 25.496094 L 98.050781 29.113281 L 95.347656 29.113281 C 95.164062 29.113281 94.984375 29.1875 94.855469 29.3125 C 94.726562 29.445312 94.65625 29.625 94.65625 29.804688 L 94.65625 67.230469 L 93.097656 67.230469 L 93.097656 8.476562 C 93.097656 8.25 92.988281 8.035156 92.800781 7.90625 C 92.613281 7.773438 92.375 7.746094 92.160156 7.824219 L 72.691406 15.085938 C 72.417969 15.1875 72.238281 15.449219 72.238281 15.738281 L 72.238281 67.230469 L 69.777344 67.230469 L 69.777344 20.050781 C 69.777344 19.867188 69.703125 19.6875 69.574219 19.558594 C 69.445312 19.429688 69.265625 19.355469 69.082031 19.355469 L 67.058594 19.355469 L 67.058594 15.738281 C 67.058594 15.554688 66.984375 15.378906 66.855469 15.246094 C 66.726562 15.117188 66.546875 15.042969 66.367188 15.042969 L 55.496094 15.042969 C 55.316406 15.042969 55.136719 15.117188 55.007812 15.246094 C 54.878906 15.378906 54.804688 15.554688 54.804688 15.738281 L 54.804688 19.355469 L 53.234375 19.355469 C 53.050781 19.355469 52.871094 19.429688 52.742188 19.558594 C 52.613281 19.6875 52.539062 19.867188 52.539062 20.050781 L 52.539062 67.230469 L 49.171875 67.230469 L 49.171875 26.855469 C 49.171875 26.671875 49.097656 26.492188 48.96875 26.367188 C 48.839844 26.234375 48.660156 26.160156 48.476562 26.160156 L 33.988281 26.160156 C 33.804688 26.160156 33.625 26.234375 33.496094 26.367188 C 33.367188 26.492188 33.292969 26.671875 33.292969 26.855469 L 33.292969 67.230469 L 27.082031 67.230469 C 26.898438 67.230469 26.71875 67.304688 26.589844 67.433594 C 26.460938 67.5625 26.386719 67.742188 26.386719 67.925781 L 26.386719 74.277344 C 26.386719 74.664062 26.699219 74.972656 27.082031 74.972656 C 27.460938 74.972656 27.773438 74.664062 27.773438 74.277344 L 27.773438 68.621094 L 33.988281 68.621094 C 34.167969 68.621094 34.347656 68.546875 34.476562 68.417969 C 34.605469 68.289062 34.679688 68.109375 34.679688 67.925781 L 34.679688 27.550781 L 47.785156 27.550781 L 47.785156 67.925781 C 47.785156 68.109375 47.859375 68.289062 47.988281 68.417969 C 48.117188 68.546875 48.296875 68.621094 48.476562 68.621094 L 53.234375 68.621094 C 53.414062 68.621094 53.59375 68.546875 53.722656 68.417969 C 53.851562 68.289062 53.925781 68.109375 53.925781 67.925781 L 53.925781 20.746094 L 55.496094 20.746094 C 55.679688 20.746094 55.859375 20.671875 55.988281 20.539062 C 56.117188 20.410156 56.191406 20.234375 56.191406 20.050781 L 56.191406 16.433594 L 65.671875 16.433594 L 65.671875 20.050781 C 65.671875 20.234375 65.746094 20.410156 65.875 20.539062 C 66.003906 20.671875 66.183594 20.746094 66.367188 20.746094 L 68.390625 20.746094 L 68.390625 67.925781 C 68.390625 68.109375 68.464844 68.289062 68.59375 68.417969 C 68.722656 68.546875 68.902344 68.621094 69.082031 68.621094 L 72.933594 68.621094 C 73.113281 68.621094 73.292969 68.546875 73.421875 68.417969 C 73.550781 68.289062 73.625 68.109375 73.625 67.925781 L 73.625 16.222656 L 91.710938 9.476562 L 91.710938 67.925781 C 91.710938 68.109375 91.785156 68.289062 91.914062 68.417969 C 92.042969 68.546875 92.222656 68.621094 92.402344 68.621094 L 95.347656 68.621094 C 95.53125 68.621094 95.710938 68.546875 95.835938 68.417969 C 95.964844 68.289062 96.042969 68.109375 96.042969 67.925781 L 96.042969 30.5 L 98.742188 30.5 C 98.925781 30.5 99.105469 30.425781 99.234375 30.296875 C 99.363281 30.167969 99.4375 29.988281 99.4375 29.804688 L 99.4375 26.191406 L 108.464844 26.191406 L 108.464844 29.804688 C 108.464844 29.988281 108.539062 30.167969 108.667969 30.296875 C 108.796875 30.425781 108.976562 30.5 109.160156 30.5 L 111.183594 30.5 L 111.183594 67.925781 C 111.183594 68.109375 111.257812 68.289062 111.386719 68.417969 C 111.515625 68.546875 111.691406 68.621094 111.875 68.621094 L 118.089844 68.621094 L 118.089844 74.277344 C 118.089844 74.664062 118.398438 74.972656 118.78125 74.972656 C 119.164062 74.972656 119.476562 74.664062 119.476562 74.277344 "/><path style=" stroke:none;fill-rule:nonzero;fill:rgb(13.729858%,12.159729%,12.548828%);fill-opacity:1;" d="M 60.195312 15.738281 L 60.195312 0.535156 C 60.195312 0.253906 59.964844 0.0234375 59.683594 0.0234375 C 59.402344 0.0234375 59.175781 0.253906 59.175781 0.535156 L 59.175781 15.738281 C 59.175781 16.019531 59.402344 16.25 59.683594 16.25 C 59.964844 16.25 60.195312 16.019531 60.195312 15.738281 "/><g style="fill:rgb(100%,100%,100%);fill-opacity:1;"><g transform="translate(22.114312, 58.44217)"><path style="stroke:none;" d="M 9.042969 -26.503906 C 8.378906 -26.429688 7.972656 -26.394531 6.570312 -26.394531 L 4.761719 -26.394531 C 4.503906 -26.394531 4.320312 -26.429688 4.097656 -26.429688 C 1.992188 -26.429688 1.773438 -25.617188 1.773438 -24.878906 L 1.773438 -24.511719 C 1.773438 -23.476562 1.808594 -22.777344 1.882812 -22.148438 C 1.957031 -21.519531 2.03125 -20.636719 2.03125 -19.417969 L 2.03125 -18.714844 C 2.03125 -18.089844 1.992188 -17.535156 1.957031 -16.90625 C 1.917969 -16.058594 1.882812 -15.097656 1.882812 -13.511719 C 1.882812 -12.773438 1.882812 -11.480469 1.917969 -10.519531 C 1.957031 -9.265625 1.992188 -7.898438 1.992188 -6.71875 C 1.992188 -4.910156 1.957031 -3.394531 1.847656 -1.992188 C 1.847656 -0.183594 2.621094 0.0742188 3.582031 0.0742188 L 3.875 0.0742188 C 5.09375 0.0351562 5.871094 0.0742188 6.386719 0.109375 L 6.867188 0.109375 C 7.308594 0.109375 8.046875 0.0742188 8.527344 0.0351562 C 9.042969 0 9.707031 -0.0351562 10.113281 0 L 11.371094 0.0351562 C 11.738281 0.0351562 12.253906 -0.554688 12.253906 -1.035156 C 12.253906 -2.4375 11.40625 -2.730469 10.1875 -2.730469 C 9.5625 -2.730469 8.96875 -2.695312 8.417969 -2.65625 C 7.972656 -2.621094 7.492188 -2.621094 7.050781 -2.621094 C 6.421875 -2.621094 5.574219 -2.585938 4.871094 -2.621094 L 4.871094 -3.726562 C 4.871094 -4.761719 4.835938 -5.132812 4.835938 -5.316406 L 4.835938 -5.464844 L 4.910156 -8.34375 L 4.910156 -8.75 C 4.910156 -9.15625 4.910156 -9.78125 4.871094 -10.1875 C 4.871094 -10.632812 4.835938 -11.039062 4.835938 -11.40625 L 4.835938 -12.625 C 5.609375 -12.625 5.832031 -12.660156 6.386719 -12.660156 C 6.792969 -12.660156 7.160156 -12.660156 7.605469 -12.625 L 8.675781 -12.625 C 9.597656 -12.625 10.003906 -13.03125 10.003906 -13.953125 C 9.746094 -14.875 9.191406 -15.320312 8.453125 -15.320312 L 7.753906 -15.320312 L 6.164062 -15.355469 C 5.757812 -15.394531 5.167969 -15.394531 4.726562 -15.394531 C 4.726562 -16.945312 4.726562 -18.050781 4.761719 -19.566406 C 4.761719 -20.894531 4.800781 -22.371094 4.800781 -23.808594 C 5.722656 -23.882812 6.054688 -23.847656 6.792969 -23.847656 C 7.417969 -23.847656 8.121094 -23.847656 8.824219 -23.808594 C 9.597656 -23.773438 10.410156 -23.738281 11.222656 -23.738281 C 12.144531 -23.738281 12.550781 -24.289062 12.550781 -25.214844 C 12.183594 -25.914062 11.589844 -26.542969 10.707031 -26.542969 Z M 9.042969 -26.503906 "/></g></g><g style="fill:rgb(100%,100%,100%);fill-opacity:1;"><g transform="translate(36.732249, 58.44217)"><path style="stroke:none;" d="M 9.820312 -5.5 C 8.898438 -5.5 8.675781 -4.835938 8.378906 -4.023438 L 8.378906 -4.0625 C 8.121094 -3.394531 7.863281 -2.621094 6.976562 -2.511719 L 6.71875 -2.511719 C 4.984375 -2.511719 4.246094 -3.210938 4.246094 -5.242188 L 4.246094 -5.980469 C 4.246094 -6.054688 4.28125 -6.164062 4.28125 -6.277344 L 4.28125 -6.460938 C 4.320312 -7.015625 4.320312 -7.53125 4.320312 -8.085938 C 4.320312 -8.785156 4.28125 -9.523438 4.246094 -10.261719 C 4.207031 -10.890625 4.207031 -11.480469 4.207031 -12.035156 L 4.207031 -12.773438 C 4.171875 -13.140625 4.132812 -13.472656 4.132812 -13.804688 C 4.132812 -15.320312 4.464844 -16.832031 6.753906 -16.832031 C 7.457031 -16.832031 8.417969 -16.5 8.417969 -15.835938 C 8.601562 -15.171875 9.007812 -14.101562 10.152344 -14.101562 C 10.742188 -14.101562 11.332031 -14.65625 11.332031 -15.503906 C 11.332031 -17.128906 10.1875 -18.902344 8.527344 -19.527344 C 8.121094 -19.601562 6.679688 -19.710938 6.089844 -19.710938 C 1.402344 -19.710938 1.292969 -15.394531 1.292969 -12.183594 C 1.292969 -11.371094 1.367188 -10.632812 1.402344 -9.894531 C 1.441406 -9.15625 1.476562 -8.417969 1.476562 -7.679688 L 1.476562 -6.089844 C 1.476562 -5.90625 1.441406 -5.683594 1.441406 -5.464844 C 1.441406 -4.097656 1.585938 -2.65625 2.398438 -1.625 C 3.359375 -0.441406 5.242188 0.480469 6.941406 0.480469 C 9.230469 0.480469 11.515625 -1.109375 11.515625 -3.800781 C 11.515625 -4.6875 11.113281 -5.351562 9.894531 -5.5 Z M 9.820312 -5.5 "/></g></g><g style="fill:rgb(100%,100%,100%);fill-opacity:1;"><g transform="translate(49.689055, 58.44217)"><path style="stroke:none;" d="M 9.191406 -19.640625 C 4.394531 -19.640625 0.664062 -14.101562 0.664062 -10.261719 L 0.664062 -9.230469 C 1.109375 -3.394531 3.800781 -0.40625 9.15625 0.480469 L 9.820312 0.480469 C 15.984375 0.480469 17.535156 -4.503906 17.535156 -8.96875 C 17.535156 -10.261719 17.425781 -11.257812 17.164062 -12.109375 L 17.128906 -12.109375 C 16.207031 -15.761719 13.398438 -19.640625 9.191406 -19.640625 Z M 12.625 -3.210938 C 12.070312 -2.65625 11.039062 -2.511719 9.707031 -2.511719 C 9.488281 -2.511719 9.265625 -2.511719 9.042969 -2.546875 L 9.082031 -2.546875 C 5.242188 -3.210938 3.433594 -6.015625 3.433594 -9.15625 C 3.433594 -10.445312 3.582031 -11.8125 4.207031 -13.03125 L 4.207031 -12.992188 C 5.464844 -15.394531 7.199219 -16.871094 9.191406 -16.871094 C 10.113281 -16.871094 11 -16.5 11.886719 -15.726562 L 12.957031 -14.691406 C 14.027344 -13.179688 14.65625 -11.148438 14.65625 -9.300781 L 14.65625 -8.859375 C 14.507812 -6.386719 13.992188 -4.429688 12.625 -3.210938 Z M 12.625 -3.210938 "/></g></g><g style="fill:rgb(100%,100%,100%);fill-opacity:1;"><g transform="translate(68.33062, 58.44217)"><path style="stroke:none;" d="M 11.921875 -24.585938 C 11.589844 -25.027344 11.296875 -25.398438 10.816406 -25.65625 C 10.300781 -26.023438 8.121094 -26.394531 7.753906 -26.429688 L 5.683594 -26.503906 L 5.425781 -26.503906 C 4.613281 -26.542969 3.839844 -26.578125 2.988281 -26.578125 C 2.179688 -26.578125 1.699219 -26.023438 1.511719 -25.027344 L 1.625 -22.445312 C 1.660156 -21.519531 1.660156 -20.597656 1.660156 -19.675781 L 1.660156 -15.542969 C 1.660156 -15.097656 1.625 -14.582031 1.625 -14.066406 L 1.625 -11.332031 C 1.625 -10.152344 1.699219 -9.230469 1.773438 -8.34375 C 1.847656 -7.53125 1.882812 -6.753906 1.882812 -5.941406 C 1.882812 -3.765625 1.882812 -2.140625 1.917969 -0.847656 C 2.140625 -0.0351562 3.210938 0.148438 4.023438 0.148438 C 4.6875 -0.296875 4.945312 -0.921875 4.945312 -1.734375 L 4.945312 -2.066406 C 4.871094 -3.101562 4.835938 -4.097656 4.835938 -5.203125 L 4.578125 -9.96875 C 5.871094 -9.855469 6.679688 -9.820312 7.457031 -9.820312 L 9.375 -6.3125 C 10.410156 -4.394531 11.589844 -2.214844 12.441406 -0.332031 C 12.921875 -0.0351562 13.289062 0.0742188 13.660156 0.0742188 C 14.285156 0.0742188 15.023438 -0.296875 15.023438 -1.21875 C 15.023438 -1.253906 15.023438 -1.402344 14.839844 -1.957031 C 14.285156 -3.46875 13.695312 -4.539062 13.214844 -5.5 L 12.808594 -6.421875 L 11.8125 -8.085938 L 11.8125 -8.046875 L 11.664062 -8.304688 C 11.257812 -9.007812 10.816406 -9.746094 10.519531 -10.375 C 12.402344 -11.074219 13.621094 -13.660156 13.621094 -15.320312 L 13.621094 -15.46875 C 13.695312 -16.132812 13.695312 -16.722656 13.695312 -17.089844 L 13.695312 -18.828125 C 13.695312 -19.898438 13.660156 -20.636719 13.511719 -21.335938 L 13.289062 -21.964844 L 13.253906 -22.113281 C 12.957031 -22.960938 12.625 -23.882812 11.921875 -24.585938 Z M 10.519531 -20.894531 C 10.707031 -20.230469 10.816406 -18.234375 10.816406 -16.832031 C 10.816406 -15.46875 10.519531 -13.253906 8.859375 -12.882812 C 8.230469 -12.773438 7.417969 -12.699219 6.976562 -12.699219 L 6.089844 -12.699219 C 5.722656 -12.699219 5.351562 -12.773438 5.058594 -12.847656 C 4.945312 -12.847656 4.761719 -12.921875 4.652344 -12.921875 C 4.652344 -13.105469 4.613281 -13.179688 4.578125 -13.289062 L 4.503906 -14.066406 L 4.503906 -14.949219 C 4.503906 -15.613281 4.464844 -16.316406 4.464844 -16.980469 C 4.429688 -17.683594 4.429688 -18.382812 4.429688 -19.121094 L 4.429688 -22.113281 C 4.429688 -22.554688 4.464844 -23.035156 4.464844 -23.515625 L 4.464844 -23.625 C 4.613281 -23.664062 4.726562 -23.664062 4.835938 -23.664062 L 6.128906 -23.664062 C 6.460938 -23.664062 7.015625 -23.664062 7.382812 -23.625 C 9.523438 -23.402344 9.820312 -23.035156 10.410156 -21.484375 Z M 10.519531 -20.894531 "/></g></g><g style="fill:rgb(100%,100%,100%);fill-opacity:1;"><g transform="translate(84.683517, 58.44217)"><path style="stroke:none;" d="M 10.742188 -5.464844 L 10.558594 -5.5 C 9.820312 -5.464844 9.300781 -5.019531 8.96875 -4.132812 L 8.933594 -4.023438 L 8.933594 -4.0625 C 8.859375 -3.949219 8.824219 -3.65625 8.824219 -3.433594 C 8.824219 -3.359375 8.785156 -3.0625 8.710938 -2.988281 C 8.527344 -2.621094 8.085938 -2.472656 7.566406 -2.472656 C 4.800781 -2.472656 3.839844 -3.800781 3.839844 -6.347656 C 3.839844 -6.609375 3.800781 -6.867188 3.800781 -7.085938 L 3.800781 -7.714844 C 3.765625 -8.085938 3.765625 -8.378906 3.765625 -8.710938 L 3.765625 -9.414062 C 4.613281 -9.523438 5.683594 -9.523438 7.53125 -9.523438 L 7.972656 -9.523438 L 8.269531 -9.488281 C 8.34375 -9.488281 8.453125 -9.488281 8.527344 -9.449219 C 8.601562 -9.449219 8.675781 -9.414062 8.785156 -9.414062 C 8.96875 -9.375 9.300781 -9.339844 9.488281 -9.339844 C 10.375 -9.339844 10.964844 -9.746094 11.40625 -10.484375 L 11.445312 -10.777344 C 10.964844 -17.941406 10.152344 -19.824219 5.941406 -19.824219 C 2.4375 -19.824219 0.8125 -17.867188 0.8125 -11.515625 C 0.8125 -8.824219 0.886719 -3.800781 1.847656 -2.4375 C 2.878906 -0.296875 5.167969 0.40625 7.015625 0.40625 L 7.199219 0.40625 C 9.636719 0.222656 11.664062 -0.332031 11.664062 -3.765625 C 11.664062 -4.652344 11.445312 -5.167969 10.742188 -5.464844 Z M 4.578125 -16.464844 C 4.761719 -16.796875 5.242188 -16.871094 5.941406 -16.980469 L 6.203125 -16.980469 C 6.753906 -16.980469 7.199219 -16.832031 7.53125 -16.6875 L 7.492188 -16.6875 C 7.898438 -16.464844 8.085938 -15.726562 8.160156 -14.617188 C 8.230469 -14.027344 8.269531 -13.328125 8.304688 -12.183594 L 6.535156 -12.183594 C 5.683594 -12.21875 4.945312 -12.21875 4.320312 -12.21875 L 3.765625 -12.21875 C 3.726562 -12.589844 3.726562 -12.921875 3.726562 -13.398438 C 3.726562 -14.507812 3.875 -15.503906 4.578125 -16.464844 Z M 4.578125 -16.464844 "/></g></g><g style="fill:rgb(100%,100%,100%);fill-opacity:1;"><g transform="translate(97.603415, 58.44217)"><path style="stroke:none;" d="M 12.253906 -14.433594 C 12.253906 -15.949219 12.253906 -17.386719 11.257812 -18.382812 C 10.335938 -19.304688 8.96875 -19.675781 7.605469 -19.675781 C 6.828125 -19.675781 6.054688 -19.566406 5.539062 -19.417969 C 3.617188 -18.863281 2.105469 -17.941406 1.882812 -15.835938 C 1.699219 -14.210938 1.625 -12.515625 1.625 -10.851562 L 1.625 -3.46875 C 1.625 -2.398438 1.585938 -0.628906 2.621094 -0.109375 C 2.917969 0.0742188 3.210938 0.109375 3.359375 0.109375 C 4.578125 0.109375 4.578125 -1.441406 4.578125 -2.804688 L 4.578125 -4.320312 C 4.578125 -6.164062 4.578125 -8.269531 4.539062 -10.003906 C 4.503906 -11.113281 4.464844 -12.21875 4.464844 -13.289062 C 4.464844 -13.84375 4.503906 -14.324219 4.578125 -14.875 C 4.578125 -14.949219 4.613281 -15.0625 4.613281 -15.171875 C 4.726562 -16.019531 6.277344 -16.722656 7.308594 -16.945312 C 8.527344 -16.90625 9.191406 -16.316406 9.375 -14.988281 C 9.523438 -13.917969 9.523438 -12.773438 9.523438 -11.628906 L 9.523438 -9.375 C 9.488281 -8.636719 9.488281 -7.898438 9.488281 -7.199219 L 9.488281 -3.65625 C 9.488281 -1.957031 9.597656 0 11.074219 0 C 12.441406 0 12.441406 -0.886719 12.441406 -2.214844 L 12.441406 -2.878906 C 12.441406 -3.949219 12.367188 -5.019531 12.292969 -5.757812 C 12.253906 -6.054688 12.253906 -6.203125 12.253906 -6.347656 Z M 12.253906 -14.433594 "/></g></g><g style="fill:rgb(100%,100%,100%);fill-opacity:1;"><g transform="translate(112.479749, 58.44217)"><path style="stroke:none;" d="M 8.492188 -3.875 C 8.085938 -2.988281 7.789062 -2.289062 6.828125 -2.289062 C 5.574219 -2.363281 5.132812 -3.800781 5.132812 -5.019531 C 5.132812 -5.683594 5.132812 -6.238281 5.167969 -6.644531 C 5.167969 -6.976562 5.203125 -7.273438 5.203125 -7.53125 L 5.203125 -8.824219 C 5.203125 -9.746094 5.167969 -10.742188 5.167969 -11.703125 L 5.167969 -15.246094 C 5.167969 -15.613281 5.203125 -16.242188 5.058594 -16.316406 C 5.203125 -16.316406 5.390625 -16.316406 5.539062 -16.351562 L 5.464844 -16.351562 L 7.898438 -16.464844 C 8.710938 -16.5 9.117188 -16.90625 9.117188 -17.644531 C 9.117188 -18.382812 8.230469 -19.195312 7.308594 -19.195312 C 6.71875 -19.195312 5.722656 -19.121094 5.203125 -19.085938 C 5.167969 -19.824219 5.132812 -20.5625 5.132812 -21.042969 L 5.132812 -24.476562 C 5.132812 -25.214844 4.320312 -25.691406 3.507812 -25.691406 C 3.027344 -25.691406 2.585938 -25.433594 2.472656 -25.027344 L 2.546875 -25.101562 C 2.289062 -24.660156 2.03125 -23.699219 2.03125 -23.257812 C 2.03125 -21.042969 2.140625 -20.265625 2.214844 -19.785156 C 2.214844 -19.566406 2.25 -19.34375 2.289062 -19.085938 L 1.328125 -19.085938 C 1.179688 -19.085938 0.996094 -19.121094 0.847656 -19.121094 C 0.371094 -19.121094 -0.332031 -17.976562 -0.332031 -17.460938 C -0.332031 -16.351562 0.921875 -16.058594 1.847656 -16.058594 L 2.25 -16.058594 C 2.25 -13.660156 2.289062 -11.332031 2.363281 -9.007812 L 2.363281 -8.824219 C 2.363281 -8.304688 2.324219 -7.382812 2.324219 -6.941406 L 2.324219 -4.984375 C 2.324219 -3.800781 2.363281 -2.695312 2.917969 -1.660156 C 3.765625 -0.371094 5.390625 0.554688 6.828125 0.554688 C 9.230469 0.554688 10.445312 -0.738281 11 -2.695312 C 11.074219 -3.027344 11.074219 -3.25 11.074219 -3.394531 C 11.074219 -4.429688 10.667969 -4.945312 9.820312 -4.945312 C 9.15625 -4.945312 8.785156 -4.429688 8.601562 -4.0625 C 8.5625 -3.988281 8.636719 -4.023438 8.601562 -3.988281 Z M 8.492188 -3.875 "/></g></g></g></svg>